<svg width="40" height="40" viewBox="0 0 40 40" fill="none" xmlns="http://www.w3.org/2000/svg">
<rect width="40" height="40" rx="20" fill="#F5F5F5"/>
<g clip-path="url(#clip0_440_4121)">
<path d="M16 24C16 24.7956 15.6839 25.5587 15.1213 26.1213C14.5587 26.6839 13.7956 27 13 27" stroke="black" stroke-width="1.4" stroke-linecap="round" stroke-linejoin="round"/>
<path d="M24 24C24 24.7956 24.3161 25.5587 24.8787 26.1213C25.4413 26.6839 26.2044 27 27 27" stroke="black" stroke-width="1.4" stroke-linecap="round" stroke-linejoin="round"/>
<path d="M20 24V28" stroke="black" stroke-width="1.4" stroke-linecap="round" stroke-linejoin="round"/>
<path d="M11 15C11 14.4696 11.2107 13.9609 11.5858 13.5858C11.9609 13.2107 12.4696 13 13 13H27C27.5304 13 28.0391 13.2107 28.4142 13.5858C28.7893 13.9609 29 14.4696 29 15V19C29 19.5304 28.7893 20.0391 28.4142 20.4142C28.0391 20.7893 27.5304 21 27 21H13C12.4696 21 11.9609 20.7893 11.5858 20.4142C11.2107 20.0391 11 19.5304 11 19V15Z" stroke="black" stroke-width="1.4" stroke-linecap="round" stroke-linejoin="round"/>
<path d="M15 21V18C15 17.7348 15.1054 17.4804 15.2929 17.2929C15.4804 17.1054 15.7348 17 16 17H24C24.2652 17 24.5196 17.1054 24.7071 17.2929C24.8946 17.4804 25 17.7348 25 18V21" stroke="black" stroke-width="1.4" stroke-linecap="round" stroke-linejoin="round"/>
</g>
<defs>
<clipPath id="clip0_440_4121">
<rect width="24" height="24" fill="white" transform="translate(8 8)"/>
</clipPath>
</defs>
</svg>
