<svg width="40" height="40" viewBox="0 0 40 40" fill="none" xmlns="http://www.w3.org/2000/svg">
<rect width="40" height="40" rx="20" fill="#F5F5F5"/>
<g clip-path="url(#clip0_440_4170)">
<path d="M11 20C11 21.1819 11.2328 22.3522 11.6851 23.4442C12.1374 24.5361 12.8003 25.5282 13.636 26.364C14.4718 27.1997 15.4639 27.8626 16.5558 28.3149C17.6478 28.7672 18.8181 29 20 29C21.1819 29 22.3522 28.7672 23.4442 28.3149C24.5361 27.8626 25.5282 27.1997 26.364 26.364C27.1997 25.5282 27.8626 24.5361 28.3149 23.4442C28.7672 22.3522 29 21.1819 29 20C29 18.8181 28.7672 17.6478 28.3149 16.5558C27.8626 15.4639 27.1997 14.4718 26.364 13.636C25.5282 12.8003 24.5361 12.1374 23.4442 11.6851C22.3522 11.2328 21.1819 11 20 11C18.8181 11 17.6478 11.2328 16.5558 11.6851C15.4639 12.1374 14.4718 12.8003 13.636 13.636C12.8003 14.4718 12.1374 15.4639 11.6851 16.5558C11.2328 17.6478 11 18.8181 11 20Z" stroke="black" stroke-width="1.4" stroke-linecap="round" stroke-linejoin="round"/>
<path d="M19 20C19 20.2652 19.1054 20.5196 19.2929 20.7071C19.4804 20.8946 19.7348 21 20 21C20.2652 21 20.5196 20.8946 20.7071 20.7071C20.8946 20.5196 21 20.2652 21 20C21 19.7348 20.8946 19.4804 20.7071 19.2929C20.5196 19.1054 20.2652 19 20 19C19.7348 19 19.4804 19.1054 19.2929 19.2929C19.1054 19.4804 19 19.7348 19 20Z" stroke="black" stroke-width="1.4" stroke-linecap="round" stroke-linejoin="round"/>
<path d="M15 20C15 18.6739 15.5268 17.4021 16.4645 16.4645C17.4021 15.5268 18.6739 15 20 15" stroke="black" stroke-width="1.4" stroke-linecap="round" stroke-linejoin="round"/>
<path d="M20 25C21.3261 25 22.5979 24.4732 23.5355 23.5355C24.4732 22.5979 25 21.3261 25 20" stroke="black" stroke-width="1.4" stroke-linecap="round" stroke-linejoin="round"/>
</g>
<defs>
<clipPath id="clip0_440_4170">
<rect width="24" height="24" fill="white" transform="translate(8 8)"/>
</clipPath>
</defs>
</svg>
