<svg width="1412" height="641" viewBox="0 0 1412 641" fill="none" xmlns="http://www.w3.org/2000/svg">
<path opacity="0.05" d="M656.464 1999.83C763.856 1891.02 826.271 1952.62 933.663 1843.81C1041.06 1735 978.64 1673.4 1086 1564.61C1193.36 1455.83 1255.81 1517.4 1363.2 1408.59C1470.59 1299.78 1408.18 1238.18 1515.57 1129.36C1622.96 1020.55 1685.38 1082.15 1792.8 973.307C1900.22 864.462 1837.78 802.894 1945.17 694.081M-564.377 774.845C-456.985 666.032 -394.57 727.632 -287.178 618.819C-179.786 510.006 -242.201 448.406 -134.839 339.625C-27.4782 230.843 34.9677 292.412 142.36 183.599C249.752 74.7865 187.337 13.1865 294.729 -95.6263C402.121 -204.439 464.536 -142.839 571.959 -251.683C679.382 -360.527 616.936 -422.096 724.328 -530.909M215.694 1542.29C323.086 1433.48 385.501 1495.08 492.893 1386.27C600.285 1277.46 537.87 1215.86 645.232 1107.07C752.593 998.293 815.039 1059.86 922.431 951.05C1029.82 842.237 967.408 780.637 1074.8 671.824C1182.19 563.011 1244.61 624.611 1352.03 515.767C1459.45 406.923 1397.01 345.354 1504.4 236.541M-180.212 1152.08C-72.8196 1043.26 -10.4045 1104.86 96.9875 996.05C204.38 887.237 141.965 825.637 249.326 716.856C356.687 608.074 419.133 669.643 526.525 560.83C633.917 452.017 571.502 390.417 678.894 281.604C786.286 172.792 848.701 234.392 956.124 125.548C1063.55 16.7034 1001.1 -44.8654 1108.49 -153.678M598.307 1931.04C705.699 1822.22 768.114 1883.82 875.506 1775.01C982.898 1666.2 920.483 1604.6 1027.84 1495.82C1135.21 1387.04 1197.65 1448.6 1305.04 1339.79C1412.44 1230.98 1350.02 1169.38 1457.41 1060.57C1564.8 951.753 1627.22 1013.35 1734.64 904.509C1842.07 795.665 1779.62 734.096 1887.01 625.283M-375.596 975.733C-268.204 866.921 -205.789 928.521 -98.3968 819.708C8.99525 710.895 -53.4198 649.295 53.9414 540.513C161.303 431.732 223.748 493.301 331.141 384.488C438.533 275.675 376.117 214.075 483.51 105.262C590.902 -3.55062 653.317 58.0494 760.74 -50.7947C868.162 -159.639 805.717 -221.208 913.109 -330.02M402.923 1741.89C510.315 1633.08 572.73 1694.68 680.122 1585.86C787.514 1477.05 725.099 1415.45 832.46 1306.67C939.821 1197.89 1002.27 1259.46 1109.66 1150.64C1217.05 1041.83 1154.64 980.232 1262.03 871.419C1369.42 762.606 1431.84 824.206 1539.26 715.362C1646.68 606.518 1584.24 544.949 1691.63 436.136M8.56869 1352.96C115.961 1244.15 178.376 1305.75 285.768 1196.94C393.16 1088.13 330.745 1026.53 438.106 917.744C545.467 808.963 607.913 870.531 715.305 761.719C822.697 652.906 760.282 591.306 867.674 482.493C975.066 373.68 1037.48 435.28 1144.9 326.436C1252.33 217.592 1189.88 156.023 1297.27 47.2104M787.088 2131.93C894.48 2023.11 956.895 2084.71 1064.29 1975.9C1171.68 1867.09 1109.26 1805.49 1216.63 1696.71C1323.99 1587.92 1386.43 1649.49 1493.82 1540.68C1601.22 1431.87 1538.8 1370.27 1646.19 1261.45C1753.59 1152.64 1816 1214.24 1923.42 1105.4C2030.85 996.553 1968.4 934.985 2075.79 826.172M-590.471 739.272C-483.079 630.459 -420.664 692.06 -313.272 583.247C-205.88 474.434 -268.295 412.834 -160.934 304.052C-53.573 195.271 8.8729 256.84 116.265 148.027C223.657 39.214 161.242 -22.3861 268.634 -131.199C376.026 -240.012 438.441 -178.412 545.864 -287.256C653.287 -396.1 590.841 -457.669 698.233 -566.481M189.6 1506.72C296.993 1397.91 359.408 1459.51 466.8 1350.7C574.192 1241.88 511.777 1180.28 619.138 1071.5C726.499 962.721 788.945 1024.29 896.337 915.477C1003.73 806.664 941.314 745.064 1048.71 636.251C1156.1 527.438 1218.51 589.038 1325.94 480.194C1433.36 371.35 1370.91 309.781 1478.31 200.969M-206.306 1116.5C-98.9143 1007.69 -36.4993 1069.29 70.8928 960.478C178.285 851.665 115.87 790.065 223.231 681.283C330.592 572.501 393.038 634.07 500.43 525.257C607.822 416.445 545.407 354.845 652.799 246.032C760.191 137.219 822.606 198.819 930.029 89.9749C1037.45 -18.8692 975.006 -80.438 1082.4 -189.251M572.213 1895.46C679.606 1786.65 742.021 1848.25 849.413 1739.44C956.805 1630.63 894.39 1569.03 1001.75 1460.24C1109.11 1351.46 1171.56 1413.03 1278.95 1304.22C1386.34 1195.41 1323.93 1133.81 1431.32 1024.99C1538.71 916.181 1601.13 977.781 1708.55 868.937C1815.97 760.093 1753.53 698.524 1860.92 589.711M-401.691 940.161C-294.299 831.348 -231.884 892.948 -124.492 784.135C-17.0995 675.322 -79.5145 613.722 27.8467 504.941C135.208 396.159 197.654 457.728 305.046 348.915C412.438 240.102 350.023 178.502 457.415 69.6896C564.807 -39.1232 627.222 22.4768 734.645 -86.3673C842.068 -195.211 779.622 -256.78 887.014 -365.593M376.829 1706.32C484.221 1597.5 546.636 1659.1 654.028 1550.29C761.42 1441.48 699.005 1379.88 806.366 1271.1C913.727 1162.32 976.173 1223.88 1083.57 1115.07C1190.96 1006.26 1128.54 944.659 1235.93 835.846C1343.33 727.033 1405.74 788.634 1513.16 679.789C1620.59 570.945 1558.14 509.376 1665.53 400.564M-17.5256 1317.39C89.8665 1208.58 152.281 1270.18 259.674 1161.37C367.066 1052.55 304.651 990.953 412.012 882.172C519.373 773.39 581.819 834.959 689.211 726.146C796.603 617.333 734.188 555.733 841.58 446.92C948.972 338.108 1011.39 399.708 1118.81 290.863C1226.23 182.019 1163.79 120.451 1271.18 11.6377M760.994 2096.35C868.386 1987.54 930.801 2049.14 1038.19 1940.33C1145.58 1831.52 1083.17 1769.92 1190.53 1661.13C1297.89 1552.35 1360.34 1613.92 1467.73 1505.11C1575.12 1396.3 1512.71 1334.7 1620.1 1225.88C1727.49 1117.07 1789.91 1178.67 1897.33 1069.83C2004.75 960.981 1942.31 899.413 2049.7 790.6M-663.793 673.554C-556.401 564.741 -493.986 626.341 -386.594 517.528C-279.202 408.716 -341.617 347.115 -234.255 238.334C-126.894 129.552 -64.4483 191.121 42.9437 82.3085C150.336 -26.5044 87.9207 -88.1044 195.313 -196.917C302.705 -305.73 365.12 -244.13 472.543 -352.974C579.966 -461.818 517.52 -523.387 624.912 -632.2M116.279 1441C223.671 1332.19 286.086 1393.79 393.478 1284.98C500.87 1176.17 438.455 1114.57 545.816 1005.78C653.177 897.002 715.623 958.571 823.015 849.758C930.407 740.946 867.992 679.346 975.384 570.533C1082.78 461.72 1145.19 523.32 1252.61 414.476C1360.04 305.632 1297.59 244.063 1404.98 135.25M-279.628 1063.59C-172.236 954.777 -109.821 1016.38 -2.42851 907.564C104.964 798.751 42.5485 737.151 149.91 628.37C257.271 519.588 319.717 581.157 427.109 472.344C534.501 363.531 472.086 301.931 579.478 193.119C686.87 84.3059 749.285 145.906 856.708 37.0618C964.131 -71.7824 901.685 -133.351 1009.08 -242.164M498.892 1829.75C606.284 1720.93 668.699 1782.53 776.091 1673.72C883.483 1564.91 821.068 1503.31 928.429 1394.53C1035.79 1285.74 1098.24 1347.31 1205.63 1238.5C1313.02 1129.69 1250.61 1068.09 1358 959.275C1465.39 850.462 1527.8 912.062 1635.23 803.218C1742.65 694.374 1680.2 632.805 1787.6 523.993M-475.012 874.442C-367.62 765.63 -305.205 827.23 -197.813 718.417C-90.4213 609.604 -152.836 548.004 -45.4752 439.223C61.886 330.441 124.332 392.01 231.724 283.197C339.116 174.384 276.701 112.784 384.093 3.97136C491.485 -104.841 553.9 -43.2414 661.323 -152.086C768.746 -260.93 706.3 -322.498 813.692 -431.311M305.059 1641.89C412.452 1533.08 474.867 1594.68 582.259 1485.87C689.651 1377.05 627.236 1315.45 734.597 1206.67C841.958 1097.89 904.404 1159.46 1011.8 1050.65C1119.19 941.834 1056.77 880.234 1164.16 771.422C1271.56 662.609 1333.97 724.209 1441.4 615.365C1548.82 506.521 1486.37 444.952 1593.76 336.139M-90.8474 1251.67C16.5447 1142.86 78.9596 1204.46 186.352 1095.65C293.744 986.835 231.329 925.235 338.69 816.453C446.051 707.672 508.497 769.241 615.889 660.428C723.281 551.615 660.866 490.015 768.258 381.202C875.65 272.39 938.065 333.99 1045.49 225.145C1152.91 116.301 1090.47 54.7325 1197.86 -54.0803M687.671 2030.64C795.063 1921.82 857.479 1983.42 964.871 1874.61C1072.26 1765.8 1009.85 1704.2 1117.21 1595.42C1224.57 1486.63 1287.02 1548.2 1394.41 1439.39C1501.8 1330.58 1439.38 1268.98 1546.78 1160.16C1654.17 1051.35 1716.58 1112.95 1824.01 1004.11C1931.43 895.263 1868.98 833.694 1976.38 724.881M-533.169 805.645C-425.777 696.832 -363.362 758.432 -255.97 649.62C-148.578 540.807 -210.993 479.207 -103.632 370.425C3.72955 261.644 66.1755 323.212 173.568 214.4C280.96 105.587 218.545 43.9868 325.937 -64.8261C433.329 -173.639 495.744 -112.039 603.167 -220.883C710.59 -329.727 648.144 -391.296 755.536 -500.109M246.903 1573.1C354.295 1464.28 416.71 1525.88 524.102 1417.07C631.494 1308.26 569.079 1246.66 676.44 1137.88C783.801 1029.09 846.247 1090.66 953.639 981.85C1061.03 873.037 998.616 811.437 1106.01 702.624C1213.4 593.811 1275.82 655.411 1383.24 546.567C1490.66 437.723 1428.22 376.154 1535.61 267.342M-149.004 1182.88C-41.6122 1074.06 20.8027 1135.66 128.195 1026.85C235.587 918.038 173.172 856.438 280.533 747.656C387.894 638.874 450.34 700.443 557.732 591.63C665.124 482.818 602.709 421.218 710.101 312.405C817.493 203.592 879.908 265.192 987.331 156.348C1094.75 47.5038 1032.31 -14.065 1139.7 -122.878M629.515 1961.84C736.908 1853.02 799.323 1914.62 906.715 1805.81C1014.11 1697 951.692 1635.4 1059.05 1526.62C1166.41 1417.84 1228.86 1479.4 1336.25 1370.59C1443.64 1261.78 1381.23 1200.18 1488.62 1091.37C1596.01 982.553 1658.43 1044.15 1765.85 935.309C1873.27 826.465 1810.83 764.896 1918.22 656.084M-344.389 1006.53C-236.997 897.721 -174.582 959.321 -67.1895 850.508C40.2026 741.695 -22.2124 680.095 85.1487 571.314C192.51 462.532 254.956 524.101 362.348 415.288C469.74 306.475 407.325 244.875 514.717 136.063C622.109 27.2498 684.524 88.8498 791.947 -19.9943C899.37 -128.838 836.924 -190.407 944.316 -299.22M434.13 1772.69C541.522 1663.88 603.937 1725.48 711.329 1616.66C818.721 1507.85 756.306 1446.25 863.667 1337.47C971.029 1228.69 1033.47 1290.26 1140.87 1181.44C1248.26 1072.63 1185.84 1011.03 1293.24 902.219C1400.63 793.406 1463.04 855.006 1570.47 746.162C1677.89 637.318 1615.44 575.749 1722.83 466.936M39.7765 1383.76C147.169 1274.95 209.583 1336.55 316.976 1227.74C424.368 1118.93 361.953 1057.33 469.314 948.545C576.675 839.763 639.121 901.332 746.513 792.519C853.905 683.706 791.49 622.106 898.882 513.293C1006.27 404.481 1068.69 466.081 1176.11 357.236C1283.53 248.392 1221.09 186.824 1328.48 78.0107M818.295 2162.73C925.687 2053.91 988.102 2115.51 1095.49 2006.7C1202.89 1897.89 1140.47 1836.29 1247.83 1727.51C1355.19 1618.72 1417.64 1680.29 1525.03 1571.48C1632.42 1462.67 1570.01 1401.07 1677.4 1292.25C1784.79 1183.44 1847.21 1245.04 1954.63 1136.2C2062.05 1027.35 1999.61 965.785 2107 856.972M-122.055 1220.87C-14.6626 1112.06 47.7524 1173.66 155.144 1064.85C262.536 956.035 200.121 894.435 307.483 785.653C414.844 676.872 477.29 738.44 584.682 629.628C692.074 520.815 629.659 459.215 737.051 350.402C844.443 241.589 906.858 303.189 1014.28 194.345C1121.7 85.5009 1059.26 23.9321 1166.65 -84.8807M-695 642.754C-587.608 533.941 -525.193 595.541 -417.801 486.728C-310.409 377.915 -372.824 316.315 -265.463 207.534C-158.102 98.7523 -95.6557 160.321 11.7364 51.5083C119.128 -57.3045 56.7133 -118.905 164.105 -227.717C271.497 -336.53 333.913 -274.93 441.335 -383.774C548.758 -492.618 486.312 -554.187 593.705 -663M85.0714 1410.2C192.463 1301.39 254.879 1362.99 362.271 1254.18C469.663 1145.37 407.248 1083.77 514.609 974.984C621.97 866.202 684.416 927.771 791.808 818.958C899.2 710.145 836.785 648.545 944.177 539.733C1051.57 430.92 1113.98 492.52 1221.41 383.676C1328.83 274.832 1266.38 213.263 1373.78 104.45M-310.835 1032.79C-203.443 923.977 -141.028 985.577 -33.6358 876.764C73.7562 767.951 11.3412 706.351 118.702 597.569C226.064 488.788 288.509 550.357 395.901 441.544C503.294 332.731 440.878 271.131 548.27 162.318C655.663 53.5055 718.078 115.106 825.5 6.26139C932.923 -102.583 870.478 -164.152 977.87 -272.964M467.684 1798.95C575.076 1690.13 637.491 1751.73 744.883 1642.92C852.276 1534.11 789.861 1472.51 897.222 1363.73C1004.58 1254.94 1067.03 1316.51 1174.42 1207.7C1281.81 1098.89 1219.4 1037.29 1326.79 928.475C1434.18 819.662 1496.6 881.262 1604.02 772.418C1711.44 663.574 1649 602.005 1756.39 493.193M-506.22 843.642C-398.828 734.829 -336.413 796.43 -229.021 687.617C-121.629 578.804 -184.044 517.204 -76.6824 408.422C30.6787 299.641 93.1246 361.21 200.517 252.397C307.909 143.584 245.494 81.9839 352.886 -26.8289C460.278 -135.642 522.693 -74.0417 630.116 -182.886C737.539 -291.73 675.093 -353.299 782.485 -462.112M273.851 1611.09C381.243 1502.28 443.658 1563.88 551.05 1455.07C658.442 1346.25 596.027 1284.65 703.388 1175.87C810.75 1067.09 873.196 1128.66 980.588 1019.85C1087.98 911.034 1025.56 849.434 1132.96 740.621C1240.35 631.808 1302.76 693.408 1410.19 584.564C1517.61 475.72 1455.16 414.151 1562.56 305.339M-621.679 708.472C-514.287 599.659 -451.872 661.259 -344.48 552.446C-237.088 443.633 -299.503 382.033 -192.141 273.252C-84.7803 164.47 -22.3344 226.039 85.0577 117.226C192.45 8.41349 130.035 -53.1865 237.427 -161.999C344.819 -270.812 407.234 -209.212 514.657 -318.056C622.08 -426.9 559.634 -488.469 667.026 -597.282M158.393 1475.92C265.785 1367.11 328.2 1428.71 435.592 1319.9C542.984 1211.08 480.569 1149.48 587.93 1040.7C695.292 931.92 757.738 993.489 865.13 884.676C972.522 775.863 910.107 714.263 1017.5 605.451C1124.89 496.638 1187.31 558.238 1294.73 449.394C1402.15 340.55 1339.71 278.981 1447.1 170.168M-237.514 1085.7C-130.122 976.89 -67.7066 1038.49 39.6855 929.677C147.078 820.864 84.6624 759.264 192.024 650.483C299.385 541.701 361.831 603.27 469.223 494.457C576.615 385.644 514.2 324.044 621.592 215.231C728.984 106.419 791.399 168.019 898.822 59.1746C1006.24 -49.6696 943.799 -111.238 1051.19 -220.051M541.006 1864.66C648.398 1755.85 710.813 1817.45 818.205 1708.64C925.597 1599.83 863.182 1538.23 970.543 1429.44C1077.9 1320.66 1140.35 1382.23 1247.74 1273.42C1355.13 1164.61 1292.72 1103.01 1400.11 994.193C1507.5 885.38 1569.92 946.98 1677.34 838.136C1784.76 729.292 1722.32 667.723 1829.71 558.911M-432.898 909.361C-325.506 800.548 -263.091 862.148 -155.699 753.335C-48.3073 644.522 -110.722 582.922 -3.36119 474.141C104 365.359 166.446 426.928 273.838 318.115C381.23 209.302 318.815 147.702 426.207 38.8894C533.599 -69.9234 596.014 -8.32338 703.437 -117.168C810.86 -226.012 748.414 -287.58 855.806 -396.393M345.621 1675.52C453.013 1566.7 515.428 1628.3 622.821 1519.49C730.213 1410.68 667.798 1349.08 775.159 1240.3C882.52 1131.52 944.966 1193.08 1052.36 1084.27C1159.75 975.459 1097.33 913.859 1204.73 805.046C1312.12 696.233 1374.53 757.833 1481.96 648.989C1589.38 540.145 1526.93 478.576 1634.33 369.763M-48.7334 1286.59C58.6586 1177.78 121.074 1239.38 228.466 1130.57C335.858 1021.75 273.443 960.153 380.804 851.371C488.165 742.59 550.611 804.159 658.003 695.346C765.395 586.533 702.98 524.933 810.372 416.12C917.764 307.307 980.179 368.907 1087.6 260.063C1195.02 151.219 1132.58 89.6504 1239.97 -19.1625M729.786 2065.55C837.178 1956.74 899.593 2018.34 1006.99 1909.53C1114.38 1800.71 1051.96 1739.11 1159.32 1630.33C1266.68 1521.55 1329.13 1583.12 1436.52 1474.31C1543.91 1365.49 1481.5 1303.89 1588.89 1195.08C1696.28 1086.27 1758.7 1147.87 1866.12 1039.02C1973.54 930.18 1911.1 868.612 2018.49 759.799" stroke="#F5F5F5" stroke-width="1.94013" stroke-miterlimit="10"/>
</svg>
