<svg width="1412" height="804" viewBox="0 0 1412 804" fill="none" xmlns="http://www.w3.org/2000/svg">
<path opacity="0.05" d="M688.455 1497.38C778.523 1406.12 830.87 1457.78 920.938 1366.52C1011.01 1275.25 958.66 1223.59 1048.7 1132.35C1138.74 1041.11 1191.12 1092.75 1281.19 1001.49C1371.25 910.225 1318.91 858.559 1408.98 767.296C1499.04 676.032 1551.39 727.697 1641.48 636.407C1731.58 545.117 1679.21 493.478 1769.27 402.214M-335.448 469.953C-245.38 378.689 -193.033 430.354 -102.965 339.091C-12.8965 247.827 -65.2431 196.161 24.7992 104.924C114.842 13.6865 167.214 65.3256 257.282 -25.9381C347.351 -117.202 295.004 -168.867 385.072 -260.131C475.141 -351.395 527.487 -299.729 617.581 -391.019C707.676 -482.309 655.303 -533.949 745.371 -625.212M318.787 1113.63C408.855 1022.37 461.202 1074.03 551.27 982.768C641.339 891.505 588.992 839.839 679.034 748.602C769.077 657.364 821.449 709.003 911.518 617.74C1001.59 526.476 949.239 474.811 1039.31 383.547C1129.38 292.283 1181.72 343.948 1271.82 252.658C1361.91 161.368 1309.54 109.729 1399.61 18.4654M-13.2538 786.345C76.8144 695.081 129.161 746.746 219.229 655.483C309.298 564.219 256.951 512.553 346.993 421.316C437.036 330.078 489.408 381.718 579.477 290.454C669.545 199.19 617.198 147.525 707.266 56.261C797.335 -35.0028 849.681 16.6626 939.775 -74.6274C1029.87 -165.917 977.497 -217.557 1067.57 -308.82M639.679 1439.68C729.748 1348.41 782.094 1400.08 872.163 1308.82C962.231 1217.55 909.884 1165.89 999.927 1074.65C1089.97 983.411 1142.34 1035.05 1232.41 943.786C1322.48 852.523 1270.13 800.857 1360.2 709.593C1450.27 618.33 1502.61 669.995 1592.71 578.705C1682.8 487.415 1630.43 435.776 1720.5 344.512M-177.12 638.442C-87.0518 547.179 -34.7051 598.844 55.3632 507.58C145.431 416.317 93.0848 364.651 183.127 273.414C273.169 182.176 325.542 233.815 415.61 142.552C505.679 51.2878 453.332 -0.377469 543.4 -91.6412C633.468 -182.905 685.815 -131.24 775.909 -222.53C866.003 -313.82 813.631 -365.459 903.699 -456.723M475.813 1281.04C565.882 1189.77 618.228 1241.44 708.297 1150.17C798.365 1058.91 746.018 1007.24 836.06 916.007C926.103 824.769 978.475 876.408 1068.54 785.145C1158.61 693.881 1106.27 642.215 1196.33 550.952C1286.4 459.688 1338.75 511.353 1428.84 420.063C1518.94 328.773 1466.56 277.134 1556.63 185.87M145.074 954.834C235.142 863.571 287.489 915.236 377.557 823.972C467.625 732.709 415.279 681.043 505.321 589.806C595.363 498.568 647.736 550.207 737.804 458.944C827.872 367.68 775.526 316.014 865.594 224.751C955.662 133.487 1008.01 185.152 1098.1 93.8623C1188.2 2.57228 1135.82 -49.0669 1225.89 -140.331M798.007 1608.17C888.076 1516.9 940.422 1568.57 1030.49 1477.31C1120.56 1386.04 1068.21 1334.38 1158.25 1243.14C1248.3 1151.9 1300.67 1203.54 1390.74 1112.28C1480.81 1021.01 1428.46 969.347 1518.53 878.083C1608.6 786.82 1660.94 838.485 1751.04 747.195C1841.13 655.905 1788.76 604.266 1878.83 513.002M-357.333 440.117C-267.265 348.854 -214.918 400.519 -124.85 309.255C-34.7818 217.991 -87.1285 166.326 2.9139 75.0885C92.9563 -16.149 145.329 35.4901 235.397 -55.7736C325.465 -147.037 273.119 -198.703 363.187 -289.966C453.255 -381.23 505.602 -329.565 595.696 -420.855C685.79 -512.145 633.418 -563.784 723.486 -655.048M296.903 1083.79C386.971 992.531 439.318 1044.2 529.386 952.933C619.454 861.669 567.107 810.004 657.15 718.766C747.192 627.529 799.565 679.168 889.633 587.904C979.701 496.64 927.355 444.975 1017.42 353.711C1107.49 262.447 1159.84 314.113 1249.93 222.823C1340.03 131.533 1287.65 79.8936 1377.72 -11.3701M-35.1391 756.509C54.9291 665.245 107.276 716.911 197.344 625.647C287.412 534.383 235.066 482.718 325.108 391.48C415.15 300.243 467.523 351.882 557.591 260.618C647.66 169.355 595.313 117.689 685.381 26.4254C775.449 -64.8383 827.796 -13.173 917.89 -104.463C1007.98 -195.753 955.612 -247.392 1045.68 -338.656M617.795 1409.84C707.863 1318.58 760.21 1370.24 850.278 1278.98C940.347 1187.72 888 1136.05 978.042 1044.81C1068.08 953.576 1120.46 1005.21 1210.53 913.951C1300.59 822.687 1248.25 771.022 1338.32 679.758C1428.38 588.494 1480.73 640.16 1570.82 548.87C1660.92 457.58 1608.55 405.941 1698.61 314.677M-199.005 608.607C-108.937 517.343 -56.5904 569.009 33.4778 477.745C123.546 386.481 71.1995 334.816 161.242 243.578C251.284 152.341 303.657 203.98 393.725 112.716C483.793 21.4523 431.447 -30.213 521.515 -121.477C611.583 -212.741 663.93 -161.075 754.024 -252.365C844.118 -343.655 791.746 -395.294 881.814 -486.558M453.928 1251.2C543.997 1159.94 596.343 1211.6 686.412 1120.34C776.48 1029.07 724.133 977.409 814.176 886.171C904.218 794.934 956.591 846.573 1046.66 755.309C1136.73 664.045 1084.38 612.38 1174.45 521.116C1264.52 429.852 1316.86 481.518 1406.96 390.228C1497.05 298.938 1444.68 247.299 1534.75 156.035M123.189 924.999C213.257 833.735 265.604 885.401 355.672 794.137C445.74 702.873 393.394 651.208 483.436 559.97C573.478 468.733 625.851 520.372 715.919 429.108C805.987 337.844 753.641 286.179 843.709 194.915C933.777 103.651 986.124 155.317 1076.22 64.0267C1166.31 -27.2633 1113.94 -78.9024 1204.01 -170.166M776.122 1578.33C866.191 1487.07 918.537 1538.73 1008.61 1447.47C1098.67 1356.21 1046.33 1304.54 1136.37 1213.3C1226.41 1122.07 1278.78 1173.7 1368.85 1082.44C1458.92 991.177 1406.57 939.512 1496.64 848.248C1586.71 756.984 1639.06 808.65 1729.15 717.36C1819.25 626.07 1766.87 574.431 1856.94 483.167M-418.827 384.998C-328.759 293.734 -276.412 345.4 -186.344 254.136C-96.2754 162.872 -148.622 111.207 -58.5797 19.9691C31.4627 -71.2684 83.8353 -19.6293 173.904 -110.893C263.972 -202.157 211.625 -253.822 301.693 -345.086C391.762 -436.35 444.108 -384.684 534.203 -475.974C624.297 -567.264 571.924 -618.903 661.992 -710.167M235.409 1028.68C325.477 937.412 377.824 989.077 467.892 897.813C557.96 806.55 505.613 754.884 595.656 663.647C685.698 572.409 738.071 624.048 828.139 532.785C918.207 441.521 865.861 389.855 955.929 298.592C1046 207.328 1098.34 258.993 1188.44 167.703C1278.53 76.4133 1226.16 24.7741 1316.23 -66.4896M-96.6327 712.13C-6.56445 620.866 45.7822 672.531 135.85 581.268C225.919 490.004 173.572 438.338 263.614 347.101C353.657 255.863 406.029 307.503 496.098 216.239C586.166 124.975 533.819 73.3097 623.887 -17.954C713.956 -109.218 766.302 -57.5524 856.397 -148.842C946.491 -240.132 894.118 -291.772 984.187 -383.035M556.301 1354.72C646.369 1263.46 698.716 1315.12 788.784 1223.86C878.852 1132.6 826.506 1080.93 916.548 989.694C1006.59 898.456 1058.96 950.095 1149.03 858.832C1239.1 767.568 1186.75 715.902 1276.82 624.639C1366.89 533.375 1419.24 585.04 1509.33 493.75C1599.42 402.46 1547.05 350.821 1637.12 259.557M-260.499 553.488C-170.431 462.224 -118.084 513.889 -28.0162 422.625C62.0521 331.362 9.70546 279.696 99.7478 188.459C189.79 97.2213 242.163 148.86 332.231 57.5967C422.299 -33.6671 369.953 -85.3324 460.021 -176.596C550.089 -267.86 602.436 -216.195 692.53 -307.485C782.624 -398.775 730.252 -450.414 820.32 -541.677M393.737 1197.17C483.805 1105.9 536.151 1157.57 626.22 1066.3C716.288 975.04 663.941 923.374 753.984 832.137C844.026 740.899 896.399 792.538 986.467 701.275C1076.54 610.011 1024.19 558.345 1114.26 467.082C1204.33 375.818 1256.67 427.483 1346.77 336.193C1436.86 244.903 1384.49 193.264 1474.56 102M61.6947 869.88C151.763 778.616 204.11 830.281 294.178 739.018C384.246 647.754 331.9 596.088 421.942 504.851C511.984 413.613 564.357 465.253 654.425 373.989C744.493 282.725 692.147 231.06 782.215 139.796C872.283 48.5322 924.63 100.198 1014.72 8.90756C1104.82 -82.3825 1052.45 -134.022 1142.51 -225.285M714.628 1523.21C804.696 1431.95 857.043 1483.61 947.111 1392.35C1037.18 1301.09 984.833 1249.42 1074.88 1158.18C1164.92 1066.95 1217.29 1118.59 1307.36 1027.32C1397.43 936.058 1345.08 884.392 1435.15 793.129C1525.22 701.865 1577.56 753.53 1667.66 662.24C1757.75 570.95 1705.38 519.311 1795.45 428.047M-309.274 495.786C-219.206 404.522 -166.859 456.187 -76.7912 364.924C13.2771 273.66 -39.0696 221.994 50.9728 130.757C141.015 39.5194 193.388 91.1585 283.456 -0.105237C373.524 -91.369 321.178 -143.034 411.246 -234.298C501.314 -325.562 553.661 -273.896 643.755 -365.186C733.849 -456.477 681.477 -508.116 771.545 -599.379M344.961 1139.46C435.029 1048.2 487.376 1099.87 577.444 1008.6C667.513 917.338 615.166 865.672 705.208 774.435C795.251 683.197 847.623 734.836 937.691 643.573C1027.76 552.309 975.413 500.643 1065.48 409.38C1155.55 318.116 1207.9 369.781 1297.99 278.491C1388.08 187.201 1335.71 135.562 1425.78 44.2984M12.9193 812.178C102.988 720.914 155.334 772.579 245.402 681.316C335.471 590.052 283.124 538.386 373.166 447.149C463.209 355.911 515.581 407.551 605.65 316.287C695.718 225.023 643.371 173.358 733.44 82.094C823.508 -9.16979 875.855 42.4956 965.949 -48.7945C1056.04 -140.084 1003.67 -191.724 1093.74 -282.987M665.853 1465.51C755.922 1374.25 808.268 1425.91 898.337 1334.65C988.405 1243.38 936.058 1191.72 1026.1 1100.48C1116.14 1009.24 1168.52 1060.88 1258.58 969.619C1348.65 878.356 1296.31 826.69 1386.37 735.426C1476.44 644.163 1528.79 695.828 1618.88 604.538C1708.98 513.248 1656.6 461.609 1746.67 370.345M-150.947 664.275C-60.8786 573.012 -8.53196 624.677 81.5363 533.413C171.605 442.15 119.258 390.484 209.3 299.247C299.343 208.009 351.715 259.648 441.783 168.385C531.852 77.1208 479.505 25.4555 569.573 -65.8083C659.642 -157.072 711.988 -105.407 802.083 -196.697C892.177 -287.987 839.804 -339.626 929.872 -430.89M501.986 1306.87C592.055 1215.6 644.401 1267.27 734.47 1176.01C824.538 1084.74 772.191 1033.08 862.234 941.839C952.276 850.602 1004.65 902.241 1094.72 810.977C1184.79 719.714 1132.44 668.048 1222.51 576.784C1312.57 485.521 1364.92 537.186 1455.02 445.896C1545.11 354.606 1492.74 302.967 1582.81 211.703M171.247 980.667C261.316 889.404 313.662 941.069 403.73 849.805C493.799 758.542 441.452 706.876 531.494 615.639C621.537 524.401 673.909 576.04 763.978 484.777C854.046 393.513 801.699 341.847 891.767 250.584C981.836 159.32 1034.18 210.985 1124.28 119.695C1214.37 28.4053 1162 -23.2339 1252.07 -114.498M824.181 1634C914.249 1542.74 966.596 1594.4 1056.66 1503.14C1146.73 1411.87 1094.39 1360.21 1184.43 1268.97C1274.47 1177.73 1326.84 1229.37 1416.91 1138.11C1506.98 1046.85 1454.63 995.18 1544.7 903.916C1634.77 812.652 1687.12 864.318 1777.21 773.028C1867.3 681.738 1814.93 630.099 1905 538.835M35.5216 844.047C125.59 752.783 177.936 804.448 268.005 713.185C358.073 621.921 305.726 570.255 395.769 479.018C485.811 387.78 538.184 439.42 628.252 348.156C718.32 256.892 665.974 205.227 756.042 113.963C846.11 22.6993 898.457 74.3646 988.551 -16.9254C1078.65 -108.215 1026.27 -159.855 1116.34 -251.118M-445 359.165C-354.932 267.901 -302.585 319.567 -212.517 228.303C-122.449 137.039 -174.795 85.3738 -84.7528 -5.86374C5.28954 -97.1012 57.6621 -45.4621 147.73 -136.726C237.799 -227.99 185.452 -279.655 275.52 -370.919C365.588 -462.182 417.935 -410.517 508.029 -501.807C598.124 -593.097 545.751 -644.736 635.819 -736M209.236 1002.84C299.304 911.579 351.65 963.244 441.719 871.981C531.787 780.717 479.44 729.051 569.483 637.814C659.525 546.576 711.898 598.215 801.966 506.952C892.034 415.688 839.688 364.023 929.756 272.759C1019.82 181.495 1072.17 233.16 1162.26 141.87C1252.36 50.5805 1199.99 -1.05868 1290.05 -92.3224M-122.806 686.297C-32.7376 595.033 19.609 646.698 109.677 555.435C199.746 464.171 147.399 412.505 237.441 321.268C327.484 230.03 379.856 281.67 469.925 190.406C559.993 99.1421 507.646 47.4768 597.714 -43.787C687.783 -135.051 740.129 -83.3854 830.223 -174.675C920.318 -265.965 867.945 -317.605 958.013 -408.868M530.128 1328.89C620.196 1237.63 672.543 1289.29 762.611 1198.03C852.679 1106.76 800.333 1055.1 890.375 963.861C980.417 872.623 1032.79 924.263 1122.86 832.999C1212.93 741.735 1160.58 690.07 1250.65 598.806C1340.72 507.542 1393.06 559.208 1483.16 467.918C1573.25 376.628 1520.88 324.988 1610.95 233.725M-286.673 527.655C-196.604 436.391 -144.258 488.056 -54.1893 396.793C35.879 305.529 -16.4677 253.863 73.5747 162.626C163.617 71.3884 215.99 123.028 306.058 31.7638C396.126 -59.4999 343.779 -111.165 433.848 -202.429C523.916 -293.693 576.263 -242.027 666.357 -333.317C756.451 -424.607 704.078 -476.247 794.147 -567.51M367.563 1171.33C457.631 1080.07 509.977 1131.73 600.046 1040.47C690.114 949.207 637.767 897.541 727.81 806.304C817.852 715.066 870.225 766.705 960.293 675.442C1050.36 584.178 998.014 532.512 1088.08 441.249C1178.15 349.985 1230.5 401.65 1320.59 310.36C1410.69 219.07 1358.31 167.431 1448.38 76.1673M-383.506 414.284C-293.438 323.02 -241.091 374.686 -151.023 283.422C-60.9549 192.158 -113.302 140.493 -23.2592 49.2555C66.7831 -41.982 119.156 9.6571 209.224 -81.6067C299.292 -172.87 246.946 -224.536 337.014 -315.799C427.082 -407.063 479.429 -355.398 569.523 -446.688C659.617 -537.978 607.245 -589.617 697.313 -680.881M270.729 1057.96C360.798 966.698 413.144 1018.36 503.213 927.1C593.281 835.836 540.934 784.171 630.977 692.933C721.019 601.696 773.392 653.335 863.46 562.071C953.528 470.807 901.182 419.142 991.25 327.878C1081.32 236.614 1133.66 288.28 1223.76 196.99C1313.85 105.7 1261.48 54.0605 1351.55 -37.2032M-61.3123 730.676C28.756 639.412 81.1026 691.078 171.171 599.814C261.239 508.55 208.892 456.885 298.935 365.647C388.977 274.41 441.35 326.049 531.418 234.785C621.486 143.522 569.14 91.8562 659.208 0.592465C749.276 -90.6713 801.623 -39.0059 891.717 -130.296C981.811 -221.586 929.439 -273.225 1019.51 -364.489M591.621 1384.01C681.69 1292.75 734.036 1344.41 824.105 1253.15C914.173 1161.88 861.826 1110.22 951.869 1018.98C1041.91 927.743 1094.28 979.382 1184.35 888.118C1274.42 796.854 1222.07 745.189 1312.14 653.925C1402.21 562.661 1454.56 614.327 1544.65 523.037C1634.75 431.747 1582.37 380.108 1672.44 288.844M-225.179 582.774C-135.111 491.51 -82.764 543.176 7.30425 451.912C97.3725 360.648 45.0259 308.983 135.068 217.745C225.111 126.508 277.483 178.147 367.551 86.8832C457.62 -4.38052 405.273 -56.0458 495.341 -147.31C585.41 -238.573 637.756 -186.908 727.85 -278.198C817.945 -369.488 765.572 -421.127 855.64 -512.391M427.755 1225.37C517.824 1134.1 570.17 1185.77 660.238 1094.5C750.307 1003.24 697.96 951.575 788.002 860.338C878.045 769.1 930.417 820.74 1020.49 729.476C1110.55 638.212 1058.21 586.547 1148.28 495.283C1238.34 404.019 1290.69 455.685 1380.78 364.395C1470.88 273.105 1418.51 221.465 1508.57 130.202M97.0152 899.166C187.083 807.902 239.43 859.568 329.498 768.304C419.567 677.04 367.22 625.375 457.262 534.137C547.305 442.9 599.677 494.539 689.746 403.275C779.814 312.011 727.467 260.346 817.535 169.082C907.604 77.8186 959.95 129.484 1050.04 38.1939C1140.14 -53.0961 1087.77 -104.735 1177.83 -195.999M749.949 1552.5C840.018 1461.23 892.364 1512.9 982.433 1421.64C1072.5 1330.37 1020.15 1278.71 1110.2 1187.47C1200.24 1096.23 1252.61 1147.87 1342.68 1056.61C1432.75 965.344 1380.4 913.678 1470.47 822.415C1560.54 731.151 1612.88 782.816 1702.98 691.526C1793.07 600.236 1740.7 548.597 1830.77 457.333" stroke="#F5F5F5" stroke-width="1.94013" stroke-miterlimit="10"/>
</svg>
