<svg width="50" height="51" viewBox="0 0 50 51" fill="none" xmlns="http://www.w3.org/2000/svg">
<path d="M0 25.5C0 39.3071 11.1929 50.5 25 50.5C38.8071 50.5 50 39.3071 50 25.5C50 11.6929 38.8071 0.5 25 0.5C11.1929 0.5 0 11.6929 0 25.5Z" fill="#1877F2"/>
<path d="M37.5 25.5C37.5 18.625 31.875 13 25 13C18.125 13 12.5 18.625 12.5 25.5C12.5 31.75 17.0312 36.9062 22.9688 37.8438V29.0937H19.8437V25.5H22.9688V22.6875C22.9688 19.5625 24.8438 17.8438 27.6563 17.8438C29.0625 17.8438 30.4688 18.1563 30.4688 18.1563V21.2812H28.9062C27.3438 21.2812 26.875 22.2188 26.875 23.1562V25.5H30.3125L29.6875 29.0937H26.7188V38C32.9688 37.0625 37.5 31.75 37.5 25.5Z" fill="white"/>
</svg>
