<svg width="469" height="655" viewBox="0 0 469 655" fill="none" xmlns="http://www.w3.org/2000/svg">
<path d="M59.8854 -196.69C136.692 -71.9332 96.2649 122.978 209.65 168.206C307.733 207.33 429.685 126.76 486.285 337.607C546.81 563.074 707.497 369.983 769 478.802" stroke="#E5E5E5" stroke-width="7.15236" stroke-dasharray="26.66 26.66"/>
<rect x="217.86" y="153.074" width="40.9635" height="35.7618" rx="17.8809" transform="rotate(15.3775 217.86 153.074)" fill="white"/>
<rect x="217.86" y="153.074" width="40.9635" height="35.7618" rx="17.8809" transform="rotate(15.3775 217.86 153.074)" stroke="#FAFAFA" stroke-width="4.5515"/>
<g clip-path="url(#clip0_108_5830)">
<path d="M234.329 172.884C234.424 172.539 234.226 172.181 233.875 172.085C233.53 171.99 233.172 172.188 233.075 172.539L232.73 173.793L231.477 173.448C231.132 173.354 230.774 173.552 230.677 173.903C230.582 174.248 230.781 174.606 231.132 174.702L232.386 175.047L232.041 176.301C231.946 176.646 232.144 177.004 232.495 177.1C232.84 177.195 233.198 176.997 233.295 176.646L233.639 175.392L234.893 175.737C235.238 175.832 235.596 175.633 235.693 175.282C235.788 174.937 235.589 174.58 235.238 174.483L233.984 174.138L234.329 172.884ZM234.564 169.577C237.197 170.301 239.025 172.975 238.166 176.097C237.618 178.091 235.437 180.013 231.628 181.872C231.333 182.014 230.975 181.915 230.794 181.643C228.478 178.099 227.587 175.332 228.135 173.339C228.994 170.216 231.931 168.853 234.564 169.577Z" fill="#EF4444"/>
</g>
<defs>
<clipPath id="clip0_108_5830">
<rect width="15.6051" height="15.6051" fill="white" transform="translate(227.414 166.153) rotate(15.3775)"/>
</clipPath>
</defs>
</svg>
