<svg width="77" height="74" viewBox="0 0 77 74" fill="none" xmlns="http://www.w3.org/2000/svg">
<circle cx="38.5996" cy="37" r="36.5" fill="white" stroke="#E5E5E5"/>
<g clip-path="url(#clip0_108_550)">
<path d="M29.9618 42.8022L29.7547 42.6892L28.9961 45.7237L35.0651 54.0686L38.0996 47.241C34.9088 47.241 32.0283 45.4446 29.9618 42.8022Z" fill="#AAC4D1"/>
<path d="M46.2374 42.8022C44.1709 45.4445 41.2904 47.241 38.0996 47.241L41.1341 54.0686L47.2031 45.7237L46.4445 42.6892L46.2374 42.8022Z" fill="#AAC4D1"/>
<path d="M58.2509 51.554C54.0693 49.3532 50.101 47.6781 46.4445 47.2412H46.0993L41.1342 54.0688L38.0997 47.2412L35.0652 54.0688L30.1001 47.2412H29.7549C26.0984 47.6782 22.13 49.3532 17.9485 51.554C16.812 52.1525 16.0996 53.3344 16.0996 54.6188V57.8619H34.3065L41.8927 57.855L49.479 57.8619H60.0997V54.6188C60.0996 53.3344 59.3872 52.1525 58.2509 51.554Z" fill="#EBF7FD"/>
<path d="M50.9962 25.6678C50.9962 27.8199 49.0526 29.451 46.933 29.077C41.0044 28.0096 35.0264 28.0104 29.2663 29.077C27.1467 29.451 25.2031 27.82 25.2031 25.6678C25.2031 20.4044 29.4696 16.1379 34.733 16.1379H41.4665C46.7297 16.138 50.9962 20.4045 50.9962 25.6678Z" fill="#2872C9"/>
<path d="M36.584 22.2067H39.6185V18.4136H36.584V22.2067Z" fill="#FBD077"/>
<path d="M46.9316 29.0768C48.9412 29.4318 50.7899 27.9828 50.9766 25.9975L46.9316 25.2836C41.003 24.2163 35.025 24.217 29.2649 25.2836L25.2207 25.9975C25.4073 27.9828 27.2553 29.4318 29.2649 29.0768C35.0251 28.0101 41.003 28.0094 46.9316 29.0768Z" fill="#195A9B"/>
<path d="M46.9333 29.0769C41.0047 28.0095 35.0267 28.0103 29.2666 29.0769C28.3335 29.2415 27.4346 29.0169 26.7207 28.5314V33.5861C26.7207 40.2893 31.8156 47.2413 38.1 47.2413C44.3844 47.2413 49.4793 40.2892 49.4793 33.5861V28.5314C48.7655 29.0169 47.8664 29.2415 46.9333 29.0769Z" fill="#FDC794"/>
</g>
<defs>
<clipPath id="clip0_108_550">
<rect width="44" height="44" fill="white" transform="translate(16.0996 15)"/>
</clipPath>
</defs>
</svg>
