<svg width="77" height="74" viewBox="0 0 77 74" fill="none" xmlns="http://www.w3.org/2000/svg">
<circle cx="38.4004" cy="37" r="36.5" fill="white" stroke="#E5E5E5"/>
<g clip-path="url(#clip0_108_565)">
<path d="M59.3705 30.3311C60.5392 31.4999 60.7455 33.2186 59.9205 34.2499L39.5705 57.8999C38.333 59.3436 36.2017 59.3436 34.758 57.9686L17.433 40.6436C16.058 39.2686 16.058 37.0686 17.5017 35.8311L41.083 15.5499C42.1142 14.6561 43.833 14.9311 45.0017 16.0999L59.3705 30.3311Z" fill="#AFCDDB"/>
<path d="M51.3266 22.3562L25.0641 48.2749L18.9453 42.1562L46.3078 17.3374L51.3266 22.3562Z" fill="#333333"/>
<path d="M50.3625 27.5813L31.9375 46.4875L36.8875 51.4375L54.6937 31.9125L50.3625 27.5813Z" fill="white"/>
<path d="M39.8435 44.7687C38.8122 43.8062 39.431 42.0187 39.7747 41.0562C40.3935 39.5437 41.0122 42.4312 41.0122 42.9124C41.1497 44.3562 40.9435 45.8687 40.5997 47.3125C40.3935 48.1375 40.1185 48.8937 39.706 49.65C39.4997 50.1312 39.156 50.5437 38.7435 50.8187C37.7122 51.4374 37.0935 50.8187 36.8872 49.0999C37.0247 48.5499 37.231 48.0687 37.6435 47.6562C38.9497 46.0062 41.0122 45.2499 42.5247 43.9437C42.6622 43.8062 42.456 43.6 42.3185 43.7375C40.531 45.2499 36.8185 46.4874 36.6122 49.4437C36.4747 51.3687 38.4685 51.85 39.4997 50.75C40.8747 49.3062 41.2185 46.7625 41.356 44.8375C41.4247 43.7375 41.6997 40.575 40.0497 40.2312C39.981 40.2312 39.9122 40.2312 39.9122 40.3C39.2247 41.4687 38.331 43.875 39.706 45.1125C39.7747 45.1812 39.981 44.9062 39.8435 44.7687Z" fill="#4F5B60"/>
<path d="M42.1118 43.6686C43.5555 44.4936 43.968 41.2624 43.7618 40.3686C43.7618 40.2311 43.5555 40.2311 43.4868 40.2999C42.7305 40.9186 42.593 42.5686 43.2118 43.5311C43.2805 43.6686 43.418 43.6686 43.4868 43.5311C43.968 42.6374 44.243 41.7436 44.5868 40.7811C44.7243 40.3686 45.068 40.5061 45.343 40.2311L46.993 38.5811C47.6805 37.8936 47.8868 36.9311 48.5055 36.2436C49.3305 35.3499 50.0868 34.9374 50.4993 33.6999C50.568 33.4249 50.568 32.7374 50.0868 32.7374C49.1243 32.6686 48.2993 34.6624 49.6055 34.4561C51.118 34.2499 52.493 32.4624 53.4555 31.4999C53.593 31.3624 53.3868 31.1561 53.2493 31.2936C52.768 31.7749 52.218 32.2561 51.7368 32.6686C51.3243 33.0124 50.9118 33.3561 50.4305 33.6999C50.2243 33.8374 48.4368 34.6624 49.5368 33.3561C49.743 33.4936 49.9493 33.6311 50.1555 33.8374C50.0868 33.9749 50.018 34.1811 49.9493 34.3186C49.8118 34.5936 49.6055 34.8686 49.3993 35.1436C49.0555 35.6249 48.4368 35.8999 48.0243 36.3811C47.4743 36.9999 47.268 37.8249 46.718 38.4436C46.443 38.7186 45.1368 40.4374 44.6555 40.2311C44.5868 40.2311 44.518 40.2311 44.518 40.2999C44.3805 40.7811 44.243 41.1936 44.0368 41.6749C43.968 41.8124 43.3493 43.1186 43.3493 43.1874C43.0743 42.4999 43.143 41.6749 43.418 41.0561C43.6243 41.3999 43.6243 41.8124 43.4868 42.1561C43.3493 42.9811 42.9368 43.4624 42.2493 43.5999C42.043 43.2561 41.9055 43.5311 42.1118 43.6686Z" fill="#4F5B60"/>
</g>
<defs>
<clipPath id="clip0_108_565">
<rect width="44" height="44" fill="white" transform="translate(16.4004 15)"/>
</clipPath>
</defs>
</svg>
