<svg width="76" height="74" viewBox="0 0 76 74" fill="none" xmlns="http://www.w3.org/2000/svg">
<circle cx="38" cy="37" r="36.5" fill="white" stroke="#E5E5E5"/>
<path d="M30.85 53.9125L17.375 55.0125L21.5688 18.4375L34.6313 17.6125L30.85 53.9125Z" fill="#DFE9EF"/>
<path d="M45.8371 57.625L30.8496 53.9125L34.6309 17.6125L44.1184 21.7375L45.8371 57.625Z" fill="#BBC3C7"/>
<path d="M58.6254 52.95L45.8379 57.625L44.1191 21.7375L54.4316 16.375L58.6254 52.95Z" fill="#DFE9EF"/>
<path d="M31.1936 50.8188L20.6748 51.6438L23.9061 20.8438L34.3561 20.2251L31.1936 50.8188Z" fill="#5DF6FF"/>
<path d="M45.6996 54.8751L31.1934 50.8188L34.3559 20.2251L44.2559 24.3501L45.6996 54.8751Z" fill="#00C0CF"/>
<path d="M55.8059 51.0937L45.6996 54.8749L44.2559 24.3499L52.4371 20.4312L55.8059 51.0937Z" fill="#5DF6FF"/>
<g opacity="0.7">
<path d="M30.8512 39.75C30.645 39.8188 30.4387 39.9563 30.3012 40.0938L30.37 40.1625C29.0637 42.5687 31.1262 43.3937 31.1262 43.3937C30.3012 47.5875 32.02 48.9625 32.02 48.9625C31.6075 45.8 34.0825 43.7375 34.0825 43.7375C34.77 40.5062 31.8137 39.8875 30.8512 39.75Z" fill="#F361F5"/>
<path d="M30.025 39.4752C28.7875 38.6502 28.7875 37.3439 28.7875 37.3439C30.85 37.3439 33.1188 34.3189 33.1188 34.3189C31.6063 29.5064 30.9875 33.5627 30.9875 33.5627C28.7875 31.2252 31.6063 30.1252 31.6063 30.1252C29.8875 29.4377 29.1313 27.5127 29.1313 27.5127C29.0625 28.7502 28.5125 28.6814 28.5125 28.6814C24.5938 26.5502 23.9063 29.9877 23.9063 29.9877C24.525 31.8439 23.2188 32.0502 23.2188 32.0502C24.525 32.2564 25.2125 30.6064 25.2125 30.6064C27.8938 31.8439 26.45 36.3814 26.45 36.3814C27.4813 36.9314 27.7563 38.8564 27.7563 38.8564C28.5125 39.0627 29.2 39.4752 29.75 39.8189C29.8188 39.6127 29.8875 39.5439 30.025 39.4752Z" fill="#EDBA53"/>
<path d="M34.1506 26.0688C34.1506 26.0688 32.9818 25.3125 31.0568 26.4813C31.0568 26.4813 30.5756 30.8125 34.1506 26.0688Z" fill="#EEF8FB"/>
<path d="M37.0373 27.0314C35.5248 24.5564 33.0498 27.9251 33.0498 27.9251C33.9436 28.6126 34.0123 29.2314 33.8748 29.7814C33.2561 31.8439 34.0811 32.4626 34.0811 32.4626C34.5623 30.7439 36.2123 30.4689 36.2123 30.4689C36.0061 28.8876 37.0373 27.0314 37.0373 27.0314Z" fill="#5F5CFF"/>
<path d="M41.2316 38.1689C41.0941 38.2377 40.9566 38.2377 40.8191 38.1689C40.4754 37.8252 40.2691 37.4127 40.0629 37.0002C39.9941 36.9314 39.9941 36.8627 39.9941 36.7939C38.8254 36.3814 36.5566 35.9689 36.2129 39.1314C36.2129 39.1314 36.6254 41.2627 38.0691 40.1627C38.0691 40.1627 39.6504 40.4377 39.0316 43.2564C39.0316 43.2564 39.3066 45.4564 40.6816 45.2502C40.6816 45.2502 41.0254 42.0877 42.8129 39.6127C42.7441 39.6814 42.0566 40.3689 41.2316 38.1689Z" fill="#FF7033"/>
<path d="M52.6444 27.4438C52.6444 27.4438 49.2756 28.6125 45.5631 28.2687C45.5631 28.2687 45.9069 27.1688 44.6006 27.0312C44.6006 27.0312 42.8819 29.0938 43.6381 30.2625C43.6381 30.2625 43.2944 32.325 42.8819 29.3C42.8819 29.3 42.1944 31.0875 41.1631 30.675C41.1631 30.675 40.8881 32.4625 40.2694 31.2938C40.2694 31.2938 40.7506 31.5 40.8881 30.95C40.8881 30.95 39.4444 29.5062 38.6194 31.7062C38.6194 31.7062 37.9319 31.9813 38.2069 32.9438C38.2069 32.9438 38.6881 32.1188 38.9631 33.3563C38.9631 33.3563 39.2381 33.15 39.3069 31.5688C39.3069 31.5688 39.9944 31.225 39.4444 32.5312C39.4444 32.5312 40.9569 32.5312 38.6194 33.8375C38.6194 33.8375 38.4819 33.8375 38.4131 33.3563C38.4131 33.3563 38.0694 34.525 37.3131 34.9375C37.3131 34.9375 37.5194 35.4187 36.9694 35.625C36.9694 35.625 36.6944 36.3813 37.3819 36.3813C37.3819 36.3813 38.0006 34.6625 39.1694 36.0375C39.1694 36.0375 39.3756 35.9688 39.0319 35.2812C39.0319 35.2812 39.6506 35.4875 39.8569 36.3813C39.8569 36.3813 40.2006 36.3125 40.2694 35.5562C40.2694 35.5562 40.7506 34.525 41.5069 35.7625C41.5069 35.7625 40.4756 35.4875 40.2006 36.45C40.2006 36.45 40.6819 36.2437 40.9569 36.5187C40.9569 36.5187 40.9569 37 40.6819 37.1375C40.8194 37.3438 40.9569 37.6187 41.1631 37.7562C41.3006 37.8937 41.3006 38.0313 41.2319 38.1688C41.7819 39.0625 42.7444 40.1625 43.5006 38.375C43.5006 38.375 42.5381 38.8563 42.2631 37.4813C42.2631 37.4813 44.6694 37.7562 45.2881 40.1625C45.2881 40.1625 45.9756 39.6812 46.1819 38.1C46.1819 38.1 47.0069 38.1687 47.9694 40.1625C47.9694 40.1625 48.3819 40.0937 48.1756 38.7875C48.1756 38.7875 49.7569 38.1687 48.8631 35.625C48.8631 35.625 50.1694 37.3437 49.7569 35.1437C49.7569 35.1437 51.2006 33.4937 49.4819 32.3937C49.4819 32.3937 49.5506 31.1562 50.5819 31.3625C50.5819 31.3625 51.6131 28.8187 51.1319 31.8438C51.1319 31.8438 51.1319 32.4625 51.8194 33.0812C51.8194 33.0812 52.0944 32.1187 51.6131 31.0187C51.7506 30.8812 52.7819 29.025 52.6444 27.4438Z" fill="#6C732D"/>
<path d="M37.9303 34.1125C38.2053 33.4937 37.3115 32.875 37.3115 32.875C37.449 34.25 37.6553 34.6625 37.9303 34.1125Z" fill="#F361F5"/>
<path d="M36.8301 34.1813C36.8301 34.1813 37.2426 34.1126 37.1738 33.6313C37.1738 33.6313 36.8301 33.6313 36.8301 34.1813Z" fill="#F361F5"/>
<path d="M36.6931 31.3625C36.6931 31.3625 35.5931 31.3625 36.0056 31.9125C36.3494 32.3938 36.6931 31.3625 36.6931 31.3625Z" fill="#F361F5"/>
<path d="M42.2635 44.2188C42.2635 44.2188 42.6072 43.6001 42.6072 42.5688C42.6072 42.5688 41.5072 43.7376 42.2635 44.2188Z" fill="#EDFF54"/>
<path d="M49.2761 40.1626C49.2761 40.1626 48.5198 40.8501 48.6573 41.4688C48.7948 42.0876 49.4823 41.3313 49.2761 40.1626Z" fill="#EEF8FB"/>
<path d="M52.4373 42.3625C52.7811 41.8125 50.5811 41.125 50.5811 41.125C50.9936 41.675 52.0936 42.8437 52.4373 42.3625Z" fill="#EDFF54"/>
<path d="M49.8937 42.4314C50.4437 41.6064 48.3125 42.0189 48.3125 42.0189C48.3125 42.0189 49.6875 42.7751 49.8937 42.4314Z" fill="#F361F5"/>
<path d="M50.7203 42.6376C50.7203 42.6376 50.3078 43.5313 48.7266 43.8751C48.7266 43.8751 49.0703 44.5626 48.7266 45.9376C48.7266 45.9376 50.3078 44.0813 51.2016 46.7626C51.2016 46.7626 51.9578 47.1751 52.5078 44.7001C52.5078 44.7001 51.8203 43.8063 51.6141 42.5688C51.6828 42.5688 51.4766 44.1501 50.7203 42.6376Z" fill="#FF3333"/>
<path d="M50.0332 36.6564C50.0332 36.6564 51.8207 36.0376 51.0645 34.5939C51.1332 34.5251 51.2707 34.4564 51.2707 34.4564C50.5145 33.2876 50.7895 34.9376 50.7895 34.9376C50.8582 34.8001 50.927 34.7314 50.927 34.6626C50.927 35.2126 50.8582 35.9689 50.0332 36.6564Z" fill="#FF3333"/>
<path d="M31.5392 31.1563C31.5392 31.1563 32.8454 33.0125 32.9829 30.95C33.0517 30.4688 32.8454 30.4 32.6392 30.4C32.5704 29.025 31.6079 28.6125 31.6079 28.6125C30.9892 28.9563 31.0579 29.4375 31.0579 29.4375C31.6079 29.5063 31.9517 30.1938 32.1579 30.7438C32.0892 30.95 31.8829 31.1563 31.5392 31.1563Z" fill="#FF3333"/>
<path d="M37.5184 25.9313C37.9309 25.1063 36.6934 24.1438 36.6934 24.1438C36.8309 26.1375 37.1059 26.7563 37.5184 25.9313Z" fill="#EDFF54"/>
<path d="M36.4871 25.175C36.4871 25.175 36.0059 25.2438 36.0059 26C36.0059 26 36.6246 25.9313 36.4871 25.175Z" fill="white"/>
</g>
</svg>
