<svg width="77" height="74" viewBox="0 0 77 74" fill="none" xmlns="http://www.w3.org/2000/svg">
<circle cx="38.7998" cy="37" r="36.5" fill="white" stroke="#E5E5E5"/>
<g clip-path="url(#clip0_108_518)">
<path d="M53.9248 47.2438C53.9248 55.5625 47.1873 55.5625 38.7998 55.5625C30.4123 55.5625 23.6748 55.5625 23.6748 47.2438C23.6748 38.925 30.4811 25.3125 38.7998 25.3125C47.1186 25.3125 53.9248 38.8563 53.9248 47.2438Z" fill="#DBB471"/>
<path opacity="0.5" d="M53.9242 47.2438C53.9242 44.425 53.168 40.9875 51.793 37.6875C52.068 39.8187 51.518 43.6 44.9867 45.0438C35.7055 47.0375 40.518 49.65 36.8742 49.9938C33.7805 50.2688 25.5305 49.0313 23.8805 44.3563C23.743 45.3875 23.6055 46.35 23.6055 47.3125C23.6742 55.5625 30.4805 55.5625 38.7992 55.5625C47.118 55.5625 53.9242 55.5625 53.9242 47.2438Z" fill="#89664C"/>
<path d="M42.8544 43.2562C42.5794 41.8812 41.4107 41.4687 40.1732 41.4V39.4749C40.5169 39.6124 40.9294 39.8187 41.2044 40.025C41.7544 40.3687 42.3044 39.4749 41.7544 39.1312C41.2732 38.8562 40.7232 38.5812 40.1732 38.375V36.1062C40.1732 35.4187 39.1419 35.4187 39.1419 36.1062V38.0999C38.5919 38.0312 38.0419 38.0312 37.4919 38.0999C37.4232 37.6187 37.2857 37.1375 37.1482 36.6562C37.0107 35.9687 35.9794 36.2437 36.1857 36.9312C36.3232 37.4125 36.3919 37.8937 36.5294 38.375C36.4607 38.375 36.4607 38.3749 36.3919 38.4437C35.0169 38.9937 34.1232 40.3687 35.1544 41.675C35.6357 42.2937 36.2544 42.5 36.9419 42.6375C37.0107 43.5312 37.0107 44.4249 37.0107 45.3187C36.5294 45.0437 36.1169 44.6312 35.7732 44.2874C35.2919 43.8062 34.6044 44.5625 35.0169 45.0437C35.6357 45.7312 36.3232 46.2125 37.0107 46.5562C37.0107 47.3125 37.0794 48.0687 37.1482 48.825C37.2169 49.5125 38.2482 49.5125 38.1794 48.825C38.1107 48.1375 38.0419 47.5187 38.0419 46.8312C38.4544 46.9 38.8669 46.9 39.2794 46.9C39.3482 47.5875 39.4169 48.275 39.4857 49.0312C39.5544 49.7187 40.5857 49.7187 40.5169 49.0312C40.4482 48.275 40.3794 47.5187 40.3107 46.6937C41.8232 46.1437 43.1982 44.9749 42.8544 43.2562ZM39.1419 39.1312V41.4C38.7982 41.4 38.5232 41.4687 38.2482 41.4687H37.9044L37.6982 38.9937C38.1794 38.9937 38.6607 39.0624 39.1419 39.1312ZM36.6669 41.3312C36.3919 41.2625 36.1169 41.0562 35.8419 40.8499C35.2232 40.2312 36.1169 39.6812 36.6669 39.4062C36.7357 40.0937 36.8044 40.7125 36.8732 41.4C36.8044 41.4 36.7357 41.4 36.6669 41.3312ZM38.9357 45.7312C38.5919 45.8 38.3169 45.7312 38.0419 45.6624C37.9732 44.6312 37.9732 43.6 37.9732 42.5C38.3857 42.5 38.7982 42.4312 39.2107 42.4312C39.2107 43.5312 39.2794 44.5624 39.2794 45.6624C39.1419 45.7312 39.0732 45.7312 38.9357 45.7312ZM41.2044 44.9749C40.9294 45.1812 40.5857 45.3187 40.3107 45.4562C40.2419 44.4249 40.2419 43.4625 40.2419 42.4312H40.5857C41.8919 42.7062 42.2357 44.15 41.2044 44.9749Z" fill="#89664C"/>
<path d="M40.175 52.8125H38.5938V55.5625L44.9875 59L59.425 54.5312V52.125L54.1313 49.0312L40.175 52.8125Z" fill="#699635"/>
<path d="M38.7998 51.2313C38.7998 51.2313 40.4498 53.9125 45.1248 56.25C45.1248 56.25 52.4123 55.9063 59.4248 51.2313C59.4248 51.2313 55.3686 49.2375 54.1998 46.625C54.1998 46.625 51.4498 50.475 38.7998 51.2313Z" fill="#83BF4F"/>
<path d="M35.7057 52.7438L37.2182 52.675L37.4244 55.2188L31.4432 59L17.0744 55.9063L16.8682 53.6375L21.7494 50.2688L35.7057 52.7438Z" fill="#699635"/>
<path d="M36.8748 51.1625C36.8748 51.1625 35.4311 53.8438 31.0998 56.3875C31.0998 56.3875 24.0186 56.5938 16.7998 52.8125C16.7998 52.8125 20.6498 50.6125 21.5436 48C21.5436 48 24.5686 51.4375 36.8748 51.1625Z" fill="#83BF4F"/>
<path d="M33.4371 51.9188C33.4371 51.9188 33.2309 52.4688 34.1934 52.5375L31.6496 54.6688C31.6496 54.6688 30.1371 54.5313 29.7934 55.5625C29.7934 55.5625 23.6059 54.875 19.6184 53.0875C19.6184 53.0875 20.4434 52.4688 19.4121 52.0563C19.4121 52.0563 20.5809 51.2313 20.8559 50.475C20.8559 50.475 21.9559 50.6125 22.2996 49.7875C22.4371 49.7188 26.5621 52.1938 33.4371 51.9188Z" stroke="#699635" stroke-width="0.6875" stroke-miterlimit="10"/>
<path d="M22.8502 52.8812C23.5716 52.8812 24.1564 52.4811 24.1564 51.9875C24.1564 51.4939 23.5716 51.0938 22.8502 51.0938C22.1288 51.0938 21.5439 51.4939 21.5439 51.9875C21.5439 52.4811 22.1288 52.8812 22.8502 52.8812Z" fill="#699635"/>
<path d="M29.8621 50.8873C29.8621 50.8873 28.2809 52.9498 24.8434 55.7686L25.0496 57.6248L22.6434 57.0748L22.5059 55.0811C22.5059 55.0811 26.0121 51.8498 26.7684 50.2686C26.6996 50.2686 27.9371 50.6811 29.8621 50.8873Z" fill="#F9F3D9"/>
<path d="M45.7432 50.4062C45.7432 50.4062 46.3619 52.0562 51.0369 55.0812V57.0749L53.7182 56.2499V54.1874C53.7182 54.1874 50.4869 51.9187 48.5619 49.6499L45.7432 50.4062Z" fill="#F9F3D9"/>
<path d="M41.8248 48.2063L40.3123 48.1376L40.1748 50.9563L46.2936 54.8751L60.6623 50.9563L60.7311 48.4813L55.7123 44.9751L41.8248 48.2063Z" fill="#699635"/>
<path d="M40.5869 46.4875C40.5869 46.4875 42.0994 49.375 46.5682 51.9875C46.5682 51.9875 53.7182 51.9875 60.7994 47.5875C60.7994 47.5875 56.8807 45.3187 55.9182 42.5C55.9182 42.5 52.9619 46.35 40.5869 46.4875Z" fill="#83BF4F"/>
<path d="M43.6811 47.2438C43.6811 47.2438 44.0248 47.7938 42.9248 48.0001L45.8123 50.2688C45.8123 50.2688 47.4623 49.8563 48.0123 50.8188C48.0123 50.8188 54.8873 49.5813 58.0498 47.9313C58.0498 47.9313 57.0186 47.4501 58.0498 46.8313C58.0498 46.8313 56.8123 45.8001 56.3311 45.1126C56.3311 45.1126 55.1623 45.4563 54.5436 44.6313C54.5436 44.7001 52.0686 46.9001 43.6811 47.2438Z" stroke="#699635" stroke-width="0.6875" stroke-miterlimit="10"/>
<path d="M48.9749 48.9624C48.6999 49.3061 47.8062 49.4436 47.0499 49.2374C46.2937 49.0311 45.9499 48.5499 46.2249 48.2061C46.4999 47.8624 47.3937 47.7249 48.1499 47.9311C48.9062 48.1374 49.2499 48.5499 48.9749 48.9624Z" fill="#699635"/>
<path d="M47.5996 45.9374C47.5996 45.9374 49.2496 48.1374 52.7559 51.0937L52.6871 53.1562L55.0934 52.4687L55.1621 50.2687C55.1621 50.2687 51.5871 46.8312 50.6934 45.1812C50.7621 45.1812 49.5934 45.6624 47.5996 45.9374Z" fill="#F9F3D9"/>
<path d="M48.4248 16.375C48.4248 20.5687 42.9936 27.375 38.7998 27.375C34.6061 27.375 29.1748 21.2562 29.1748 17.0625C29.1748 12.8688 29.7936 17.0625 33.9873 17.0625C34.6061 17.0625 37.4936 15 38.7998 15C39.6936 15 42.2373 17.0625 43.6123 17.0625C47.2561 17.0625 48.4248 13.2125 48.4248 16.375Z" fill="#DBB471"/>
<path d="M37.5624 24.1439C37.1499 24.4189 35.1561 24.2126 34.5374 24.6939C33.7124 25.3126 34.8811 26.7564 34.0561 27.6501C32.4061 29.3001 31.0999 31.1564 31.5124 32.1876C32.1999 33.9751 33.5061 28.8876 34.6749 30.8126C35.8436 32.7376 35.6374 29.5064 37.4249 31.1564C39.2124 32.8064 37.6999 28.2001 39.4186 30.1939C41.1374 32.1876 41.2061 34.4564 42.4436 34.4564C43.8874 34.4564 40.9311 29.0251 42.8561 30.3314C44.7811 31.6376 46.9124 31.1564 44.9874 29.1626C44.3686 28.5439 43.5436 27.4439 42.5811 26.4814C42.2374 26.1376 42.5124 24.3501 42.1686 24.0751C41.7561 23.7314 40.7249 24.8314 40.3124 24.6251C39.4874 24.2126 39.7624 24.9689 38.5249 25.1751C37.6999 25.4501 38.3874 23.5939 37.5624 24.1439Z" fill="#89664C"/>
<path d="M29.6567 28.1999C32.3379 25.6561 37.2192 27.0999 40.1067 28.3374C42.9254 29.5749 44.6442 25.6561 42.8567 23.6624C41.8254 22.4936 40.1754 23.8686 39.5566 24.6936C38.8691 25.5186 38.3192 26.4124 37.5629 27.2374C36.4629 28.4749 33.7817 27.4436 34.6067 25.7249C35.5004 23.9374 39.2817 25.9999 40.5192 26.3436C42.9254 27.0311 45.4692 27.3061 47.8754 26.4124C48.7004 26.1374 48.3567 24.7624 47.5317 25.1061C44.8504 26.0686 42.1692 25.4499 39.6254 24.6249C38.3192 24.2124 36.2567 23.1124 34.8817 23.7311C30.9629 25.5874 34.6067 30.8811 37.9067 28.8186C38.6629 28.3374 39.1441 27.5811 39.6941 26.8936C40.0379 26.4811 41.7567 23.8686 42.1692 25.1749C42.3754 25.8624 42.1692 27.0999 41.4129 27.3061C40.9317 27.5124 39.9692 26.8249 39.4879 26.6874C38.5942 26.3436 37.7004 26.0686 36.7379 25.8624C34.1942 25.3124 30.7567 25.4499 28.7629 27.3061C28.0754 27.8561 29.0379 28.8186 29.6567 28.1999Z" fill="#E8E8E8"/>
<path d="M47.5998 15.3438C46.9123 15.8938 45.6748 17.0625 43.6123 17.0625C42.2373 17.0625 39.6936 15 38.7998 15C37.4936 15 34.6061 17.0625 33.9873 17.0625C31.7186 17.0625 30.4811 15.8938 29.8623 15.4125C29.8623 15.4125 30.6186 18.5063 32.9561 20.0875C34.6748 21.1875 34.4686 19.8813 35.3623 18.6438C36.2561 17.4063 36.8748 16.7875 38.4561 19.8813C39.2811 21.6 40.8623 15.2062 42.0998 17.2688C44.3686 21.05 45.1936 18.9875 47.5998 15.3438Z" fill="#89664C"/>
<path d="M52.8266 51.025L52.7578 53.0875L55.1641 52.4L55.2328 50.2C55.2328 50.2687 53.7891 50.8187 52.8266 51.025Z" fill="#DBB471"/>
<path d="M51.0391 55.15V57.1438L53.7203 56.3188V54.2563C53.6516 54.1875 52.9641 54.6 51.0391 55.15Z" fill="#DBB471"/>
<path d="M24.8449 55.7L25.0511 57.625L22.6449 57.075L22.5074 55.0813C22.4386 55.0813 23.4011 55.425 24.8449 55.7Z" fill="#DBB471"/>
</g>
<defs>
<clipPath id="clip0_108_518">
<rect width="44" height="44" fill="white" transform="translate(16.7998 15)"/>
</clipPath>
</defs>
</svg>
