<svg width="77" height="74" viewBox="0 0 77 74" fill="none" xmlns="http://www.w3.org/2000/svg">
<circle cx="38.1992" cy="37" r="36.5" fill="white" stroke="#E5E5E5"/>
<path d="M52.8652 56.2501H23.5319C21.5152 56.2501 19.8652 54.6001 19.8652 52.5834V33.4251C19.8652 32.2334 20.4152 31.1334 21.4236 30.4001L38.1986 18.6667L54.9736 30.4001C55.9819 31.0417 56.5319 32.2334 56.5319 33.4251V52.5834C56.5319 54.6001 54.8819 56.2501 52.8652 56.2501Z" fill="#78909C"/>
<path d="M29.0332 19.5833H47.3665V47.9999H29.0332V19.5833Z" fill="#AED581"/>
<path d="M28.1152 18.6667V48.9167H48.2819V18.6667H28.1152ZM46.4486 47.0834H29.9486V20.5001H46.4486V47.0834Z" fill="#558B2F"/>
<path d="M47.3665 21.4166C47.3665 22.9749 47.0915 24.1666 45.5332 24.1666C43.9749 24.1666 42.7832 22.9749 42.7832 21.4166C42.7832 19.8583 43.9749 19.5833 45.5332 19.5833C47.0915 19.5833 47.3665 19.8583 47.3665 21.4166ZM30.8665 19.5833C32.4249 19.5833 33.6165 19.8583 33.6165 21.4166C33.6165 22.9749 32.4249 24.1666 30.8665 24.1666C29.3082 24.1666 29.0332 22.9749 29.0332 21.4166C29.0332 19.8583 29.3082 19.5833 30.8665 19.5833Z" fill="#558B2F"/>
<path d="M36.3652 26.0001C36.3652 26.4863 36.5584 26.9526 36.9022 27.2964C37.246 27.6403 37.7123 27.8334 38.1986 27.8334C38.6848 27.8334 39.1511 27.6403 39.4949 27.2964C39.8387 26.9526 40.0319 26.4863 40.0319 26.0001C40.0319 25.5139 39.8387 25.0475 39.4949 24.7037C39.1511 24.3599 38.6848 24.1667 38.1986 24.1667C37.7123 24.1667 37.246 24.3599 36.9022 24.7037C36.5584 25.0475 36.3652 25.5139 36.3652 26.0001Z" fill="#558B2F"/>
<path d="M32.6992 37C32.6992 38.4587 33.2787 39.8576 34.3101 40.8891C35.3416 41.9205 36.7405 42.5 38.1992 42.5C39.6579 42.5 41.0569 41.9205 42.0883 40.8891C43.1198 39.8576 43.6992 38.4587 43.6992 37C43.6992 35.5413 43.1198 34.1424 42.0883 33.1109C41.0569 32.0795 39.6579 31.5 38.1992 31.5C36.7405 31.5 35.3416 32.0795 34.3101 33.1109C33.2787 34.1424 32.6992 35.5413 32.6992 37Z" fill="#558B2F"/>
<path d="M52.8652 56.25H23.5319C21.5152 56.25 19.8652 54.6 19.8652 52.5833V34.25L38.1986 46.1667L56.5319 34.25V52.5833C56.5319 54.6 54.8819 56.25 52.8652 56.25Z" fill="#CFD8DC"/>
</svg>
