<svg width="509" height="100" viewBox="0 0 509 100" fill="none" xmlns="http://www.w3.org/2000/svg">
<path fill-rule="evenodd" clip-rule="evenodd" d="M492.91 23.9092C476.573 25.3639 460.23 26.2658 443.886 26.8383C443.652 30.0207 441.924 31.7666 439.71 32.7811C440.051 33.9822 440.282 35.2847 440.395 36.6822C441.048 44.7296 434.212 45.5148 429.549 46.0505C429.219 46.0884 428.9 46.125 428.595 46.1628C417.67 47.5286 406.71 48.5184 395.729 49.2584C407.205 49.281 418.706 48.3518 430.201 47.423C435.3 47.011 440.397 46.5991 445.491 46.2704C453.686 45.7432 459.161 50.8437 459.537 59.8263C459.88 67.8843 452.93 68.616 448.185 69.1155L448.184 69.1156C447.851 69.1506 447.529 69.1845 447.221 69.2197C443.931 69.5986 440.64 69.9445 437.347 70.2608C439.775 72.5867 441.261 76.13 441.509 80.6664C441.961 88.721 435.278 89.4671 430.715 89.9765C430.39 90.0129 430.075 90.048 429.775 90.0845C400.907 93.5904 371.842 94.3683 342.788 94.8713C333.934 95.0243 321.604 95.5314 313.159 95.8788C309.621 96.0243 306.765 96.1418 305.131 96.1935C304.519 96.2118 303.931 96.1167 303.396 96.0302C302.918 95.9528 302.482 95.8822 302.107 95.9053C289.206 96.751 275.544 96.9695 261.873 97.1882C254.457 97.3068 247.039 97.4255 239.738 97.6443C235.949 97.7591 232.146 97.5902 228.347 97.4215C226.653 97.3462 224.959 97.271 223.268 97.221C219.731 97.8088 216.194 97.4747 212.669 97.1418C210.999 96.984 209.331 96.8264 207.667 96.7675C193.767 96.2755 179.868 96.6155 165.965 96.9557C160.896 97.0797 155.827 97.2037 150.757 97.2875C142.379 97.4252 133.999 97.5792 125.619 97.7333C103.083 98.1475 80.5426 98.5618 58.004 98.6598C56.4265 98.668 54.8595 98.8569 53.2978 99.0452C48.6064 99.6107 43.9639 100.17 39.2344 95.8084C39.1499 95.7342 38.9816 95.6162 38.8972 95.557L38.8969 95.5568C37.5039 94.5943 37.3239 92.9899 37.1442 91.3881C37.0565 90.6062 36.9689 89.825 36.7403 89.1194C33.5937 79.339 35.675 76.161 44.0442 77.4082C45.1132 77.5676 46.2165 77.4718 47.3174 77.2902C45.4931 76.778 43.6686 75.8302 41.8397 74.1835C41.7859 74.1244 41.6589 74.0384 41.5665 73.9758L41.5658 73.9754C41.5416 73.9589 41.5197 73.9441 41.5022 73.9319C40.0707 72.9616 39.906 71.3474 39.7419 69.7391C39.6627 68.9624 39.5836 68.1872 39.362 67.4865C37.9075 62.9103 37.6119 59.7795 38.5934 57.8709C35.297 57.9511 31.9831 57.3045 28.5615 54.322C28.5 54.268 28.3855 54.191 28.2951 54.1303L28.2576 54.105C28.2387 54.0923 28.2216 54.0807 28.2075 54.0707C26.7561 53.1128 26.5299 51.5069 26.304 49.9036C26.1945 49.1257 26.0849 48.3483 25.8356 47.646C25.6658 47.1695 25.5092 46.7088 25.366 46.2634C24.3406 45.7527 23.3062 45.0798 22.2601 44.2031C22.1986 44.1491 22.0839 44.072 21.9935 44.0113C21.9596 43.9885 21.9291 43.968 21.9061 43.9519C20.4137 43.0023 20.163 41.4003 19.9129 39.8019C19.7906 39.0209 19.6686 38.2406 19.4018 37.5378C18.0996 34.0887 17.5156 31.4598 17.6969 29.5543C13.075 29.7874 8.51187 29.371 4.0915 25.8985C3.99028 25.8245 3.7884 25.6995 3.68754 25.6408C2.02425 24.6625 1.90839 23.0499 1.79287 21.4418C1.73674 20.6606 1.6807 19.8805 1.44737 19.1748C-1.79956 9.35861 1.02816 6.1937 11.4056 7.52369C13.4211 7.78496 15.5699 7.45259 17.6738 7.12714L17.6738 7.12713C17.9135 7.09006 18.1526 7.05308 18.3908 7.01707C23.0243 6.3029 30.3731 6.07097 35.7818 5.90027C36.6408 5.87316 37.4509 5.84759 38.1934 5.82188C41.4797 5.7068 44.9184 6.02897 48.2828 6.34417C51.6179 6.65663 54.8801 6.96225 57.8484 6.82833C67.9387 6.37401 78.0317 5.69364 88.1241 5.0133C103.395 3.98386 118.665 2.9545 133.924 2.70845C150.913 2.43097 167.891 2.83902 184.869 3.24709C197.225 3.54407 209.582 3.84106 221.945 3.87385C238.28 3.91918 254.623 3.69959 270.965 3.48C285.892 3.27942 300.819 3.07885 315.74 3.0802C327.069 3.08148 338.401 2.90313 349.734 2.72478C373.215 2.35523 396.699 1.98564 420.168 3.21364C437.839 4.139 455.691 3.05545 473.528 1.97287C479.704 1.59804 485.878 1.22332 492.042 0.932142C501.946 0.456599 508.284 5.60567 508.262 14.5975C508.233 22.6568 499.825 23.3424 494.09 23.81C493.682 23.8433 493.287 23.8755 492.91 23.9092Z" fill="#0EE1E8"/>
</svg>
