<svg width="1440" height="433" viewBox="0 0 1440 433" fill="none" xmlns="http://www.w3.org/2000/svg">
<path opacity="0.02" d="M670.464 1895.83C777.856 1787.02 840.271 1848.62 947.663 1739.81C1055.06 1631 992.64 1569.4 1100 1460.61C1207.36 1351.83 1269.81 1413.4 1377.2 1304.59C1484.59 1195.78 1422.18 1134.18 1529.57 1025.36C1636.96 916.551 1699.38 978.151 1806.8 869.307C1914.22 760.462 1851.78 698.894 1959.17 590.081M-550.377 670.845C-442.985 562.032 -380.57 623.632 -273.178 514.819C-165.786 406.006 -228.201 344.406 -120.839 235.625C-13.4782 126.843 48.9677 188.412 156.36 79.5993C263.752 -29.2135 201.337 -90.8135 308.729 -199.626C416.121 -308.439 478.536 -246.839 585.959 -355.683C693.382 -464.527 630.936 -526.096 738.328 -634.909M229.694 1438.29C337.086 1329.48 399.501 1391.08 506.893 1282.27C614.285 1173.46 551.87 1111.86 659.232 1003.07C766.593 894.293 829.039 955.862 936.431 847.05C1043.82 738.237 981.408 676.637 1088.8 567.824C1196.19 459.011 1258.61 520.611 1366.03 411.767C1473.45 302.923 1411.01 241.354 1518.4 132.541M-166.212 1048.08C-58.8196 939.263 3.59546 1000.86 110.988 892.05C218.38 783.237 155.965 721.637 263.326 612.856C370.687 504.074 433.133 565.643 540.525 456.83C647.917 348.017 585.502 286.417 692.894 177.604C800.286 68.7916 862.701 130.392 970.124 21.5476C1077.55 -87.2966 1015.1 -148.865 1122.49 -257.678M612.307 1827.04C719.699 1718.22 782.114 1779.82 889.506 1671.01C996.898 1562.2 934.483 1500.6 1041.84 1391.82C1149.21 1283.04 1211.65 1344.6 1319.04 1235.79C1426.44 1126.98 1364.02 1065.38 1471.41 956.566C1578.8 847.753 1641.22 909.353 1748.64 800.509C1856.07 691.665 1793.62 630.096 1901.01 521.283M-361.596 871.733C-254.204 762.921 -191.789 824.521 -84.3968 715.708C22.9953 606.895 -39.4198 545.295 67.9414 436.513C175.303 327.732 237.748 389.301 345.141 280.488C452.533 171.675 390.117 110.075 497.51 1.26219C604.902 -107.551 667.317 -45.9506 774.74 -154.795C882.162 -263.639 819.717 -325.208 927.109 -434.02M416.923 1637.89C524.315 1529.08 586.73 1590.68 694.122 1481.86C801.514 1373.05 739.099 1311.45 846.46 1202.67C953.821 1093.89 1016.27 1155.46 1123.66 1046.64C1231.05 937.832 1168.64 876.232 1276.03 767.419C1383.42 658.606 1445.84 720.206 1553.26 611.362C1660.68 502.518 1598.24 440.949 1705.63 332.136M22.5687 1248.96C129.961 1140.15 192.376 1201.75 299.768 1092.94C407.16 984.126 344.745 922.526 452.106 813.744C559.467 704.963 621.913 766.531 729.305 657.719C836.697 548.906 774.282 487.306 881.674 378.493C989.066 269.68 1051.48 331.28 1158.9 222.436C1266.33 113.592 1203.88 52.0232 1311.27 -56.7896M801.088 2027.93C908.48 1919.11 970.895 1980.71 1078.29 1871.9C1185.68 1763.09 1123.26 1701.49 1230.63 1592.71C1337.99 1483.92 1400.43 1545.49 1507.82 1436.68C1615.22 1327.87 1552.8 1266.27 1660.19 1157.45C1767.59 1048.64 1830 1110.24 1937.42 1001.4C2044.85 892.553 1982.4 830.985 2089.79 722.172M-576.471 635.272C-469.079 526.459 -406.664 588.06 -299.272 479.247C-191.88 370.434 -254.295 308.834 -146.934 200.052C-39.573 91.2708 22.8729 152.84 130.265 44.0268C237.657 -64.786 175.242 -126.386 282.634 -235.199C390.026 -344.012 452.441 -282.412 559.864 -391.256C667.287 -500.1 604.841 -561.669 712.233 -670.481M203.6 1402.72C310.993 1293.91 373.408 1355.51 480.8 1246.7C588.192 1137.88 525.777 1076.28 633.138 967.502C740.499 858.721 802.945 920.29 910.337 811.477C1017.73 702.664 955.314 641.064 1062.71 532.251C1170.1 423.438 1232.51 485.038 1339.94 376.194C1447.36 267.35 1384.91 205.781 1492.31 96.9686M-192.306 1012.5C-84.9143 903.69 -22.4993 965.29 84.8928 856.478C192.285 747.665 129.87 686.065 237.231 577.283C344.592 468.501 407.038 530.07 514.43 421.257C621.822 312.445 559.407 250.845 666.799 142.032C774.191 33.219 836.606 94.8191 944.029 -14.0251C1051.45 -122.869 989.006 -184.438 1096.4 -293.251M586.213 1791.46C693.606 1682.65 756.021 1744.25 863.413 1635.44C970.805 1526.63 908.39 1465.03 1015.75 1356.24C1123.11 1247.46 1185.56 1309.03 1292.95 1200.22C1400.34 1091.41 1337.93 1029.81 1445.32 920.994C1552.71 812.181 1615.13 873.781 1722.55 764.937C1829.97 656.093 1767.53 594.524 1874.92 485.711M-387.691 836.161C-280.299 727.348 -217.884 788.948 -110.492 680.135C-3.09948 571.322 -65.5145 509.722 41.8467 400.941C149.208 292.159 211.654 353.728 319.046 244.915C426.438 136.102 364.023 74.5024 471.415 -34.3104C578.807 -143.123 641.222 -81.5232 748.645 -190.367C856.068 -299.211 793.622 -360.78 901.014 -469.593M390.829 1602.32C498.221 1493.5 560.636 1555.1 668.028 1446.29C775.42 1337.48 713.005 1275.88 820.366 1167.1C927.727 1058.32 990.173 1119.88 1097.57 1011.07C1204.96 902.259 1142.54 840.659 1249.93 731.846C1357.33 623.033 1419.74 684.634 1527.16 575.789C1634.59 466.945 1572.14 405.376 1679.53 296.564M-3.52557 1213.39C103.866 1104.58 166.281 1166.18 273.674 1057.37C381.066 948.553 318.651 886.953 426.012 778.172C533.373 669.39 595.819 730.959 703.211 622.146C810.603 513.333 748.188 451.733 855.58 342.92C962.972 234.108 1025.39 295.708 1132.81 186.863C1240.23 78.0193 1177.79 16.4506 1285.18 -92.3623M774.994 1992.35C882.386 1883.54 944.801 1945.14 1052.19 1836.33C1159.58 1727.52 1097.17 1665.92 1204.53 1557.13C1311.89 1448.35 1374.34 1509.92 1481.73 1401.11C1589.12 1292.3 1526.71 1230.7 1634.1 1121.88C1741.49 1013.07 1803.91 1074.67 1911.33 965.825C2018.75 856.981 1956.31 795.413 2063.7 686.6M-649.793 569.554C-542.401 460.741 -479.986 522.341 -372.594 413.528C-265.202 304.716 -327.617 243.115 -220.255 134.334C-112.894 25.5525 -50.4483 87.1213 56.9437 -21.6915C164.336 -130.504 101.921 -192.104 209.313 -300.917C316.705 -409.73 379.12 -348.13 486.543 -456.974C593.966 -565.818 531.52 -627.387 638.912 -736.2M130.279 1337C237.671 1228.19 300.086 1289.79 407.478 1180.98C514.87 1072.17 452.455 1010.57 559.816 901.784C667.177 793.002 729.623 854.571 837.015 745.758C944.407 636.946 881.992 575.346 989.384 466.533C1096.78 357.72 1159.19 419.32 1266.61 310.476C1374.04 201.632 1311.59 140.063 1418.98 31.2502M-265.628 959.59C-158.236 850.777 -95.8206 912.377 11.5715 803.564C118.964 694.751 56.5485 633.151 163.91 524.37C271.271 415.588 333.717 477.157 441.109 368.344C548.501 259.531 486.086 197.931 593.478 89.1187C700.87 -19.6941 763.285 41.9059 870.708 -66.9382C978.131 -175.782 915.685 -237.351 1023.08 -346.164M512.892 1725.75C620.284 1616.93 682.699 1678.53 790.091 1569.72C897.483 1460.91 835.068 1399.31 942.429 1290.53C1049.79 1181.74 1112.24 1243.31 1219.63 1134.5C1327.02 1025.69 1264.61 964.088 1372 855.275C1479.39 746.462 1541.8 808.062 1649.23 699.218C1756.65 590.374 1694.2 528.805 1801.6 419.993M-461.012 770.442C-353.62 661.63 -291.205 723.23 -183.813 614.417C-76.4213 505.604 -138.836 444.004 -31.4752 335.223C75.886 226.441 138.332 288.01 245.724 179.197C353.116 70.3842 290.701 8.78417 398.093 -100.029C505.485 -208.841 567.9 -147.241 675.323 -256.086C782.746 -364.93 720.3 -426.498 827.692 -535.311M319.059 1537.89C426.452 1429.08 488.867 1490.68 596.259 1381.87C703.651 1273.05 641.236 1211.45 748.597 1102.67C855.958 993.891 918.404 1055.46 1025.8 946.647C1133.19 837.834 1070.77 776.234 1178.16 667.422C1285.56 558.609 1347.97 620.209 1455.4 511.365C1562.82 402.521 1500.37 340.952 1607.76 232.139M-76.8474 1147.67C30.5447 1038.86 92.9596 1100.46 200.352 991.648C307.744 882.835 245.329 821.235 352.69 712.453C460.051 603.672 522.497 665.241 629.889 556.428C737.281 447.615 674.866 386.015 782.258 277.202C889.65 168.39 952.065 229.99 1059.49 121.145C1166.91 12.3013 1104.47 -49.2675 1211.86 -158.08M701.671 1926.64C809.063 1817.82 871.479 1879.42 978.871 1770.61C1086.26 1661.8 1023.85 1600.2 1131.21 1491.42C1238.57 1382.63 1301.02 1444.2 1408.41 1335.39C1515.8 1226.58 1453.38 1164.98 1560.78 1056.16C1668.17 947.351 1730.58 1008.95 1838.01 900.107C1945.43 791.263 1882.98 729.694 1990.38 620.881M-519.169 701.645C-411.777 592.832 -349.362 654.432 -241.97 545.62C-134.578 436.807 -196.993 375.207 -89.6316 266.425C17.7296 157.644 80.1755 219.212 187.568 110.4C294.96 1.58677 232.545 -60.0132 339.937 -168.826C447.329 -277.639 509.744 -216.039 617.167 -324.883C724.59 -433.727 662.144 -495.296 769.536 -604.109M260.903 1469.1C368.295 1360.28 430.71 1421.88 538.102 1313.07C645.494 1204.26 583.079 1142.66 690.44 1033.88C797.801 925.094 860.247 986.663 967.639 877.85C1075.03 769.037 1012.62 707.437 1120.01 598.624C1227.4 489.811 1289.82 551.411 1397.24 442.567C1504.66 333.723 1442.22 272.154 1549.61 163.342M-135.004 1078.88C-27.6122 970.063 34.8027 1031.66 142.195 922.851C249.587 814.038 187.172 752.438 294.533 643.656C401.894 534.874 464.34 596.443 571.732 487.63C679.124 378.818 616.709 317.218 724.101 208.405C831.493 99.592 893.908 161.192 1001.33 52.3479C1108.75 -56.4962 1046.31 -118.065 1153.7 -226.878M643.515 1857.84C750.908 1749.02 813.323 1810.62 920.715 1701.81C1028.11 1593 965.692 1531.4 1073.05 1422.62C1180.41 1313.84 1242.86 1375.4 1350.25 1266.59C1457.64 1157.78 1395.23 1096.18 1502.62 987.366C1610.01 878.553 1672.43 940.153 1779.85 831.309C1887.27 722.465 1824.83 660.896 1932.22 552.084M-330.389 902.534C-222.997 793.721 -160.582 855.321 -53.1895 746.508C54.2026 637.695 -8.21244 576.095 99.1487 467.314C206.51 358.532 268.956 420.101 376.348 311.288C483.74 202.475 421.325 140.875 528.717 32.0626C636.109 -76.7502 698.524 -15.1502 805.947 -123.994C913.37 -232.838 850.924 -294.407 958.316 -403.22M448.13 1668.69C555.522 1559.88 617.937 1621.48 725.329 1512.66C832.721 1403.85 770.306 1342.25 877.667 1233.47C985.029 1124.69 1047.47 1186.26 1154.87 1077.44C1262.26 968.632 1199.84 907.032 1307.24 798.219C1414.63 689.406 1477.04 751.006 1584.47 642.162C1691.89 533.318 1629.44 471.749 1736.83 362.936M53.7765 1279.76C161.169 1170.95 223.583 1232.55 330.976 1123.74C438.368 1014.93 375.953 953.326 483.314 844.545C590.675 735.763 653.121 797.332 760.513 688.519C867.905 579.706 805.49 518.106 912.882 409.293C1020.27 300.481 1082.69 362.081 1190.11 253.236C1297.53 144.392 1235.09 82.8236 1342.48 -25.9893M832.295 2058.73C939.687 1949.91 1002.1 2011.51 1109.49 1902.7C1216.89 1793.89 1154.47 1732.29 1261.83 1623.51C1369.19 1514.72 1431.64 1576.29 1539.03 1467.48C1646.42 1358.67 1584.01 1297.07 1691.4 1188.25C1798.79 1079.44 1861.21 1141.04 1968.63 1032.2C2076.05 923.354 2013.61 861.785 2121 752.972M-108.055 1116.87C-0.662602 1008.06 61.7524 1069.66 169.144 960.848C276.536 852.035 214.121 790.435 321.483 681.653C428.844 572.872 491.29 634.44 598.682 525.628C706.074 416.815 643.659 355.215 751.051 246.402C858.443 137.589 920.858 199.189 1028.28 90.3451C1135.7 -18.4991 1073.26 -80.0679 1180.65 -188.881M-681 538.754C-573.608 429.941 -511.193 491.541 -403.801 382.728C-296.409 273.915 -358.824 212.315 -251.463 103.534C-144.102 -5.24772 -81.6557 56.3211 25.7364 -52.4917C133.128 -161.305 70.7133 -222.905 178.105 -331.717C285.497 -440.53 347.913 -378.93 455.335 -487.774C562.758 -596.618 500.312 -658.187 607.705 -767M99.0714 1306.2C206.463 1197.39 268.879 1258.99 376.271 1150.18C483.663 1041.37 421.248 979.765 528.609 870.984C635.97 762.202 698.416 823.771 805.808 714.958C913.2 606.145 850.785 544.545 958.177 435.733C1065.57 326.92 1127.98 388.52 1235.41 279.676C1342.83 170.832 1280.38 109.263 1387.78 0.449995M-296.835 928.789C-189.443 819.977 -127.028 881.577 -19.6358 772.764C87.7562 663.951 25.3412 602.351 132.702 493.569C240.064 384.788 302.509 446.357 409.901 337.544C517.294 228.731 454.878 167.131 562.27 58.3183C669.663 -50.4945 732.078 11.1055 839.5 -97.7386C946.923 -206.583 884.478 -268.152 991.87 -376.964M481.684 1694.95C589.076 1586.13 651.491 1647.73 758.883 1538.92C866.276 1430.11 803.861 1368.51 911.222 1259.73C1018.58 1150.94 1081.03 1212.51 1188.42 1103.7C1295.81 994.888 1233.4 933.288 1340.79 824.475C1448.18 715.662 1510.6 777.262 1618.02 668.418C1725.44 559.574 1663 498.005 1770.39 389.193M-492.22 739.642C-384.828 630.829 -322.413 692.43 -215.021 583.617C-107.629 474.804 -170.044 413.204 -62.6824 304.422C44.6787 195.641 107.125 257.21 214.517 148.397C321.909 39.5839 259.494 -22.0161 366.886 -130.829C474.278 -239.642 536.693 -178.042 644.116 -286.886C751.539 -395.73 689.093 -457.299 796.485 -566.112M287.851 1507.09C395.243 1398.28 457.658 1459.88 565.05 1351.07C672.442 1242.25 610.027 1180.65 717.388 1071.87C824.75 963.091 887.196 1024.66 994.588 915.847C1101.98 807.034 1039.56 745.434 1146.96 636.621C1254.35 527.808 1316.76 589.408 1424.19 480.564C1531.61 371.72 1469.16 310.151 1576.56 201.339M-607.679 604.472C-500.287 495.659 -437.872 557.259 -330.48 448.446C-223.088 339.633 -285.503 278.033 -178.141 169.252C-70.7803 60.4703 -8.33437 122.039 99.0577 13.2263C206.45 -95.5865 144.035 -157.187 251.427 -265.999C358.819 -374.812 421.234 -313.212 528.657 -422.056C636.08 -530.9 573.634 -592.469 681.026 -701.282M172.393 1371.92C279.785 1263.11 342.2 1324.71 449.592 1215.9C556.984 1107.08 494.569 1045.48 601.93 936.702C709.292 827.92 771.738 889.489 879.13 780.676C986.522 671.863 924.107 610.263 1031.5 501.451C1138.89 392.638 1201.31 454.238 1308.73 345.394C1416.15 236.55 1353.71 174.981 1461.1 66.168M-223.514 981.703C-116.122 872.89 -53.7066 934.49 53.6855 825.677C161.078 716.864 98.6624 655.264 206.024 546.483C313.385 437.701 375.831 499.27 483.223 390.457C590.615 281.644 528.2 220.044 635.592 111.231C742.984 2.41864 805.399 64.0187 912.822 -44.8254C1020.24 -153.67 957.799 -215.238 1065.19 -324.051M555.006 1760.66C662.398 1651.85 724.813 1713.45 832.205 1604.64C939.597 1495.83 877.182 1434.23 984.543 1325.44C1091.9 1216.66 1154.35 1278.23 1261.74 1169.42C1369.13 1060.61 1306.72 999.006 1414.11 890.193C1521.5 781.38 1583.92 842.98 1691.34 734.136C1798.76 625.292 1736.32 563.723 1843.71 454.911M-418.898 805.361C-311.506 696.548 -249.091 758.148 -141.699 649.335C-34.3073 540.522 -96.7223 478.922 10.6388 370.141C118 261.359 180.446 322.928 287.838 214.115C395.23 105.302 332.815 43.7022 440.207 -65.1106C547.599 -173.923 610.014 -112.323 717.437 -221.168C824.86 -330.012 762.414 -391.58 869.806 -500.393M359.621 1571.52C467.013 1462.7 529.428 1524.3 636.821 1415.49C744.213 1306.68 681.798 1245.08 789.159 1136.3C896.52 1027.52 958.966 1089.08 1066.36 980.271C1173.75 871.459 1111.33 809.859 1218.73 701.046C1326.12 592.233 1388.53 653.833 1495.96 544.989C1603.38 436.145 1540.93 374.576 1648.33 265.763M-34.7334 1182.59C72.6586 1073.78 135.074 1135.38 242.466 1026.57C349.858 917.753 287.443 856.153 394.804 747.371C502.165 638.59 564.611 700.159 672.003 591.346C779.395 482.533 716.98 420.933 824.372 312.12C931.764 203.307 994.179 264.907 1101.6 156.063C1209.02 47.2192 1146.58 -14.3496 1253.97 -123.162M743.786 1961.55C851.178 1852.74 913.593 1914.34 1020.99 1805.53C1128.38 1696.71 1065.96 1635.11 1173.32 1526.33C1280.68 1417.55 1343.13 1479.12 1450.52 1370.31C1557.91 1261.49 1495.5 1199.89 1602.89 1091.08C1710.28 982.269 1772.7 1043.87 1880.12 935.025C1987.54 826.18 1925.1 764.612 2032.49 655.799" stroke="#F5F5F5" stroke-width="1.94013" stroke-miterlimit="10"/>
</svg>
