<svg width="132" height="32" viewBox="0 0 132 32" fill="none" xmlns="http://www.w3.org/2000/svg">
<path d="M20.9529 1.33325H9.71439L0.666992 10.3806V21.6192L9.71439 30.6666H20.9529L30.0003 21.6192V10.3806L20.9529 1.33325ZM11.2694 21.7606L5.47343 15.9646L11.2694 10.1686C13.4606 7.97743 17.0654 7.97743 19.2566 10.1686L25.0525 15.9646L19.2566 21.7606C17.0654 23.9517 13.5312 23.9517 11.2694 21.7606Z" fill="#444CE7"/>
<path d="M42.8937 22.8268C44.6937 22.8268 46.1737 21.9068 46.6337 20.5268V22.6668H49.2937V17.2668C49.2937 16.0468 48.3337 15.0068 47.0337 15.0068H43.2337V17.2668H45.9337C46.2737 17.2668 46.4937 17.4868 46.4937 17.8268C46.4937 19.1268 44.7737 20.3868 43.0337 20.3868C40.7137 20.3868 38.8737 18.5668 38.8737 15.6668C38.8737 12.7668 40.7137 11.0868 43.0937 11.0868C44.8937 11.0868 46.1337 12.0668 46.3537 13.5668H49.3337C49.1537 10.5668 46.6337 8.50679 43.1137 8.50679C39.4137 8.50679 36.0137 10.8868 36.0137 15.6668C36.0137 20.4468 39.3137 22.8268 42.8937 22.8268Z" fill="#101828"/>
<path d="M50.4355 22.6668H53.2155V8.20679H50.4355V22.6668Z" fill="#101828"/>
<path d="M59.2123 22.8268C62.3123 22.8268 64.5323 20.6268 64.5323 17.6268C64.5323 14.6268 62.3123 12.4268 59.2123 12.4268C56.1123 12.4268 53.8923 14.6268 53.8923 17.6268C53.8923 20.6268 56.1123 22.8268 59.2123 22.8268ZM59.2123 20.4268C57.7123 20.4268 56.6923 19.2868 56.6923 17.6268C56.6923 15.9468 57.7123 14.8068 59.2123 14.8068C60.7123 14.8068 61.7323 15.9468 61.7323 17.6268C61.7323 19.2868 60.7123 20.4268 59.2123 20.4268Z" fill="#101828"/>
<path d="M70.7529 22.8268C73.7329 22.8268 75.5129 20.7668 75.5129 17.6268C75.5129 14.4868 73.7329 12.4268 70.7929 12.4268C69.5329 12.4268 68.5529 12.9068 67.9929 13.6468V8.20679H65.2129V22.6668H67.9929V21.5668C68.5529 22.3468 69.5929 22.8268 70.7529 22.8268ZM70.3129 20.4268C68.8129 20.4268 67.8329 19.3068 67.8329 17.6268C67.8329 15.9268 68.8129 14.8068 70.3129 14.8068C71.7729 14.8068 72.7729 15.9268 72.7729 17.6268C72.7729 19.3068 71.7729 20.4268 70.3129 20.4268Z" fill="#101828"/>
<path d="M80.1665 12.4268C77.4065 12.4268 75.7665 14.0468 75.6465 16.0668H78.1265C78.1665 15.2268 78.7865 14.4668 80.0065 14.4668C81.1465 14.4668 81.8065 15.0468 81.8065 15.8868C81.8065 16.3068 81.5465 16.6268 81.0465 16.6268H79.3465C77.1465 16.6268 75.6665 17.8268 75.6665 19.8068C75.6665 21.5268 77.0065 22.8268 78.9665 22.8268C80.3465 22.8268 81.4665 22.2068 81.8065 21.2668V22.6668H84.5665V16.1868C84.5665 13.9068 82.7065 12.4268 80.1665 12.4268ZM79.6665 20.8068C78.8865 20.8068 78.3265 20.3468 78.3265 19.6868C78.3265 18.9068 78.9265 18.3868 79.7665 18.3868H81.8065V18.5268C81.8065 19.8068 81.0265 20.8068 79.6665 20.8068Z" fill="#101828"/>
<path d="M85.6348 22.6668H88.4148V8.20679H85.6348V22.6668Z" fill="#101828"/>
<path d="M89.8915 22.6668H95.6115C98.5715 22.6668 100.611 21.1468 100.611 18.4868C100.611 16.6468 99.5315 15.5268 98.2515 15.0268C99.0715 14.5868 99.8915 13.5868 99.8915 12.2668C99.8915 9.92679 97.9915 8.66679 95.4515 8.66679H89.8915V22.6668ZM92.8515 14.0068V11.0468H95.1715C96.5115 11.0468 97.1115 11.5868 97.1115 12.5268C97.1115 13.4668 96.5115 14.0068 95.2315 14.0068H92.8515ZM92.8515 20.0668V16.5468H95.3515C97.0115 16.5468 97.7515 17.1868 97.7515 18.3268C97.7515 19.4668 97.0115 20.0668 95.3515 20.0668H92.8515Z" fill="#101828"/>
<path d="M105.448 12.4268C102.688 12.4268 101.048 14.0468 100.928 16.0668H103.408C103.448 15.2268 104.068 14.4668 105.288 14.4668C106.428 14.4668 107.088 15.0468 107.088 15.8868C107.088 16.3068 106.828 16.6268 106.328 16.6268H104.628C102.428 16.6268 100.948 17.8268 100.948 19.8068C100.948 21.5268 102.288 22.8268 104.248 22.8268C105.628 22.8268 106.748 22.2068 107.088 21.2668V22.6668H109.848V16.1868C109.848 13.9068 107.988 12.4268 105.448 12.4268ZM104.948 20.8068C104.168 20.8068 103.608 20.3468 103.608 19.6868C103.608 18.9068 104.208 18.3868 105.048 18.3868H107.088V18.5268C107.088 19.8068 106.308 20.8068 104.948 20.8068Z" fill="#101828"/>
<path d="M110.756 22.6668H113.556V17.1468C113.556 15.8468 114.416 14.9068 115.636 14.9068C116.796 14.9068 117.576 15.7868 117.576 17.0068V22.6668H120.376V16.3868C120.376 14.0668 118.896 12.4268 116.616 12.4268C115.236 12.4268 114.116 13.0068 113.556 13.9868V12.5868H110.756V22.6668Z" fill="#101828"/>
<path d="M128.356 22.6668H131.716L127.376 16.5468L131.396 12.5868H127.876L124.376 16.0268V8.20679H121.576V22.6668H124.376V19.5068L125.496 18.4068L128.356 22.6668Z" fill="#101828"/>
</svg>
