<svg width="114" height="32" viewBox="0 0 114 32" fill="none" xmlns="http://www.w3.org/2000/svg">
<path fill-rule="evenodd" clip-rule="evenodd" d="M14.9997 30.6666C23.0999 30.6666 29.6663 24.1001 29.6663 15.9999C29.6663 7.89975 23.0999 1.33325 14.9997 1.33325C6.89948 1.33325 0.333008 7.89975 0.333008 15.9999C0.333008 24.1001 6.89948 30.6666 14.9997 30.6666ZM19.5752 8.16561C19.7979 7.37449 19.0302 6.90668 18.329 7.40621L8.54129 14.3789C7.7809 14.9207 7.9005 15.9999 8.72096 15.9999H11.2983V15.98H16.3215L12.2286 17.4241L10.4242 23.8343C10.2015 24.6254 10.9691 25.0932 11.6703 24.5936L21.4581 17.6209C22.2185 17.0792 22.0988 15.9999 21.2784 15.9999H17.3699L19.5752 8.16561Z" fill="#155EEF"/>
<path d="M37.2529 22.6062V20.2862H39.0929V10.9262H37.2529V8.60617H44.4529C45.3063 8.60617 46.0463 8.75284 46.6729 9.04617C47.3129 9.32617 47.8063 9.73284 48.1529 10.2662C48.5129 10.7862 48.6929 11.4128 48.6929 12.1462V12.3462C48.6929 12.9862 48.5729 13.5128 48.3329 13.9262C48.0929 14.3262 47.8063 14.6395 47.4729 14.8662C47.1529 15.0795 46.8463 15.2328 46.5529 15.3262V15.6862C46.8463 15.7662 47.1663 15.9195 47.5129 16.1462C47.8596 16.3595 48.1529 16.6728 48.3929 17.0862C48.6463 17.4995 48.7729 18.0395 48.7729 18.7062V18.9062C48.7729 19.6795 48.5929 20.3462 48.2329 20.9062C47.8729 21.4528 47.3729 21.8728 46.7329 22.1662C46.1063 22.4595 45.3729 22.6062 44.5329 22.6062H37.2529ZM41.7329 20.2062H44.2129C44.7863 20.2062 45.2463 20.0662 45.5929 19.7862C45.9529 19.5062 46.1329 19.1062 46.1329 18.5862V18.3862C46.1329 17.8662 45.9596 17.4662 45.6129 17.1862C45.2663 16.9062 44.7996 16.7662 44.2129 16.7662H41.7329V20.2062ZM41.7329 14.3662H44.1729C44.7196 14.3662 45.1663 14.2262 45.5129 13.9462C45.8729 13.6662 46.0529 13.2795 46.0529 12.7862V12.5862C46.0529 12.0795 45.8796 11.6928 45.5329 11.4262C45.1863 11.1462 44.7329 11.0062 44.1729 11.0062H41.7329V14.3662Z" fill="#101828"/>
<path d="M54.7342 22.8862C53.7475 22.8862 52.8608 22.6862 52.0742 22.2862C51.2875 21.8862 50.6675 21.3062 50.2142 20.5462C49.7608 19.7862 49.5342 18.8728 49.5342 17.8062V17.4862C49.5342 16.4195 49.7608 15.5062 50.2142 14.7462C50.6675 13.9862 51.2875 13.4062 52.0742 13.0062C52.8608 12.6062 53.7475 12.4062 54.7342 12.4062C55.7208 12.4062 56.6075 12.6062 57.3942 13.0062C58.1808 13.4062 58.8008 13.9862 59.2542 14.7462C59.7075 15.5062 59.9342 16.4195 59.9342 17.4862V17.8062C59.9342 18.8728 59.7075 19.7862 59.2542 20.5462C58.8008 21.3062 58.1808 21.8862 57.3942 22.2862C56.6075 22.6862 55.7208 22.8862 54.7342 22.8862ZM54.7342 20.6462C55.5075 20.6462 56.1475 20.3995 56.6542 19.9062C57.1608 19.3995 57.4142 18.6795 57.4142 17.7462V17.5462C57.4142 16.6128 57.1608 15.8995 56.6542 15.4062C56.1608 14.8995 55.5208 14.6462 54.7342 14.6462C53.9608 14.6462 53.3208 14.8995 52.8142 15.4062C52.3075 15.8995 52.0542 16.6128 52.0542 17.5462V17.7462C52.0542 18.6795 52.3075 19.3995 52.8142 19.9062C53.3208 20.3995 53.9608 20.6462 54.7342 20.6462Z" fill="#101828"/>
<path d="M61.2603 22.6062V8.60617H63.7803V22.6062H61.2603Z" fill="#101828"/>
<path d="M69.3728 22.6062C68.7194 22.6062 68.1861 22.4062 67.7728 22.0062C67.3728 21.5928 67.1728 21.0462 67.1728 20.3662V14.7662H64.6928V12.6862H67.1728V9.60617H69.6928V12.6862H72.4128V14.7662H69.6928V19.9262C69.6928 20.3262 69.8794 20.5262 70.2528 20.5262H72.1728V22.6062H69.3728Z" fill="#101828"/>
<path d="M77.8139 22.8862C76.5205 22.8862 75.4605 22.6062 74.6339 22.0462C73.8072 21.4862 73.3072 20.6862 73.1339 19.6462L75.4539 19.0462C75.5472 19.5128 75.7005 19.8795 75.9139 20.1462C76.1405 20.4128 76.4139 20.6062 76.7339 20.7262C77.0672 20.8328 77.4272 20.8862 77.8139 20.8862C78.4005 20.8862 78.8339 20.7862 79.1139 20.5862C79.3939 20.3728 79.5339 20.1128 79.5339 19.8062C79.5339 19.4995 79.4005 19.2662 79.1339 19.1062C78.8672 18.9328 78.4405 18.7928 77.8539 18.6862L77.2939 18.5862C76.6005 18.4528 75.9672 18.2728 75.3939 18.0462C74.8205 17.8062 74.3605 17.4795 74.0139 17.0662C73.6672 16.6528 73.4939 16.1195 73.4939 15.4662C73.4939 14.4795 73.8539 13.7262 74.5739 13.2062C75.2939 12.6728 76.2405 12.4062 77.4139 12.4062C78.5205 12.4062 79.4405 12.6528 80.1739 13.1462C80.9072 13.6395 81.3872 14.2862 81.6139 15.0862L79.2739 15.8062C79.1672 15.2995 78.9472 14.9395 78.6139 14.7262C78.2939 14.5128 77.8939 14.4062 77.4139 14.4062C76.9339 14.4062 76.5672 14.4928 76.3139 14.6662C76.0605 14.8262 75.9339 15.0528 75.9339 15.3462C75.9339 15.6662 76.0672 15.9062 76.3339 16.0662C76.6005 16.2128 76.9605 16.3262 77.4139 16.4062L77.9739 16.5062C78.7205 16.6395 79.3939 16.8195 79.9939 17.0462C80.6072 17.2595 81.0872 17.5728 81.4339 17.9862C81.7939 18.3862 81.9739 18.9328 81.9739 19.6262C81.9739 20.6662 81.5939 21.4728 80.8339 22.0462C80.0872 22.6062 79.0805 22.8862 77.8139 22.8862Z" fill="#101828"/>
<path d="M83.1821 22.6062V8.60617H85.7021V13.9062H86.0621C86.1688 13.6928 86.3355 13.4795 86.5621 13.2662C86.7888 13.0528 87.0888 12.8795 87.4621 12.7462C87.8488 12.5995 88.3355 12.5262 88.9221 12.5262C89.6955 12.5262 90.3688 12.7062 90.9421 13.0662C91.5288 13.4128 91.9821 13.8995 92.3021 14.5262C92.6221 15.1395 92.7821 15.8595 92.7821 16.6862V22.6062H90.2621V16.8862C90.2621 16.1395 90.0755 15.5795 89.7021 15.2062C89.3421 14.8328 88.8221 14.6462 88.1421 14.6462C87.3688 14.6462 86.7688 14.9062 86.3421 15.4262C85.9155 15.9328 85.7021 16.6462 85.7021 17.5662V22.6062H83.1821Z" fill="#101828"/>
<path d="M94.5064 22.6062V12.6862H97.0264V22.6062H94.5064ZM95.7664 11.5262C95.313 11.5262 94.9264 11.3795 94.6064 11.0862C94.2997 10.7928 94.1464 10.4062 94.1464 9.92617C94.1464 9.44617 94.2997 9.05951 94.6064 8.76617C94.9264 8.47284 95.313 8.32617 95.7664 8.32617C96.233 8.32617 96.6197 8.47284 96.9264 8.76617C97.233 9.05951 97.3864 9.44617 97.3864 9.92617C97.3864 10.4062 97.233 10.7928 96.9264 11.0862C96.6197 11.3795 96.233 11.5262 95.7664 11.5262Z" fill="#101828"/>
<path d="M100.459 22.6062V14.7662H97.9389V12.6862H100.459V10.8462C100.459 10.1662 100.659 9.62617 101.059 9.22617C101.472 8.81284 102.006 8.60617 102.659 8.60617H105.259V10.6862H103.539C103.166 10.6862 102.979 10.8862 102.979 11.2862V12.6862H105.579V14.7662H102.979V22.6062H100.459Z" fill="#101828"/>
<path d="M110.134 22.6062C109.481 22.6062 108.948 22.4062 108.534 22.0062C108.134 21.5928 107.934 21.0462 107.934 20.3662V14.7662H105.454V12.6862H107.934V9.60617H110.454V12.6862H113.174V14.7662H110.454V19.9262C110.454 20.3262 110.641 20.5262 111.014 20.5262H112.934V22.6062H110.134Z" fill="#101828"/>
</svg>
