<svg width="111" height="32" viewBox="0 0 111 32" fill="none" xmlns="http://www.w3.org/2000/svg">
<path d="M27.8333 16.1664C27.8333 23.4382 21.9384 29.3331 14.6667 29.3331C7.39492 29.3331 1.5 23.4382 1.5 16.1664C1.5 8.89467 7.39492 2.99976 14.6667 2.99976C21.9384 2.99976 27.8333 8.89467 27.8333 16.1664Z" stroke="#6927DA" stroke-width="3"/>
<path d="M19.7341 21.2342C17.0267 23.9417 13.9765 25.6905 11.293 26.3806C8.57176 27.0803 6.52157 26.6421 5.3563 25.4769C4.19103 24.3116 3.75287 22.2614 4.45261 19.5402C5.14265 16.8567 6.89147 13.8065 9.59894 11.099C12.3064 8.39157 15.3566 6.64275 18.0401 5.95271C20.7613 5.25297 22.8115 5.69113 23.9768 6.8564C25.142 8.02167 25.5802 10.0719 24.8805 12.7931C24.1904 15.4766 22.4416 18.5268 19.7341 21.2342Z" stroke="#6927DA" stroke-width="3"/>
<path d="M19.7337 11.0989C22.4412 13.8063 24.19 16.8565 24.8801 19.54C25.5798 22.2612 25.1417 24.3114 23.9764 25.4767C22.8111 26.642 20.7609 27.0801 18.0397 26.3804C15.3562 25.6904 12.306 23.9415 9.59855 21.2341C6.89108 18.5266 5.14226 15.4764 4.45222 12.7929C3.75248 10.0717 4.19064 8.0215 5.35591 6.85623C6.52118 5.69096 8.57138 5.2528 11.2926 5.95254C13.9761 6.64258 17.0263 8.3914 19.7337 11.0989Z" stroke="#6927DA" stroke-width="3"/>
<path d="M41.9005 22.8268C45.0405 22.8268 47.1605 21.1868 47.1605 18.5668C47.1605 13.0268 39.8005 15.3868 39.8005 12.4668C39.8005 11.6468 40.5405 11.0868 41.7205 11.0868C43.0605 11.0868 43.9005 11.8068 44.0005 12.9068H46.8605C46.7805 10.2468 44.7405 8.50679 41.7205 8.50679C38.8805 8.50679 36.8805 10.1468 36.8805 12.4668C36.8805 17.9668 44.1405 15.8668 44.1405 18.6068C44.1405 19.6668 43.2405 20.2268 41.9005 20.2268C40.4205 20.2268 39.4805 19.3268 39.3605 17.9068H36.4805C36.6005 20.8868 38.7205 22.8268 41.9005 22.8268Z" fill="#101828"/>
<path d="M47.8406 26.7468H50.6206V21.7668C51.1606 22.4468 52.1406 22.8268 53.2806 22.8268C56.1806 22.8268 58.1406 20.7668 58.1406 17.6268C58.1406 14.4868 56.3406 12.4268 53.5206 12.4268C52.2206 12.4268 51.2206 12.9068 50.6206 13.6868V12.5868H47.8406V26.7468ZM52.9406 20.4268C51.4406 20.4268 50.4606 19.3068 50.4606 17.6268C50.4606 15.9268 51.4406 14.8068 52.9406 14.8068C54.4006 14.8068 55.4006 15.9268 55.4006 17.6268C55.4006 19.3068 54.4006 20.4268 52.9406 20.4268Z" fill="#101828"/>
<path d="M58.8133 22.6668H61.5933V17.1468C61.5933 15.8468 62.4533 14.9068 63.6733 14.9068C64.8333 14.9068 65.6333 15.7868 65.6333 17.0068V22.6668H68.4133V16.3868C68.4133 14.0668 66.9333 12.4268 64.6733 12.4268C63.2733 12.4268 62.1733 13.0068 61.5933 13.9868V8.20679H58.8133V22.6668Z" fill="#101828"/>
<path d="M76.1902 19.2468C75.9702 20.1068 75.2302 20.5468 74.1102 20.5468C72.7102 20.5468 71.8102 19.6668 71.6102 18.2468H78.8502C78.8702 18.0268 78.8902 17.7268 78.8902 17.3468C78.8902 15.0468 77.4702 12.4268 73.9102 12.4268C70.4902 12.4268 68.9302 15.0468 68.9302 17.6068C68.9302 20.1468 70.6902 22.8268 74.1102 22.8268C76.5902 22.8268 78.5102 21.4268 78.9102 19.2468H76.1902ZM73.9102 14.4668C75.2502 14.4668 76.0302 15.3668 76.1102 16.4868H71.6502C71.8902 15.0868 72.6502 14.4668 73.9102 14.4668Z" fill="#101828"/>
<path d="M86.1811 14.9068V12.5868H84.7467C83.5267 12.5868 82.7667 13.0068 82.2267 14.2668V12.5868H79.4267V22.6668H82.2267V17.7668C82.2267 16.0468 82.8467 14.9068 84.2267 14.9068H86.1811Z" fill="#101828"/>
<path d="M95.7811 12.5868H92.9811V18.1068C92.9811 19.3868 92.1211 20.3468 90.9011 20.3468C89.7611 20.3468 88.9611 19.4668 88.9611 18.2468V12.5868H86.1811V18.8668C86.1811 21.1668 87.6611 22.8268 89.9211 22.8268C91.3011 22.8268 92.4211 22.2268 92.9811 21.2668V22.6668H95.7811V12.5868Z" fill="#101828"/>
<path d="M96.9813 22.6668H99.7613V8.20679H96.9813V22.6668Z" fill="#101828"/>
<path d="M107.698 19.2468C107.478 20.1068 106.738 20.5468 105.618 20.5468C104.218 20.5468 103.318 19.6668 103.118 18.2468H110.358C110.378 18.0268 110.398 17.7268 110.398 17.3468C110.398 15.0468 108.978 12.4268 105.418 12.4268C101.998 12.4268 100.438 15.0468 100.438 17.6068C100.438 20.1468 102.198 22.8268 105.618 22.8268C108.098 22.8268 110.018 21.4268 110.418 19.2468H107.698ZM105.418 14.4668C106.758 14.4668 107.538 15.3668 107.618 16.4868H103.158C103.398 15.0868 104.158 14.4668 105.418 14.4668Z" fill="#101828"/>
</svg>
