<svg width="132" height="32" viewBox="0 0 132 32" fill="none" xmlns="http://www.w3.org/2000/svg">
<path d="M24.2042 7.44189C23.916 7.15374 23.6279 6.8656 23.3397 6.57745C22.4753 5.65538 21.5532 4.73331 20.4006 4.15702C19.0752 3.46547 17.6344 3.63835 16.1937 3.63835C14.0038 3.63835 8.529 3.63835 5.30176 3.63835L7.49167 6.57745C11.4681 6.57745 17.6921 6.57745 20.5735 6.57745C21.7838 6.57745 22.8211 6.80797 23.8008 7.44189C23.9737 7.49952 24.1466 7.49952 24.2042 7.44189Z" fill="#66C61C"/>
<path d="M26.6248 12.1677C26.3367 11.8796 26.0485 11.5914 25.7604 11.3033C24.8959 10.3812 23.9739 9.45914 22.8213 8.88284C21.4958 8.19129 20.0551 8.36418 18.6143 8.36418C16.7126 8.36418 12.1599 8.36418 8.93262 8.36418L11.1225 11.3033C15.0413 11.3033 20.4009 11.3033 23.0518 11.3033C24.262 11.3033 25.2994 11.5338 26.2791 12.1677C26.3943 12.2253 26.5096 12.2253 26.6248 12.1677Z" fill="#4CA30D"/>
<path d="M29.3336 16.7778C29.0455 16.4897 28.7573 16.2015 28.4692 15.9134C27.6048 14.9913 26.6827 14.0692 25.5301 13.4929C24.2046 12.8014 22.7639 12.9743 21.3232 12.9743C19.5366 12.9743 15.6179 12.9743 12.4482 12.9743L14.6382 15.9134C18.4417 15.9134 23.2826 15.9134 25.703 15.9134C26.9132 15.9134 27.9505 16.1439 28.9302 16.7778C29.1031 16.8355 29.2184 16.8931 29.3336 16.7778Z" fill="#3B7C0F"/>
<path d="M5.07129 24.5579C5.35944 24.846 5.64758 25.1342 5.93573 25.4223C6.80017 26.3444 7.72223 27.2664 8.87482 27.8427C10.2003 28.5343 11.641 28.3614 13.0818 28.3614H23.9737L21.7838 25.4223C17.8074 25.4223 11.5834 25.4223 8.70194 25.4223C7.49172 25.4223 6.45439 25.1918 5.47469 24.5579C5.3018 24.5002 5.18655 24.5002 5.07129 24.5579Z" fill="#66C61C"/>
<path d="M2.65137 19.8323C2.93951 20.1204 3.22766 20.4086 3.51581 20.6967C4.38025 21.6188 5.30231 22.5409 6.4549 23.1172C7.78037 23.8087 9.22111 23.6358 10.6618 23.6358H20.3436L18.1537 20.6967C14.2349 20.6967 8.87533 20.6967 6.22438 20.6967C5.01417 20.6967 3.97684 20.4662 2.99714 19.8323C2.88188 19.7747 2.76663 19.7747 2.65137 19.8323Z" fill="#4CA30D"/>
<path d="M0 15.1643C0.288147 15.4525 0.576293 15.7406 0.86444 16.0288C1.72888 16.9508 2.65095 17.8729 3.80354 18.4492C5.12902 19.1407 6.56974 18.9679 8.01048 18.9679H16.8854L14.6955 16.0288C10.8919 16.0288 6.05108 16.0288 3.63065 16.0288C2.42043 16.0288 1.3831 15.7982 0.403404 15.1643C0.230516 15.1067 0.115259 15.1067 0 15.1643Z" fill="#3B7C0F"/>
<path d="M35.9551 9.33862V22.6666H38.8857V17.16H44.4671V14.8826H38.8857V11.8026H45.3257V9.33862H35.9551Z" fill="#101828"/>
<path d="M52.6762 16.8053H48.3642C48.3766 16.6186 48.414 16.4071 48.4762 16.1706C48.5508 15.9342 48.6691 15.7102 48.8308 15.4986C49.0051 15.2871 49.2291 15.1128 49.5028 14.976C49.7891 14.8266 50.1437 14.752 50.5668 14.752C51.214 14.752 51.6931 14.9262 52.0042 15.2746C52.3277 15.6231 52.5517 16.1333 52.6762 16.8053ZM48.3642 18.4853H55.3268C55.3766 17.7386 55.3144 17.0231 55.1402 16.3386C54.966 15.6542 54.6797 15.0444 54.2815 14.5093C53.8957 13.9742 53.398 13.5511 52.7882 13.24C52.1784 12.9164 51.4628 12.7546 50.6415 12.7546C49.9073 12.7546 49.2353 12.8853 48.6255 13.1466C48.0282 13.408 47.5117 13.7688 47.0762 14.2293C46.6406 14.6773 46.3046 15.2124 46.0682 15.8346C45.8317 16.4568 45.7135 17.1288 45.7135 17.8506C45.7135 18.5973 45.8255 19.2817 46.0495 19.904C46.286 20.5262 46.6157 21.0613 47.0388 21.5093C47.462 21.9573 47.9784 22.3057 48.5882 22.5546C49.198 22.7911 49.8824 22.9093 50.6415 22.9093C51.7366 22.9093 52.67 22.6604 53.4415 22.1626C54.2131 21.6648 54.7855 20.8373 55.1588 19.68H52.8255C52.7384 19.9786 52.502 20.2648 52.1162 20.5386C51.7304 20.8 51.27 20.9306 50.7348 20.9306C49.9882 20.9306 49.4157 20.7377 49.0175 20.352C48.6193 19.9662 48.4015 19.344 48.3642 18.4853Z" fill="#101828"/>
<path d="M56.2269 15.984C56.2643 15.3617 56.4198 14.8453 56.6936 14.4346C56.9674 14.024 57.3158 13.6942 57.7389 13.4453C58.162 13.1964 58.6349 13.0222 59.1576 12.9226C59.6927 12.8106 60.2278 12.7546 60.7629 12.7546C61.2483 12.7546 61.7398 12.792 62.2376 12.8666C62.7354 12.9288 63.1896 13.0595 63.6003 13.2586C64.0109 13.4577 64.3469 13.7377 64.6083 14.0986C64.8696 14.4471 65.0003 14.9137 65.0003 15.4986V20.52C65.0003 20.9555 65.0252 21.3724 65.0749 21.7706C65.1247 22.1688 65.2118 22.4675 65.3363 22.6666H62.6483C62.5985 22.5173 62.5549 22.368 62.5176 22.2186C62.4927 22.0568 62.474 21.8951 62.4616 21.7333C62.0385 22.1688 61.5407 22.4737 60.9683 22.648C60.3958 22.8222 59.8109 22.9093 59.2136 22.9093C58.7532 22.9093 58.3238 22.8533 57.9256 22.7413C57.5274 22.6293 57.1789 22.4551 56.8803 22.2186C56.5816 21.9822 56.3452 21.6835 56.1709 21.3226C56.0092 20.9617 55.9283 20.5324 55.9283 20.0346C55.9283 19.4871 56.0216 19.0391 56.2083 18.6906C56.4074 18.3297 56.6563 18.0435 56.9549 17.832C57.266 17.6204 57.6145 17.4648 58.0003 17.3653C58.3985 17.2533 58.7967 17.1662 59.1949 17.104C59.5932 17.0417 59.9852 16.992 60.3709 16.9546C60.7567 16.9173 61.0989 16.8613 61.3976 16.7866C61.6963 16.712 61.9327 16.6062 62.1069 16.4693C62.2812 16.32 62.362 16.1084 62.3496 15.8346C62.3496 15.5484 62.2998 15.3244 62.2003 15.1626C62.1132 14.9884 61.9887 14.8577 61.8269 14.7706C61.6776 14.6711 61.4972 14.6088 61.2856 14.584C61.0865 14.5466 60.8687 14.528 60.6323 14.528C60.1096 14.528 59.6989 14.64 59.4003 14.864C59.1016 15.088 58.9274 15.4613 58.8776 15.984H56.2269ZM62.3496 17.944C62.2376 18.0435 62.0945 18.1244 61.9203 18.1866C61.7585 18.2364 61.578 18.28 61.3789 18.3173C61.1923 18.3546 60.9932 18.3857 60.7816 18.4106C60.57 18.4355 60.3585 18.4666 60.1469 18.504C59.9478 18.5413 59.7487 18.5911 59.5496 18.6533C59.3629 18.7155 59.1949 18.8026 59.0456 18.9146C58.9087 19.0142 58.7967 19.1448 58.7096 19.3066C58.6225 19.4684 58.5789 19.6737 58.5789 19.9226C58.5789 20.1591 58.6225 20.3582 58.7096 20.52C58.7967 20.6817 58.9149 20.8124 59.0643 20.912C59.2136 20.9991 59.3878 21.0613 59.5869 21.0986C59.786 21.136 59.9914 21.1546 60.2029 21.1546C60.7256 21.1546 61.13 21.0675 61.4163 20.8933C61.7025 20.7191 61.914 20.5137 62.0509 20.2773C62.1878 20.0284 62.2687 19.7795 62.2936 19.5306C62.3309 19.2817 62.3496 19.0826 62.3496 18.9333V17.944Z" fill="#101828"/>
<path d="M69.8577 13.016V10.1226H67.207V13.016H65.6017V14.7893H67.207V20.4826C67.207 20.968 67.2879 21.36 67.4497 21.6586C67.6115 21.9573 67.8292 22.1875 68.103 22.3493C68.3892 22.5111 68.7128 22.6168 69.0737 22.6666C69.447 22.7288 69.839 22.76 70.2497 22.76C70.511 22.76 70.7786 22.7537 71.0524 22.7413C71.3261 22.7288 71.575 22.704 71.799 22.6666V20.6133C71.6746 20.6382 71.5439 20.6568 71.407 20.6693C71.2701 20.6817 71.127 20.688 70.9777 20.688C70.5297 20.688 70.231 20.6133 70.0817 20.464C69.9324 20.3146 69.8577 20.016 69.8577 19.568V14.7893H71.799V13.016H69.8577Z" fill="#101828"/>
<path d="M72.5002 9.33862V22.6666H75.1508V17.608C75.1508 16.6248 75.3126 15.9217 75.6362 15.4986C75.9597 15.0631 76.4824 14.8453 77.2042 14.8453C77.8389 14.8453 78.2806 15.0444 78.5295 15.4426C78.7784 15.8284 78.9028 16.4195 78.9028 17.216V22.6666H81.5535V16.7306C81.5535 16.1333 81.4975 15.592 81.3855 15.1066C81.286 14.6088 81.1055 14.192 80.8442 13.856C80.5828 13.5075 80.222 13.24 79.7615 13.0533C79.3135 12.8542 78.7349 12.7546 78.0255 12.7546C77.5277 12.7546 77.0175 12.8853 76.4949 13.1466C75.9722 13.3955 75.5428 13.8 75.2068 14.36H75.1508V9.33862H72.5002Z" fill="#101828"/>
<path d="M89.5013 16.8053H85.1893C85.2017 16.6186 85.2391 16.4071 85.3013 16.1706C85.376 15.9342 85.4942 15.7102 85.656 15.4986C85.8302 15.2871 86.0542 15.1128 86.328 14.976C86.6142 14.8266 86.9688 14.752 87.392 14.752C88.0391 14.752 88.5182 14.9262 88.8293 15.2746C89.1528 15.6231 89.3768 16.1333 89.5013 16.8053ZM85.1893 18.4853H92.152C92.2017 17.7386 92.1395 17.0231 91.9653 16.3386C91.7911 15.6542 91.5048 15.0444 91.1066 14.5093C90.7208 13.9742 90.2231 13.5511 89.6133 13.24C89.0035 12.9164 88.288 12.7546 87.4666 12.7546C86.7324 12.7546 86.0604 12.8853 85.4506 13.1466C84.8533 13.408 84.3368 13.7688 83.9013 14.2293C83.4657 14.6773 83.1297 15.2124 82.8933 15.8346C82.6568 16.4568 82.5386 17.1288 82.5386 17.8506C82.5386 18.5973 82.6506 19.2817 82.8746 19.904C83.1111 20.5262 83.4408 21.0613 83.864 21.5093C84.2871 21.9573 84.8035 22.3057 85.4133 22.5546C86.0231 22.7911 86.7075 22.9093 87.4666 22.9093C88.5617 22.9093 89.4951 22.6604 90.2666 22.1626C91.0382 21.6648 91.6106 20.8373 91.984 19.68H89.6506C89.5635 19.9786 89.3271 20.2648 88.9413 20.5386C88.5555 20.8 88.0951 20.9306 87.56 20.9306C86.8133 20.9306 86.2408 20.7377 85.8426 20.352C85.4444 19.9662 85.2266 19.344 85.1893 18.4853Z" fill="#101828"/>
<path d="M93.164 13.016V22.6666H95.8147V18.3173C95.8147 17.8817 95.8583 17.4773 95.9454 17.104C96.0325 16.7306 96.1756 16.4071 96.3747 16.1333C96.5863 15.8471 96.86 15.6231 97.196 15.4613C97.532 15.2995 97.9427 15.2186 98.428 15.2186C98.5898 15.2186 98.7578 15.2311 98.932 15.256C99.1063 15.2684 99.2556 15.2871 99.38 15.312V12.848C99.1685 12.7857 98.9756 12.7546 98.8014 12.7546C98.4654 12.7546 98.1418 12.8044 97.8307 12.904C97.5196 13.0035 97.2271 13.1466 96.9534 13.3333C96.6796 13.5075 96.4369 13.7253 96.2254 13.9866C96.0138 14.2355 95.8458 14.5093 95.7214 14.808H95.684V13.016H93.164Z" fill="#101828"/>
<path d="M103.07 20.2026V11.8026H105.161C105.882 11.8026 106.486 11.9084 106.971 12.12C107.469 12.3191 107.867 12.6115 108.166 12.9973C108.465 13.3831 108.676 13.8497 108.801 14.3973C108.937 14.9324 109.006 15.536 109.006 16.208C109.006 16.9422 108.913 17.5644 108.726 18.0746C108.539 18.5848 108.29 19.0017 107.979 19.3253C107.668 19.6364 107.313 19.8604 106.915 19.9973C106.517 20.1342 106.106 20.2026 105.683 20.2026H103.07ZM100.139 9.33862V22.6666H105.889C106.909 22.6666 107.793 22.4986 108.539 22.1626C109.298 21.8142 109.927 21.3413 110.425 20.744C110.935 20.1466 111.314 19.4373 111.563 18.616C111.812 17.7946 111.937 16.8986 111.937 15.928C111.937 14.8204 111.781 13.856 111.47 13.0346C111.171 12.2133 110.748 11.5288 110.201 10.9813C109.665 10.4337 109.025 10.0231 108.278 9.74929C107.544 9.47551 106.747 9.33862 105.889 9.33862H100.139Z" fill="#101828"/>
<path d="M119.631 16.8053H115.319C115.332 16.6186 115.369 16.4071 115.431 16.1706C115.506 15.9342 115.624 15.7102 115.786 15.4986C115.96 15.2871 116.184 15.1128 116.458 14.976C116.744 14.8266 117.099 14.752 117.522 14.752C118.169 14.752 118.648 14.9262 118.959 15.2746C119.283 15.6231 119.507 16.1333 119.631 16.8053ZM115.319 18.4853H122.282C122.332 17.7386 122.269 17.0231 122.095 16.3386C121.921 15.6542 121.635 15.0444 121.237 14.5093C120.851 13.9742 120.353 13.5511 119.743 13.24C119.133 12.9164 118.418 12.7546 117.597 12.7546C116.862 12.7546 116.19 12.8853 115.581 13.1466C114.983 13.408 114.467 13.7688 114.031 14.2293C113.596 14.6773 113.26 15.2124 113.023 15.8346C112.787 16.4568 112.669 17.1288 112.669 17.8506C112.669 18.5973 112.781 19.2817 113.005 19.904C113.241 20.5262 113.571 21.0613 113.994 21.5093C114.417 21.9573 114.933 22.3057 115.543 22.5546C116.153 22.7911 116.837 22.9093 117.597 22.9093C118.692 22.9093 119.625 22.6604 120.397 22.1626C121.168 21.6648 121.741 20.8373 122.114 19.68H119.781C119.693 19.9786 119.457 20.2648 119.071 20.5386C118.685 20.8 118.225 20.9306 117.69 20.9306C116.943 20.9306 116.371 20.7377 115.973 20.352C115.574 19.9662 115.357 19.344 115.319 18.4853Z" fill="#101828"/>
<path d="M128.633 22.6666L131.899 13.016H129.267L127.233 19.6053H127.195L125.161 13.016H122.379L125.683 22.6666H128.633Z" fill="#101828"/>
</svg>
