<svg width="112" height="32" viewBox="0 0 112 32" fill="none" xmlns="http://www.w3.org/2000/svg">
<path fill-rule="evenodd" clip-rule="evenodd" d="M13.844 2.29852C13.5073 2.22927 13.16 2.22927 12.8233 2.29852C12.4341 2.37856 12.0863 2.5734 11.8097 2.7283L11.7343 2.77041L2.36135 7.97763C2.33543 7.99203 2.30873 8.00673 2.28137 8.0218C1.98861 8.18305 1.62052 8.3858 1.33784 8.69255C1.09344 8.95775 0.90849 9.27208 0.795349 9.61452C0.664486 10.0106 0.666017 10.4308 0.667234 10.7651C0.667348 10.7963 0.667459 10.8268 0.667459 10.8564V21.1377C0.667459 21.1673 0.667348 21.1978 0.667234 21.2291C0.666017 21.5633 0.664486 21.9835 0.795349 22.3796C0.90849 22.722 1.09344 23.0364 1.33784 23.3016C1.62052 23.6083 1.98862 23.8111 2.28137 23.9723C2.30873 23.9874 2.33543 24.0021 2.36135 24.0165L11.7343 29.2237L11.8097 29.2658C12.0863 29.4207 12.4341 29.6156 12.8233 29.6956C13.16 29.7648 13.5073 29.7648 13.844 29.6956C14.2332 29.6156 14.581 29.4207 14.8576 29.2658L14.933 29.2237L24.306 24.0165C24.3174 24.0101 24.329 24.0037 24.3408 23.9972C24.3556 23.989 24.3707 23.9807 24.3859 23.9723C24.6787 23.8111 25.0468 23.6083 25.3295 23.3016C25.5739 23.0364 25.7588 22.722 25.872 22.3796C26.0028 21.9835 26.0013 21.5633 26.0001 21.2291C26 21.1978 25.9999 21.1673 25.9999 21.1377V10.8564C25.9999 10.8268 26 10.7963 26.0001 10.7651C26.0013 10.4308 26.0028 10.0106 25.872 9.61451C25.7588 9.27208 25.5739 8.95775 25.3295 8.69254C25.0468 8.3858 24.6787 8.18305 24.3859 8.0218L24.3849 8.02123C24.3579 8.00636 24.3316 7.99184 24.306 7.97763L14.933 2.77041L14.8576 2.7283C14.581 2.5734 14.2332 2.37856 13.844 2.29852ZM12.9646 4.98486C13.1565 4.87823 13.2545 4.82435 13.3276 4.78909L13.3337 4.78619L13.3397 4.78909C13.4128 4.82435 13.5108 4.87823 13.7027 4.98486L22.1251 9.66393L13.3336 14.5481L4.54222 9.66395L12.9646 4.98486ZM3.2007 11.8166L12.067 16.7423L12.067 26.5106L3.5916 21.802C3.389 21.6895 3.28556 21.6314 3.21299 21.5852L3.20686 21.5812L3.2064 21.574C3.20123 21.4881 3.2007 21.3695 3.2007 21.1377V11.8166Z" fill="#101828"/>
<path d="M37.5272 20.2302H41.5592V22.6062H34.4492V9.97023H37.5272V20.2302Z" fill="#101828"/>
<path d="M44.3953 11.5182C43.8553 11.5182 43.4113 11.3622 43.0633 11.0502C42.7273 10.7262 42.5593 10.3302 42.5593 9.86223C42.5593 9.38223 42.7273 8.98623 43.0633 8.67423C43.4113 8.35023 43.8553 8.18823 44.3953 8.18823C44.9233 8.18823 45.3553 8.35023 45.6913 8.67423C46.0393 8.98623 46.2133 9.38223 46.2133 9.86223C46.2133 10.3302 46.0393 10.7262 45.6913 11.0502C45.3553 11.3622 44.9233 11.5182 44.3953 11.5182ZM45.9253 12.5622V22.6062H42.8473V12.5622H45.9253Z" fill="#101828"/>
<path d="M51.7919 12.4182C52.4999 12.4182 53.1179 12.5622 53.6459 12.8502C54.1859 13.1382 54.5999 13.5162 54.8879 13.9842V12.5622H57.9659V22.5882C57.9659 23.5122 57.7799 24.3462 57.4079 25.0902C57.0479 25.8462 56.4899 26.4462 55.7339 26.8902C54.9899 27.3342 54.0599 27.5562 52.9439 27.5562C51.4559 27.5562 50.2499 27.2022 49.3259 26.4942C48.4019 25.7982 47.8739 24.8502 47.7419 23.6502H50.7839C50.8799 24.0342 51.1079 24.3342 51.4679 24.5502C51.8279 24.7782 52.2719 24.8922 52.7999 24.8922C53.4359 24.8922 53.9399 24.7062 54.3119 24.3342C54.6959 23.9742 54.8879 23.3922 54.8879 22.5882V21.1662C54.5879 21.6342 54.1739 22.0182 53.6459 22.3182C53.1179 22.6062 52.4999 22.7502 51.7919 22.7502C50.9639 22.7502 50.2139 22.5402 49.5419 22.1202C48.8699 21.6882 48.3359 21.0822 47.9399 20.3022C47.5559 19.5102 47.3639 18.5982 47.3639 17.5662C47.3639 16.5342 47.5559 15.6282 47.9399 14.8482C48.3359 14.0682 48.8699 13.4682 49.5419 13.0482C50.2139 12.6282 50.9639 12.4182 51.7919 12.4182ZM54.8879 17.5842C54.8879 16.8162 54.6719 16.2102 54.2399 15.7662C53.8199 15.3222 53.3039 15.1002 52.6919 15.1002C52.0799 15.1002 51.5579 15.3222 51.1259 15.7662C50.7059 16.1982 50.4959 16.7982 50.4959 17.5662C50.4959 18.3342 50.7059 18.9462 51.1259 19.4022C51.5579 19.8462 52.0799 20.0682 52.6919 20.0682C53.3039 20.0682 53.8199 19.8462 54.2399 19.4022C54.6719 18.9582 54.8879 18.3522 54.8879 17.5842Z" fill="#101828"/>
<path d="M66.1867 12.4542C67.3387 12.4542 68.2627 12.8382 68.9587 13.6062C69.6547 14.3622 70.0027 15.4062 70.0027 16.7382V22.6062H66.9427V17.1522C66.9427 16.4802 66.7687 15.9582 66.4207 15.5862C66.0727 15.2142 65.6047 15.0282 65.0167 15.0282C64.4287 15.0282 63.9607 15.2142 63.6127 15.5862C63.2647 15.9582 63.0907 16.4802 63.0907 17.1522V22.6062H60.0127V9.28623H63.0907V13.9122C63.4027 13.4682 63.8287 13.1142 64.3687 12.8502C64.9087 12.5862 65.5147 12.4542 66.1867 12.4542Z" fill="#101828"/>
<path d="M77.5596 19.9962V22.6062H75.9936C74.8776 22.6062 74.0076 22.3362 73.3836 21.7962C72.7596 21.2442 72.4476 20.3502 72.4476 19.1142V15.1182H71.2236V12.5622H72.4476V10.1142H75.5256V12.5622H77.5416V15.1182H75.5256V19.1502C75.5256 19.4502 75.5976 19.6662 75.7416 19.7982C75.8856 19.9302 76.1256 19.9962 76.4616 19.9962H77.5596Z" fill="#101828"/>
<path d="M82.1721 13.9842C82.4601 13.5162 82.8741 13.1382 83.4141 12.8502C83.9541 12.5622 84.5721 12.4182 85.2681 12.4182C86.0961 12.4182 86.8461 12.6282 87.5181 13.0482C88.1901 13.4682 88.7181 14.0682 89.1021 14.8482C89.4981 15.6282 89.6961 16.5342 89.6961 17.5662C89.6961 18.5982 89.4981 19.5102 89.1021 20.3022C88.7181 21.0822 88.1901 21.6882 87.5181 22.1202C86.8461 22.5402 86.0961 22.7502 85.2681 22.7502C84.5601 22.7502 83.9421 22.6122 83.4141 22.3362C82.8861 22.0482 82.4721 21.6702 82.1721 21.2022V22.6062H79.0941V9.28623H82.1721V13.9842ZM86.5641 17.5662C86.5641 16.7982 86.3481 16.1982 85.9161 15.7662C85.4961 15.3222 84.9741 15.1002 84.3501 15.1002C83.7381 15.1002 83.2161 15.3222 82.7841 15.7662C82.3641 16.2102 82.1541 16.8162 82.1541 17.5842C82.1541 18.3522 82.3641 18.9582 82.7841 19.4022C83.2161 19.8462 83.7381 20.0682 84.3501 20.0682C84.9621 20.0682 85.4841 19.8462 85.9161 19.4022C86.3481 18.9462 86.5641 18.3342 86.5641 17.5662Z" fill="#101828"/>
<path d="M95.7029 22.7502C94.7189 22.7502 93.8309 22.5402 93.0389 22.1202C92.2589 21.7002 91.6409 21.1002 91.1849 20.3202C90.7409 19.5402 90.5189 18.6282 90.5189 17.5842C90.5189 16.5522 90.7469 15.6462 91.2029 14.8662C91.6589 14.0742 92.2829 13.4682 93.0749 13.0482C93.8669 12.6282 94.7549 12.4182 95.7389 12.4182C96.7229 12.4182 97.6109 12.6282 98.4029 13.0482C99.1949 13.4682 99.8189 14.0742 100.275 14.8662C100.731 15.6462 100.959 16.5522 100.959 17.5842C100.959 18.6162 100.725 19.5282 100.257 20.3202C99.8009 21.1002 99.1709 21.7002 98.3669 22.1202C97.5749 22.5402 96.6869 22.7502 95.7029 22.7502ZM95.7029 20.0862C96.2909 20.0862 96.7889 19.8702 97.1969 19.4382C97.6169 19.0062 97.8269 18.3882 97.8269 17.5842C97.8269 16.7802 97.6229 16.1622 97.2149 15.7302C96.8189 15.2982 96.3269 15.0822 95.7389 15.0822C95.1389 15.0822 94.6409 15.2982 94.2449 15.7302C93.8489 16.1502 93.6509 16.7682 93.6509 17.5842C93.6509 18.3882 93.8429 19.0062 94.2269 19.4382C94.6229 19.8702 95.1149 20.0862 95.7029 20.0862Z" fill="#101828"/>
<path d="M108.352 22.6062L106.426 19.8162L104.806 22.6062H101.476L104.788 17.4762L101.386 12.5622H104.842L106.768 15.3342L108.388 12.5622H111.718L108.352 17.6202L111.808 22.6062H108.352Z" fill="#101828"/>
</svg>
