<svg width="122" height="32" viewBox="0 0 122 32" fill="none" xmlns="http://www.w3.org/2000/svg">
<g clip-path="url(#clip0_108_475)">
<path d="M18.1799 2.74763L15.3661 1.99365L12.9948 10.8434L10.8539 2.85379L8.04002 3.60777L10.3531 12.24L4.59182 6.47878L2.53191 8.53868L8.85127 14.8581L0.981518 12.7494L0.227539 15.5632L8.82622 17.8673C8.72778 17.4426 8.67569 17.0002 8.67569 16.5456C8.67569 13.3278 11.2842 10.7193 14.502 10.7193C17.7198 10.7193 20.3283 13.3278 20.3283 16.5456C20.3283 16.9973 20.2769 17.437 20.1797 17.8591L27.9943 19.953L28.7482 17.1391L20.1153 14.826L27.9856 12.7171L27.2316 9.90326L18.5991 12.2163L24.3603 6.45512L22.3004 4.39521L16.0687 10.6269L18.1799 2.74763Z" fill="#FF4405"/>
<path d="M20.1714 17.8919C19.9302 18.9118 19.4209 19.8281 18.722 20.5622L24.3833 26.2236L26.4433 24.1637L20.1714 17.8919Z" fill="#FF4405"/>
<path d="M18.6649 20.6214C17.9576 21.3438 17.0638 21.8829 16.0614 22.1607L18.1215 29.8489L20.9353 29.0949L18.6649 20.6214Z" fill="#FF4405"/>
<path d="M15.9563 22.1888C15.4913 22.3084 15.0038 22.3719 14.5015 22.3719C13.9634 22.3719 13.4422 22.2989 12.9475 22.1623L10.8856 29.8575L13.6994 30.6115L15.9563 22.1888Z" fill="#FF4405"/>
<path d="M12.848 22.134C11.861 21.8423 10.983 21.2964 10.2902 20.5719L4.61494 26.2472L6.67485 28.3071L12.848 22.134Z" fill="#FF4405"/>
<path d="M10.2434 20.5218C9.56248 19.7927 9.06646 18.8887 8.83036 17.8845L0.990234 19.9852L1.74421 22.7991L10.2434 20.5218Z" fill="#FF4405"/>
</g>
<path d="M45.6801 8.6062V18.7462L39.1801 8.6062H36.5801V22.6062H39.1801V12.5462L45.6801 22.6062H48.2801V8.6062H45.6801Z" fill="#101828"/>
<path d="M49.4516 11.2262H52.1316V8.6062H49.4516V11.2262ZM49.4916 22.6062V12.6062H52.0916V22.6062H49.4916Z" fill="#101828"/>
<path d="M63.2784 17.6062C63.2784 14.1462 60.8184 12.5062 58.2184 12.4862C55.5984 12.4662 53.1784 14.1462 53.1784 17.6062C53.1784 21.0662 55.5984 22.7462 58.2184 22.7262C60.5984 22.7062 62.2384 21.6062 62.9984 19.7862L60.9784 18.9462C60.3584 20.1862 59.3784 20.6262 58.2184 20.6462C57.2184 20.6662 56.0784 20.1862 55.8384 18.4062H63.2184C63.2584 18.1462 63.2784 17.8862 63.2784 17.6062ZM58.2184 14.5462C59.2184 14.5662 60.2384 15.1062 60.5584 16.5462H55.8784C56.2184 15.0862 57.2384 14.5262 58.2184 14.5462Z" fill="#101828"/>
<path d="M69.2871 14.4662V12.4862H67.6471V9.8062L65.0471 10.6062V12.4862H63.4071V14.4662H65.0471V19.6462C65.0471 21.6062 65.2071 22.6062 68.2471 22.6062H68.9471V20.3262H68.2471C67.7671 20.3262 67.6471 20.2462 67.6471 19.6462V14.4662H69.2871Z" fill="#101828"/>
<path d="M73.1505 20.4262L78.6705 14.7862V12.6062H70.3905V14.7862H75.7505L70.2305 20.4262V22.6062H78.7305V20.4262H73.1505Z" fill="#101828"/>
<path d="M79.6627 19.7862L82.2827 19.3862C82.4627 20.3862 83.6427 20.7662 84.3627 20.7662C85.1027 20.7662 86.3827 20.6062 86.3827 19.4062C86.3827 17.0662 79.9627 19.9862 79.9627 15.5062C79.9627 12.6262 83.3027 12.4662 84.3627 12.4662C85.3627 12.4662 88.2627 12.6262 88.8627 14.9462L86.3827 15.4662C86.1627 14.4062 85.0427 14.2062 84.4427 14.2062C83.8427 14.2062 82.5627 14.3462 82.5627 15.5062C82.5627 17.8262 88.9827 14.8662 88.9827 19.4062C88.9827 22.4662 85.4627 22.7262 84.3627 22.7262C83.3627 22.7262 80.1827 22.4662 79.6627 19.7862Z" fill="#101828"/>
<path d="M92.3604 17.6062C92.3604 20.0462 93.6604 20.7862 95.0204 20.7662C96.2404 20.7462 97.0804 20.2462 97.5804 18.8462L99.7204 19.8862C98.9404 21.9262 97.0404 22.7062 95.0204 22.7262C92.4004 22.7462 89.7604 21.0662 89.7604 17.6062C89.7604 14.1462 92.4004 12.4662 95.0204 12.4862C97.0404 12.5062 98.9404 13.2862 99.7204 15.3262L97.5804 16.3662C97.0804 14.9662 96.2404 14.4662 95.0204 14.4462C93.6604 14.4262 92.3604 15.1662 92.3604 17.6062Z" fill="#101828"/>
<path d="M106.7 12.4462C105.36 12.4462 104.14 13.1462 103.36 14.6462V8.6062H100.76V22.6062H103.36V19.0662C103.36 14.4862 105.26 14.1062 105.96 14.1062C107.08 14.1062 107.24 15.2662 107.24 16.9662V22.6062H109.84V16.9662C109.84 14.8462 109.5 12.4462 106.7 12.4462Z" fill="#101828"/>
<path d="M120.817 17.6062C120.817 14.1462 118.357 12.5062 115.757 12.4862C113.137 12.4662 110.717 14.1462 110.717 17.6062C110.717 21.0662 113.137 22.7462 115.757 22.7262C118.137 22.7062 119.777 21.6062 120.537 19.7862L118.517 18.9462C117.897 20.1862 116.917 20.6262 115.757 20.6462C114.757 20.6662 113.617 20.1862 113.377 18.4062H120.757C120.797 18.1462 120.817 17.8862 120.817 17.6062ZM115.757 14.5462C116.757 14.5662 117.777 15.1062 118.097 16.5462H113.417C113.757 15.0862 114.777 14.5262 115.757 14.5462Z" fill="#101828"/>
<defs>
<clipPath id="clip0_108_475">
<rect width="29.3333" height="29.3333" fill="white" transform="translate(0 1.33325)"/>
</clipPath>
</defs>
</svg>
