<svg width="50" height="51" viewBox="0 0 50 51" fill="none" xmlns="http://www.w3.org/2000/svg">
<path d="M0 25.5C0 39.3071 11.1929 50.5 25 50.5C38.8071 50.5 50 39.3071 50 25.5C50 11.6929 38.8071 0.5 25 0.5C11.1929 0.5 0 11.6929 0 25.5Z" fill="#F00073"/>
<path d="M24.998 14.8755C28.4355 14.8755 28.9043 14.8755 30.3105 14.8755C31.5605 14.8755 32.1855 15.188 32.6543 15.3442C33.2793 15.6567 33.748 15.813 34.2168 16.2817C34.6855 16.7505 34.998 17.2192 35.1543 17.8442C35.3105 18.313 35.4668 18.938 35.623 20.188C35.623 21.5942 35.623 21.9067 35.623 25.5005C35.623 29.0942 35.623 29.4067 35.623 30.813C35.623 32.063 35.3105 32.688 35.1543 33.1567C34.8418 33.7817 34.6855 34.2505 34.2168 34.7192C33.748 35.188 33.2793 35.5005 32.6543 35.6567C32.1855 35.813 31.5605 35.9692 30.3105 36.1255C28.9043 36.1255 28.5918 36.1255 24.998 36.1255C21.4043 36.1255 21.0918 36.1255 19.6855 36.1255C18.4355 36.1255 17.8105 35.813 17.3418 35.6567C16.7168 35.3442 16.248 35.188 15.7793 34.7192C15.3105 34.2505 14.998 33.7817 14.8418 33.1567C14.6855 32.688 14.5293 32.063 14.373 30.813C14.373 29.4067 14.373 29.0942 14.373 25.5005C14.373 21.9067 14.373 21.5942 14.373 20.188C14.373 18.938 14.6855 18.313 14.8418 17.8442C15.1543 17.2192 15.3105 16.7505 15.7793 16.2817C16.248 15.813 16.7168 15.5005 17.3418 15.3442C17.8105 15.188 18.4355 15.0317 19.6855 14.8755C21.0918 14.8755 21.5605 14.8755 24.998 14.8755ZM24.998 12.5317C21.4043 12.5317 21.0918 12.5317 19.6855 12.5317C18.2793 12.5317 17.3418 12.8442 16.5605 13.1567C15.7793 13.4692 14.998 13.938 14.2168 14.7192C13.4355 15.5005 13.123 16.1255 12.6543 17.063C12.3418 17.8442 12.1855 18.7817 12.0293 20.188C12.0293 21.5942 12.0293 22.063 12.0293 25.5005C12.0293 29.0942 12.0293 29.4067 12.0293 30.813C12.0293 32.2192 12.3418 33.1567 12.6543 33.938C12.9668 34.7192 13.4355 35.5005 14.2168 36.2817C14.998 37.063 15.623 37.3755 16.5605 37.8442C17.3418 38.1567 18.2793 38.313 19.6855 38.4692C21.0918 38.4692 21.5605 38.4692 24.998 38.4692C28.4355 38.4692 28.9043 38.4692 30.3105 38.4692C31.7168 38.4692 32.6543 38.1567 33.4355 37.8442C34.2168 37.5317 34.998 37.063 35.7793 36.2817C36.5605 35.5005 36.873 34.8755 37.3418 33.938C37.6543 33.1567 37.8105 32.2192 37.9668 30.813C37.9668 29.4067 37.9668 28.938 37.9668 25.5005C37.9668 22.063 37.9668 21.5942 37.9668 20.188C37.9668 18.7817 37.6543 17.8442 37.3418 17.063C37.0293 16.2817 36.5605 15.5005 35.7793 14.7192C34.998 13.938 34.373 13.6255 33.4355 13.1567C32.6543 12.8442 31.7168 12.688 30.3105 12.5317C28.9043 12.5317 28.5918 12.5317 24.998 12.5317Z" fill="white"/>
<path d="M24.998 18.7817C21.248 18.7817 18.2793 21.7505 18.2793 25.5005C18.2793 29.2505 21.248 32.2192 24.998 32.2192C28.748 32.2192 31.7168 29.2505 31.7168 25.5005C31.7168 21.7505 28.748 18.7817 24.998 18.7817ZM24.998 29.8755C22.6543 29.8755 20.623 28.0005 20.623 25.5005C20.623 23.1567 22.498 21.1255 24.998 21.1255C27.3418 21.1255 29.373 23.0005 29.373 25.5005C29.373 27.8442 27.3418 29.8755 24.998 29.8755Z" fill="white"/>
<path d="M31.873 20.188C32.736 20.188 33.4355 19.4884 33.4355 18.6255C33.4355 17.7625 32.736 17.063 31.873 17.063C31.0101 17.063 30.3105 17.7625 30.3105 18.6255C30.3105 19.4884 31.0101 20.188 31.873 20.188Z" fill="white"/>
</svg>
