<svg width="50" height="51" viewBox="0 0 50 51" fill="none" xmlns="http://www.w3.org/2000/svg">
<path d="M0 25.5C0 39.3071 11.1929 50.5 25 50.5C38.8071 50.5 50 39.3071 50 25.5C50 11.6929 38.8071 0.5 25 0.5C11.1929 0.5 0 11.6929 0 25.5Z" fill="#2867B2"/>
<path d="M18.125 38H12.8125V21.2812H18.125V38ZM15.4688 18.9375C13.75 18.9375 12.5 17.6875 12.5 15.9687C12.5 14.25 13.9063 13 15.4688 13C17.1875 13 18.4375 14.25 18.4375 15.9687C18.4375 17.6875 17.1875 18.9375 15.4688 18.9375ZM37.5 38H32.1875V28.9375C32.1875 26.2813 31.0937 25.5 29.5312 25.5C27.9687 25.5 26.4062 26.75 26.4062 29.0937V38H21.0938V21.2812H26.0937V23.625C26.5625 22.5312 28.4375 20.8125 31.0937 20.8125C34.0625 20.8125 37.1875 22.5312 37.1875 27.6875V38H37.5Z" fill="white"/>
</svg>
