<svg width="50" height="51" viewBox="0 0 50 51" fill="none" xmlns="http://www.w3.org/2000/svg">
<path d="M0 25.5C0 39.3071 11.1929 50.5 25 50.5C38.8071 50.5 50 39.3071 50 25.5C50 11.6929 38.8071 0.5 25 0.5C11.1929 0.5 0 11.6929 0 25.5Z" fill="#E60023"/>
<path d="M25 13C18.125 13 12.5 18.625 12.5 25.5C12.5 30.6562 15.625 35.0312 20 36.9062C20 35.9687 20 35.0312 20.1562 34.0938C20.4687 33 21.7187 27.2188 21.7187 27.2188C21.7187 27.2188 21.25 26.4375 21.25 25.1875C21.25 23.3125 22.3438 21.9062 23.5938 21.9062C24.6875 21.9062 25.3125 22.6875 25.3125 23.7812C25.3125 24.875 24.5312 26.5938 24.2188 28.1563C23.9062 29.4063 24.8438 30.5 26.25 30.5C28.5938 30.5 30.1563 27.5312 30.1563 23.7812C30.1563 20.9687 28.2813 18.9375 25 18.9375C21.25 18.9375 18.9063 21.75 18.9063 24.875C18.9063 25.9688 19.2188 26.75 19.6875 27.375C19.8438 27.6875 20 27.6875 19.8437 28C19.8437 28.1563 19.6875 28.7813 19.5312 28.9375C19.375 29.25 19.2188 29.4062 18.9063 29.25C17.1875 28.4687 16.4062 26.5938 16.4062 24.4062C16.4062 20.8125 19.375 16.5938 25.3125 16.5938C30.1562 16.5938 33.2812 20.0312 33.2812 23.7812C33.2812 28.625 30.625 32.375 26.5625 32.375C25.1563 32.375 23.9062 31.5938 23.4375 30.8125C23.4375 30.8125 22.6562 33.625 22.5 34.25C22.1875 35.1875 21.7188 36.125 21.25 36.9062C22.3438 37.2187 23.5937 37.375 24.8437 37.375C31.7187 37.375 37.3437 31.75 37.3437 24.875C37.5 18.625 31.875 13 25 13Z" fill="white"/>
</svg>
