<svg width="20" height="20" viewBox="0 0 20 20" fill="none" xmlns="http://www.w3.org/2000/svg">
<path d="M16.374 7.74549L12.3406 7.39549L10.7656 3.68716C10.4823 3.01216 9.51563 3.01216 9.23229 3.68716L7.65729 7.40383L3.6323 7.74549C2.89896 7.80382 2.59896 8.72049 3.1573 9.20382L6.21563 11.8538L5.29896 15.7872C5.1323 16.5038 5.90729 17.0705 6.54063 16.6872L9.99896 14.6038L13.4573 16.6955C14.0906 17.0788 14.8656 16.5122 14.699 15.7955L13.7823 11.8538L16.8406 9.20382C17.399 8.72049 17.1073 7.80382 16.374 7.74549ZM9.99896 13.0455L6.86563 14.9372L7.69896 11.3705L4.9323 8.97049L8.58229 8.65383L9.99896 5.29549L11.424 8.66216L15.074 8.97883L12.3073 11.3788L13.1406 14.9455L9.99896 13.0455Z" fill="#FBBF24"/>
</svg>
