<svg width="46" height="45" viewBox="0 0 46 45" fill="none" xmlns="http://www.w3.org/2000/svg">
<rect x="1.25" y="0.5" width="44" height="44" rx="22" stroke="#E5E5E5"/>
<g clip-path="url(#clip0_108_1258)">
<path d="M16.75 16.5C16.75 15.9696 16.9607 15.4609 17.3358 15.0858C17.7109 14.7107 18.2196 14.5 18.75 14.5H28.75C29.2804 14.5 29.7891 14.7107 30.1642 15.0858C30.5393 15.4609 30.75 15.9696 30.75 16.5V30.5C30.75 31.0304 30.5393 31.5391 30.1642 31.9142C29.7891 32.2893 29.2804 32.5 28.75 32.5H18.75C18.2196 32.5 17.7109 32.2893 17.3358 31.9142C16.9607 31.5391 16.75 31.0304 16.75 30.5V16.5Z" stroke="#171717" stroke-width="1.4" stroke-linecap="round" stroke-linejoin="round"/>
<path d="M20.75 18.5H26.75" stroke="#171717" stroke-width="1.4" stroke-linecap="round" stroke-linejoin="round"/>
<path d="M20.75 22.5H26.75" stroke="#171717" stroke-width="1.4" stroke-linecap="round" stroke-linejoin="round"/>
<path d="M20.75 26.5H24.75" stroke="#171717" stroke-width="1.4" stroke-linecap="round" stroke-linejoin="round"/>
</g>
<defs>
<clipPath id="clip0_108_1258">
<rect width="24" height="24" fill="white" transform="translate(11.75 11.5)"/>
</clipPath>
</defs>
</svg>
