<svg width="26" height="15" viewBox="0 0 26 15" fill="none" xmlns="http://www.w3.org/2000/svg">
<path d="M5.00653 10.9998H0.869141V0.00216675C1.97535 0.00216675 4.13332 0.898339 4.13332 0.898339C4.65812 1.09193 5.00653 1.59004 5.00653 2.14906V10.9998Z" fill="#A65F3E"/>
<path d="M4.68634 8.82468V6.11876C4.21598 6.14269 2.69821 6.28407 2.31714 6.55815C1.58112 7.08454 1.77274 8.02421 1.76839 8.82468H4.68634Z" fill="#784D30"/>
<path d="M25.4885 10.9846H1.76819V0.883121C1.76819 0.395882 1.37187 0 0.884095 0C0.396318 0 0 0.395882 0 0.883121V15H1.30654L2.35178 12.9162H23.4089L24.4542 15H25.7607V11.2543C25.7585 11.1064 25.6388 10.9846 25.4885 10.9846Z" fill="#C87D5E"/>
<path d="M25.1729 11.6241L2.48914 11.6459C2.16468 11.6459 1.85547 11.4762 1.85547 11.1412C1.85547 11.1412 25.0532 10.9738 25.3167 10.9738C25.5801 10.9738 25.7565 10.9846 25.7565 11.2283C25.7565 11.4675 25.7217 11.6241 25.1729 11.6241Z" fill="#784D30"/>
<path d="M22.9977 11.3131L2.17794 11.3348C1.85348 11.3348 1.76855 11.0194 1.76855 10.6584V8.9378C1.76855 8.68765 1.95147 8.48318 2.17576 8.48318H22.8039C23.2351 8.48318 23.5857 8.87254 23.5857 9.35325V10.6584C23.5835 11.0194 23.3222 11.3131 22.9977 11.3131Z" fill="#E0F7FA"/>
<path d="M11.8984 11.635C11.8984 11.635 16.5759 12.9162 19.594 12.9162H23.4069L23.322 11.2304L11.8984 11.635Z" fill="#784D30"/>
<path d="M23.4072 12.9162H24.4525V15L23.4072 12.9162Z" fill="#784D30"/>
<path d="M2.34992 12.9162H1.30469V15L2.34992 12.9162Z" fill="#784D30"/>
<path d="M4.89309 8.48752C2.41936 8.48752 1.97949 7.19111 1.97949 7.19111C1.97949 7.19111 2.75253 5.76202 4.83429 5.76202C6.91605 5.76202 7.99613 7.04103 8.05928 7.46736C8.19429 8.38528 7.36681 8.48752 4.89309 8.48752Z" fill="#E0F7FA"/>
<path d="M1.97949 7.19112C2.1537 7.60875 2.80915 8.48752 4.89309 8.48752H7.18607L7.2906 7.28465C7.2906 7.28465 6.65692 7.6044 4.83429 7.6566C3.59743 7.69141 2.52606 7.49129 1.97949 7.19112Z" fill="#94D1E0"/>
<path d="M6.38281 3.5825C7.65887 3.04523 8.91533 3.86527 9.33996 4.79625C9.33996 4.79625 8.26641 5.69894 8.00293 5.79683L6.38281 3.5825Z" fill="#E0BB95"/>
<path d="M7.56689 6.97143C8.17443 5.65545 9.10643 5.00942 9.10643 5.00942L9.15869 5.0029C9.08248 4.97027 9.00409 4.94852 8.92352 4.94199C8.68616 4.92242 8.45316 5.01595 8.2158 5.05075C7.97845 5.08555 7.69536 5.03335 7.58431 4.82236C7.51027 4.68315 7.54076 4.49826 7.65399 4.3895C7.76722 4.28074 7.95232 4.25681 8.0895 4.33512C8.0024 4.02842 7.68883 3.32149 6.70457 3.38022C5.86402 3.43242 5.27608 3.97621 5.02348 4.63529C4.8275 5.14646 4.93202 6.07091 5.23688 6.23404C5.30003 6.26667 5.37625 6.28407 5.45682 6.29713C5.57223 6.31453 5.69417 6.32105 5.79434 6.34498C6.02516 6.39936 6.25163 6.46679 6.47592 6.54509C6.84611 6.67343 7.20323 6.83439 7.54729 7.01928C7.556 7.00406 7.56035 6.98883 7.56689 6.97143Z" fill="#AB872F"/>
<path d="M7.56689 6.97143C8.17443 5.65545 9.10643 5.00942 9.10643 5.00942L9.15869 5.0029C9.08248 4.97027 9.00409 4.94852 8.92352 4.94199C8.68616 4.92242 8.45316 5.01595 8.2158 5.05075C7.97845 5.08555 7.69536 5.03335 7.58431 4.82236C7.51027 4.68315 7.54076 4.49826 7.65399 4.3895C7.76722 4.28074 7.95232 4.25681 8.0895 4.33512C8.0024 4.02842 7.68883 3.32149 6.70457 3.38022C5.86402 3.43242 5.27608 3.97621 5.02348 4.63529C4.8275 5.14646 4.93202 6.07091 5.23688 6.23404C5.30003 6.26667 5.37625 6.28407 5.45682 6.29713C5.57223 6.31453 5.69417 6.32105 5.79434 6.34498C6.02516 6.39936 6.25163 6.46679 6.47592 6.54509C6.84611 6.67343 7.20323 6.83439 7.54729 7.01928C7.556 7.00406 7.56035 6.98883 7.56689 6.97143Z" fill="url(#paint0_radial_108_983)"/>
<path d="M8.9043 6.2819C9.03277 6.0448 9.71871 5.17473 11.0928 4.7571C12.8958 4.20896 14.0281 4.15023 16.9875 4.95939C18.6925 5.42488 21.4297 6.30582 23.1478 6.67125C24.4173 6.94097 26.0222 7.96331 25.7609 9.46418L8.9043 6.2819Z" fill="#3DAAE0"/>
<path d="M10.0736 6.09265C10.1782 5.90123 12.0073 5.64239 14.0259 6.1144C15.5241 6.4646 18.7535 7.12586 21.1161 7.3325C22.3269 7.43908 24.8289 7.70228 25.4059 8.28305C26.253 9.13789 26.1354 10.2146 25.4255 11.9504C25.1621 12.5964 24.45 13.1924 24.45 13.1924C18.8558 12.5507 10.2391 11.6024 8.71484 10.7845C8.71702 10.7867 8.69742 8.64195 10.0736 6.09265Z" fill="#188AD6"/>
<path d="M9.64867 7.37384C9.64867 7.37384 10.1364 6.60383 10.3215 6.27973C11.0902 4.92242 11.7348 4.7484 11.7348 4.57004C11.7348 4.39167 9.79892 4.51348 9.32856 4.80713C9.32856 4.80713 8.08517 5.19649 7.56473 6.70606C7.46674 6.98883 9.64867 7.37384 9.64867 7.37384Z" fill="#B0E0FF"/>
<path d="M8.07037 5.76203C8.07037 5.76203 8.56251 5.63804 9.38998 5.64457C10.0084 5.64892 10.5201 5.95127 10.5201 5.95127C9.32901 8.03508 9.12432 10.2059 9.08512 10.7736C9.06553 11.0564 8.9806 11.0586 8.71276 10.9716L7.1449 10.5257C6.83351 10.3951 6.78125 10.1907 6.78125 9.95576C6.78125 7.41081 8.07037 5.76203 8.07037 5.76203Z" fill="#7DBBE3"/>
<defs>
<radialGradient id="paint0_radial_108_983" cx="0" cy="0" r="1" gradientUnits="userSpaceOnUse" gradientTransform="translate(7.40229 5.52817) rotate(-0.641043) scale(2.70619 2.41204)">
<stop offset="0.641" stop-color="#BFA055" stop-opacity="0"/>
<stop offset="1" stop-color="#BFA055"/>
</radialGradient>
</defs>
</svg>
