<svg width="28" height="15" viewBox="0 0 28 15" fill="none" xmlns="http://www.w3.org/2000/svg">
<path d="M26.0515 8.67379H1.94908C0.872831 8.67379 0 7.8385 0 6.80855V0.894536C0 0.676761 0.184707 0.5 0.412271 0.5H27.5877C27.8153 0.5 28 0.676761 28 0.894536V6.80855C28.0006 7.8385 27.1278 8.67379 26.0515 8.67379Z" fill="#577AE6"/>
<path d="M22.8091 1.56173H5.19251C5.13879 1.56173 5.09473 1.52014 5.09473 1.46815C5.09473 1.41674 5.13819 1.37457 5.19251 1.37457H22.8091C22.8628 1.37457 22.9069 1.41616 22.9069 1.46815C22.9063 1.52014 22.8628 1.56173 22.8091 1.56173Z" fill="#91EDFF"/>
<path d="M25.5261 6.611C25.5026 6.611 25.479 6.60233 25.4615 6.585L24.7245 5.86814H3.24842L2.53675 6.518C2.50054 6.55092 2.44319 6.54977 2.40879 6.51511C2.37438 6.48045 2.37559 6.42557 2.41181 6.39264L3.17599 5.69484H24.8006L25.5901 6.4637C25.6251 6.49778 25.6245 6.55265 25.5889 6.58616C25.5714 6.60291 25.5485 6.611 25.5261 6.611Z" fill="#91EDFF"/>
<path d="M25.2563 8.39709H2.74497C2.57475 8.39709 2.43652 8.26481 2.43652 8.10191V7.08293C2.43652 6.92003 2.57475 6.78775 2.74497 6.78775H25.2563C25.4265 6.78775 25.5647 6.92003 25.5647 7.08293V8.10191C25.5647 8.26539 25.4265 8.39709 25.2563 8.39709Z" fill="#91EDFF"/>
<path d="M26.9733 1.56173C27.081 1.56173 27.1683 1.4782 27.1683 1.37515C27.1683 1.2721 27.081 1.18857 26.9733 1.18857C26.8656 1.18857 26.7783 1.2721 26.7783 1.37515C26.7783 1.4782 26.8656 1.56173 26.9733 1.56173Z" fill="#91EDFF"/>
<path d="M14.0005 14.5C13.9172 14.5 13.8496 14.4353 13.8496 14.3556V9.77942C13.8496 9.69971 13.9172 9.63501 14.0005 9.63501C14.0838 9.63501 14.1514 9.69971 14.1514 9.77942V14.3556C14.1514 14.4353 14.0838 14.5 14.0005 14.5Z" fill="#577AE6"/>
<path d="M10.8081 14.5C10.7248 14.5 10.6572 14.4353 10.6572 14.3556V9.77942C10.6572 9.69971 10.7248 9.63501 10.8081 9.63501C10.8914 9.63501 10.959 9.69971 10.959 9.77942V14.3556C10.959 14.4353 10.8914 14.5 10.8081 14.5Z" fill="#577AE6"/>
<path d="M17.1929 14.5C17.1096 14.5 17.042 14.4353 17.042 14.3556V9.77942C17.042 9.69971 17.1096 9.63501 17.1929 9.63501C17.2762 9.63501 17.3438 9.69971 17.3438 9.77942V14.3556C17.3438 14.4353 17.2762 14.5 17.1929 14.5Z" fill="#577AE6"/>
<path d="M21.9227 14.5H21.5593C20.8289 14.5 20.2344 13.931 20.2344 13.2321V9.77942C20.2344 9.69971 20.302 9.63501 20.3853 9.63501C20.4686 9.63501 20.5362 9.69971 20.5362 9.77942V13.2321C20.5362 13.7722 20.9949 14.2112 21.5593 14.2112H21.9227C22.4871 14.2112 22.9458 13.7722 22.9458 13.2321C22.9458 13.1523 23.0134 13.0876 23.0967 13.0876C23.18 13.0876 23.2476 13.1523 23.2476 13.2321C23.2476 13.931 22.6537 14.5 21.9227 14.5Z" fill="#577AE6"/>
<path d="M6.44125 14.5H6.07787C5.34749 14.5 4.75293 13.931 4.75293 13.2321C4.75293 13.1523 4.82053 13.0876 4.90383 13.0876C4.98713 13.0876 5.05474 13.1523 5.05474 13.2321C5.05474 13.7722 5.51349 14.2112 6.07787 14.2112H6.44125C7.00563 14.2112 7.46438 13.7722 7.46438 13.2321V9.77942C7.46438 9.69971 7.53198 9.63501 7.61528 9.63501C7.69858 9.63501 7.76619 9.69971 7.76619 9.77942V13.2321C7.76619 13.931 7.17162 14.5 6.44125 14.5Z" fill="#577AE6"/>
</svg>
