<svg width="50" height="51" viewBox="0 0 50 51" fill="none" xmlns="http://www.w3.org/2000/svg">
<path d="M0 25.5C0 39.3071 11.1929 50.5 25 50.5C38.8071 50.5 50 39.3071 50 25.5C50 11.6929 38.8071 0.5 25 0.5C11.1929 0.5 0 11.6929 0 25.5Z" fill="black"/>
<path d="M27.3784 23.5858L36.6852 13H34.4798L26.3987 22.1915L19.9443 13H12.5L22.2603 26.8992L12.5 38H14.7055L23.2394 28.2935L30.0557 38H37.5L27.3779 23.5858H27.3784ZM24.3576 27.0216L23.3687 25.6376L15.5002 14.6246H18.8878L25.2378 23.5124L26.2267 24.8965L34.4808 36.4493H31.0933L24.3576 27.0222V27.0216Z" fill="white"/>
</svg>
