<svg width="50" height="51" viewBox="0 0 50 51" fill="none" xmlns="http://www.w3.org/2000/svg">
<path d="M0 25.5C0 39.3071 11.1929 50.5 25 50.5C38.8071 50.5 50 39.3071 50 25.5C50 11.6929 38.8071 0.5 25 0.5C11.1929 0.5 0 11.6929 0 25.5Z" fill="#FF0000"/>
<path d="M36.875 19.4063C36.5625 18.3125 35.7813 17.5313 34.6875 17.2188C32.8125 16.75 24.8437 16.75 24.8437 16.75C24.8437 16.75 17.0313 16.75 15 17.2188C13.9063 17.5313 13.125 18.3125 12.8125 19.4063C12.5 21.4375 12.5 25.5 12.5 25.5C12.5 25.5 12.5 29.5625 12.9688 31.5938C13.2813 32.6875 14.0625 33.4688 15.1562 33.7812C17.0312 34.25 25 34.25 25 34.25C25 34.25 32.8125 34.25 34.8437 33.7812C35.9375 33.4688 36.7188 32.6875 37.0313 31.5938C37.5 29.5625 37.5 25.5 37.5 25.5C37.5 25.5 37.5 21.4375 36.875 19.4063ZM22.5 29.25V21.75L29.0625 25.5L22.5 29.25Z" fill="white"/>
</svg>
