<svg width="28" height="14" viewBox="0 0 28 14" fill="none" xmlns="http://www.w3.org/2000/svg">
<path d="M26.0515 8.17379H1.94908C0.872831 8.17379 0 7.3385 0 6.30855V0.394536C0 0.176761 0.184707 0 0.412271 0H27.5877C27.8153 0 28 0.176761 28 0.394536V6.30855C28.0006 7.3385 27.1278 8.17379 26.0515 8.17379Z" fill="#577AE6"/>
<path d="M22.8081 1.06167H5.19154C5.13781 1.06167 5.09375 1.02008 5.09375 0.968091C5.09375 0.91668 5.13721 0.874512 5.19154 0.874512H22.8081C22.8618 0.874512 22.9059 0.916102 22.9059 0.968091C22.9053 1.02008 22.8618 1.06167 22.8081 1.06167Z" fill="#91EDFF"/>
<path d="M25.5251 6.11098C25.5016 6.11098 25.4781 6.10232 25.4606 6.08499L24.7235 5.36812H3.24744L2.53578 6.01798C2.49956 6.05091 2.44222 6.04975 2.40781 6.01509C2.3734 5.98043 2.37461 5.92556 2.41083 5.89263L3.17501 5.19482H24.7996L25.5891 5.96368C25.6241 5.99776 25.6235 6.05264 25.5879 6.08614C25.5704 6.10289 25.5475 6.11098 25.5251 6.11098Z" fill="#91EDFF"/>
<path d="M25.2573 7.89706H2.74595C2.57573 7.89706 2.4375 7.76478 2.4375 7.60188V6.5829C2.4375 6.42 2.57573 6.28772 2.74595 6.28772H25.2573C25.4275 6.28772 25.5657 6.42 25.5657 6.5829V7.60188C25.5657 7.76536 25.4275 7.89706 25.2573 7.89706Z" fill="#91EDFF"/>
<path d="M26.9723 1.06176C27.08 1.06176 27.1673 0.978227 27.1673 0.87518C27.1673 0.772134 27.08 0.688599 26.9723 0.688599C26.8646 0.688599 26.7773 0.772134 26.7773 0.87518C26.7773 0.978227 26.8646 1.06176 26.9723 1.06176Z" fill="#91EDFF"/>
<path d="M14.0025 14C13.9192 14 13.8516 13.9353 13.8516 13.8556V9.27942C13.8516 9.19971 13.9192 9.13501 14.0025 9.13501C14.0858 9.13501 14.1534 9.19971 14.1534 9.27942V13.8556C14.1534 13.9353 14.0858 14 14.0025 14Z" fill="#577AE6"/>
<path d="M10.8072 14C10.7239 14 10.6562 13.9353 10.6562 13.8556V9.27942C10.6562 9.19971 10.7239 9.13501 10.8072 9.13501C10.8905 9.13501 10.9581 9.19971 10.9581 9.27942V13.8556C10.9581 13.9353 10.8905 14 10.8072 14Z" fill="#577AE6"/>
<path d="M17.1939 14C17.1106 14 17.043 13.9353 17.043 13.8556V9.27942C17.043 9.19971 17.1106 9.13501 17.1939 9.13501C17.2772 9.13501 17.3448 9.19971 17.3448 9.27942V13.8556C17.3448 13.9353 17.2772 14 17.1939 14Z" fill="#577AE6"/>
<path d="M21.9227 14H21.5593C20.8289 14 20.2344 13.431 20.2344 12.7321V9.27942C20.2344 9.19971 20.302 9.13501 20.3853 9.13501C20.4686 9.13501 20.5362 9.19971 20.5362 9.27942V12.7321C20.5362 13.2722 20.9949 13.7112 21.5593 13.7112H21.9227C22.4871 13.7112 22.9458 13.2722 22.9458 12.7321C22.9458 12.6523 23.0134 12.5876 23.0967 12.5876C23.18 12.5876 23.2476 12.6523 23.2476 12.7321C23.2476 13.431 22.6537 14 21.9227 14Z" fill="#577AE6"/>
<path d="M6.44222 14H6.07885C5.34847 14 4.75391 13.431 4.75391 12.7321C4.75391 12.6523 4.82151 12.5876 4.90481 12.5876C4.98811 12.5876 5.05571 12.6523 5.05571 12.7321C5.05571 13.2722 5.51446 13.7112 6.07885 13.7112H6.44222C7.00661 13.7112 7.46536 13.2722 7.46536 12.7321V9.27942C7.46536 9.19971 7.53296 9.13501 7.61626 9.13501C7.69956 9.13501 7.76716 9.19971 7.76716 9.27942V12.7321C7.76716 13.431 7.1726 14 6.44222 14Z" fill="#577AE6"/>
</svg>
