<svg width="20" height="20" viewBox="0 0 20 20" fill="none" xmlns="http://www.w3.org/2000/svg">
<g clip-path="url(#clip0_440_3243)">
<path d="M12.2227 1.11111H7.77821C7.47266 1.11111 7.22266 0.861111 7.22266 0.555556C7.22266 0.25 7.47266 0 7.77821 0H12.2227C12.5282 0 12.7782 0.25 12.7782 0.555556C12.7782 0.861111 12.5282 1.11111 12.2227 1.11111Z" fill="#292F33"/>
<path d="M7.22266 0.555542H8.33377V1.66665H7.22266V0.555542ZM11.6671 0.555542H12.7782V1.66665H11.6671V0.555542Z" fill="#292F33"/>
<path d="M7.22266 1.66663H8.33377V4.99996H7.22266V1.66663ZM11.6671 1.66663H12.7782V4.99996H11.6671V1.66663Z" fill="#CCD6DD"/>
<path d="M3.88759 13.8889C3.58203 13.8889 3.33203 13.6389 3.33203 13.3333V10C3.33203 9.69446 3.58203 9.44446 3.88759 9.44446C4.19314 9.44446 4.44314 9.69446 4.44314 10V13.3333C4.44314 13.6389 4.19314 13.8889 3.88759 13.8889ZM5.55425 19H4.9987C4.69314 19 4.44314 18.75 4.44314 18.4445V17.8889C4.44314 17.5833 4.69314 17.3333 4.9987 17.3333H5.55425C5.85981 17.3333 6.10981 17.5833 6.10981 17.8889V18.4445C6.10981 18.75 5.85981 19 5.55425 19ZM14.9987 19H14.4431C14.1376 19 13.8876 18.75 13.8876 18.4445V17.8889C13.8876 17.5833 14.1376 17.3333 14.4431 17.3333H14.9987C15.3043 17.3333 15.5543 17.5833 15.5543 17.8889V18.4445C15.5543 18.75 15.3043 19 14.9987 19Z" fill="#292F33"/>
<path d="M15.0017 18.3333H5.00174C4.39062 18.3333 3.89062 17.8333 3.89062 17.2222V5.55557C3.89062 4.94446 4.39062 4.44446 5.00174 4.44446H15.0017C15.6128 4.44446 16.1128 4.94446 16.1128 5.55557V17.2222C16.1128 17.8333 15.6128 18.3333 15.0017 18.3333Z" fill="#4289C1"/>
<path d="M14.4444 9.99999H5.55556C5.25 9.99999 5 9.74999 5 9.44443V6.1111C5 5.80554 5.25 5.55554 5.55556 5.55554H14.4444C14.75 5.55554 15 5.80554 15 6.1111V9.44443C15 9.74999 14.75 9.99999 14.4444 9.99999ZM14.4444 17.2222H5.55556C5.25 17.2222 5 16.9722 5 16.6667V11.1111C5 10.8055 5.25 10.5555 5.55556 10.5555H14.4444C14.75 10.5555 15 10.8055 15 11.1111V16.6667C15 16.9722 14.75 17.2222 14.4444 17.2222Z" fill="#5DADEC"/>
<path d="M5.00087 20C5.30769 20 5.55642 19.7513 5.55642 19.4445C5.55642 19.1376 5.30769 18.8889 5.00087 18.8889C4.69404 18.8889 4.44531 19.1376 4.44531 19.4445C4.44531 19.7513 4.69404 20 5.00087 20Z" fill="#292F33"/>
<path d="M15.0009 20C15.3077 20 15.5564 19.7513 15.5564 19.4445C15.5564 19.1376 15.3077 18.8889 15.0009 18.8889C14.694 18.8889 14.4453 19.1376 14.4453 19.4445C14.4453 19.7513 14.694 20 15.0009 20Z" fill="#292F33"/>
<path d="M14.1658 6.66664H5.83247C5.67969 6.66664 5.55469 6.54164 5.55469 6.38886C5.55469 6.23608 5.67969 6.11108 5.83247 6.11108H14.1658C14.3186 6.11108 14.4436 6.23608 14.4436 6.38886C14.4436 6.54164 14.3186 6.66664 14.1658 6.66664ZM14.1658 11.6666H5.83247C5.67969 11.6666 5.55469 11.5416 5.55469 11.3889C5.55469 11.2361 5.67969 11.1111 5.83247 11.1111H14.1658C14.3186 11.1111 14.4436 11.2361 14.4436 11.3889C14.4436 11.5416 14.3186 11.6666 14.1658 11.6666Z" fill="#2A6797"/>
<path d="M6.38802 6.66664H5.83247C5.67969 6.66664 5.55469 6.54164 5.55469 6.38886C5.55469 6.23608 5.67969 6.11108 5.83247 6.11108H6.38802C6.5408 6.11108 6.6658 6.23608 6.6658 6.38886C6.6658 6.54164 6.5408 6.66664 6.38802 6.66664ZM6.38802 11.6666H5.83247C5.67969 11.6666 5.55469 11.5416 5.55469 11.3889C5.55469 11.2361 5.67969 11.1111 5.83247 11.1111H6.38802C6.5408 11.1111 6.6658 11.2361 6.6658 11.3889C6.6658 11.5416 6.5408 11.6666 6.38802 11.6666Z" fill="#F5F8FA"/>
</g>
<defs>
<clipPath id="clip0_440_3243">
<rect width="20" height="20" fill="white"/>
</clipPath>
</defs>
</svg>
