<svg width="21" height="21" viewBox="0 0 21 21" fill="none" xmlns="http://www.w3.org/2000/svg">
<path d="M21 2.86206H0V15.7803H21V2.86206Z" fill="#188AD6"/>
<path d="M20.3947 3.33496H0.605469V15.3079H20.3947V3.33496Z" fill="black" fill-opacity="0.7"/>
<path d="M5.56502 16.7871H4.3375L3.89453 15.7804H5.12172L5.56502 16.7871Z" fill="black" fill-opacity="0.7"/>
<path d="M15.4336 16.7871H16.6611L17.1041 15.7804H15.8769L15.4336 16.7871Z" fill="black" fill-opacity="0.7"/>
<path d="M17.987 17.7422H3.00781V18.1379H17.987V17.7422Z" fill="black" fill-opacity="0.7"/>
<path d="M16.2695 16.4625H5.03125V16.7864H16.2695V16.4625Z" fill="black" fill-opacity="0.7"/>
<path d="M5.57205 16.787H4.34453L3.01562 17.7431H4.24281L5.57205 16.787Z" fill="#A2A9AA"/>
<path d="M15.4375 16.787H16.665L17.9939 17.7431H16.7667L15.4375 16.787Z" fill="#A2A9AA"/>
<g opacity="0.15">
<path d="M0.601562 9.35835V3.33496H7.7583L0.601562 9.35835Z" fill="white"/>
</g>
</svg>
