<svg width="20" height="20" viewBox="0 0 20 20" fill="none" xmlns="http://www.w3.org/2000/svg">
<g clip-path="url(#clip0_440_3256)">
<path fill-rule="evenodd" clip-rule="evenodd" d="M15.7969 5.19998H19.9969L19.9983 20H7.97129V19.9992L7.90029 20C3.53469 20 -0.00390625 18.854 -0.00390625 17.4398L-0.00310625 2.59998H15.7969V5.19998Z" fill="#F1C40F"/>
<path d="M8 2.59998H15.8V5.19998H8V2.59998Z" fill="#F39C12"/>
<path d="M7.9 5.2C12.2631 5.2 15.8 4.03594 15.8 2.6C15.8 1.16406 12.2631 0 7.9 0C3.53695 0 0 1.16406 0 2.6C0 4.03594 3.53695 5.2 7.9 5.2Z" fill="#E67E22"/>
<path opacity="0.2" d="M8.06719 3.46235C9.8345 3.46235 11.2672 3.05941 11.2672 2.56235C11.2672 2.0653 9.8345 1.66235 8.06719 1.66235C6.29988 1.66235 4.86719 2.0653 4.86719 2.56235C4.86719 3.05941 6.29988 3.46235 8.06719 3.46235Z" fill="black"/>
<path fill-rule="evenodd" clip-rule="evenodd" d="M8.13438 18.6C8.02829 18.6 7.92655 18.6421 7.85153 18.7171C7.77652 18.7921 7.73438 18.8939 7.73438 19C7.73438 19.1061 7.77652 19.2078 7.85153 19.2828C7.92655 19.3578 8.02829 19.4 8.13438 19.4C8.24046 19.4 8.3422 19.3578 8.41722 19.2828C8.49223 19.2078 8.53438 19.1061 8.53438 19C8.53438 18.8939 8.49223 18.7921 8.41722 18.7171C8.3422 18.6421 8.24046 18.6 8.13438 18.6ZM8.13438 17C8.02829 17 7.92655 17.0421 7.85153 17.1171C7.77652 17.1921 7.73438 17.2939 7.73438 17.4C7.73438 17.5061 7.77652 17.6078 7.85153 17.6828C7.92655 17.7578 8.02829 17.8 8.13438 17.8C8.24046 17.8 8.3422 17.7578 8.41722 17.6828C8.49223 17.6078 8.53438 17.5061 8.53438 17.4C8.53438 17.2939 8.49223 17.1921 8.41722 17.1171C8.3422 17.0421 8.24046 17 8.13438 17ZM8.13438 15.4C8.02829 15.4 7.92655 15.4421 7.85153 15.5171C7.77652 15.5921 7.73438 15.6939 7.73438 15.8C7.73438 15.9061 7.77652 16.0078 7.85153 16.0828C7.92655 16.1578 8.02829 16.2 8.13438 16.2C8.24046 16.2 8.3422 16.1578 8.41722 16.0828C8.49223 16.0078 8.53438 15.9061 8.53438 15.8C8.53438 15.6939 8.49223 15.5921 8.41722 15.5171C8.3422 15.4421 8.24046 15.4 8.13438 15.4ZM8.13438 13.8C8.02829 13.8 7.92655 13.8421 7.85153 13.9171C7.77652 13.9921 7.73438 14.0939 7.73438 14.2C7.73438 14.3061 7.77652 14.4078 7.85153 14.4828C7.92655 14.5578 8.02829 14.6 8.13438 14.6C8.24046 14.6 8.3422 14.5578 8.41722 14.4828C8.49223 14.4078 8.53438 14.3061 8.53438 14.2C8.53438 14.0939 8.49223 13.9921 8.41722 13.9171C8.3422 13.8421 8.24046 13.8 8.13438 13.8ZM8.13438 10.6C8.02829 10.6 7.92655 10.6421 7.85153 10.7171C7.77652 10.7921 7.73438 10.8939 7.73438 11C7.73438 11.1061 7.77652 11.2078 7.85153 11.2828C7.92655 11.3578 8.02829 11.4 8.13438 11.4C8.24046 11.4 8.3422 11.3578 8.41722 11.2828C8.49223 11.2078 8.53438 11.1061 8.53438 11C8.53438 10.8939 8.49223 10.7921 8.41722 10.7171C8.3422 10.6421 8.24046 10.6 8.13438 10.6ZM8.13438 8.99997C8.02829 8.99997 7.92655 9.04211 7.85153 9.11713C7.77652 9.19214 7.73438 9.29388 7.73438 9.39997C7.73438 9.50606 7.77652 9.6078 7.85153 9.68281C7.92655 9.75783 8.02829 9.79997 8.13438 9.79997C8.24046 9.79997 8.3422 9.75783 8.41722 9.68281C8.49223 9.6078 8.53438 9.50606 8.53438 9.39997C8.53438 9.29388 8.49223 9.19214 8.41722 9.11713C8.3422 9.04211 8.24046 8.99997 8.13438 8.99997ZM8.13438 6.59997C8.18794 6.60167 8.2413 6.59258 8.29129 6.57325C8.34128 6.55392 8.38687 6.52474 8.42536 6.48745C8.46385 6.45016 8.49445 6.40551 8.51535 6.35616C8.53625 6.30681 8.54702 6.25376 8.54702 6.20017C8.54702 6.14658 8.53625 6.09353 8.51535 6.04418C8.49445 5.99483 8.46385 5.95018 8.42536 5.91289C8.38687 5.8756 8.34128 5.84642 8.29129 5.82709C8.2413 5.80776 8.18794 5.79868 8.13438 5.80037C8.03053 5.80366 7.93204 5.84722 7.85974 5.92184C7.78745 5.99645 7.74702 6.09627 7.74702 6.20017C7.74702 6.30407 7.78745 6.40389 7.85974 6.47851C7.93204 6.55312 8.03053 6.59669 8.13438 6.59997ZM8.13438 7.39997C8.02829 7.39997 7.92655 7.44211 7.85153 7.51713C7.77652 7.59214 7.73438 7.69388 7.73438 7.79997C7.73438 7.90606 7.77652 8.0078 7.85153 8.08281C7.92655 8.15783 8.02829 8.19997 8.13438 8.19997C8.24046 8.19997 8.3422 8.15783 8.41722 8.08281C8.49223 8.0078 8.53438 7.90606 8.53438 7.79997C8.53438 7.69388 8.49223 7.59214 8.41722 7.51713C8.3422 7.44211 8.24046 7.39997 8.13438 7.39997ZM8.13438 12.2C8.02829 12.2 7.92655 12.2421 7.85153 12.3171C7.77652 12.3921 7.73438 12.4939 7.73438 12.6C7.73438 12.7061 7.77652 12.8078 7.85153 12.8828C7.92655 12.9578 8.02829 13 8.13438 13C8.24046 13 8.3422 12.9578 8.41722 12.8828C8.49223 12.8078 8.53438 12.7061 8.53438 12.6C8.53438 12.4939 8.49223 12.3921 8.41722 12.3171C8.3422 12.2421 8.24046 12.2 8.13438 12.2Z" fill="#F39C12"/>
</g>
<defs>
<clipPath id="clip0_440_3256">
<rect width="20" height="20" fill="white"/>
</clipPath>
</defs>
</svg>
